<?xml version="1.0" standalone="no"?>
<!DOCTYPE svg PUBLIC "-//W3C//DTD SVG 1.1//EN" "http://www.w3.org/Graphics/SVG/1.1/DTD/svg11.dtd" >
<svg xmlns="http://www.w3.org/2000/svg">
<metadata>
Copyright (c) 2015 by Fontsmith Ltd. All rights reserved.
</metadata>
<defs>
<font id="CoopBankNarrowWeb-Italic" horiz-adv-x="482" >
  <font-face 
    font-family="Coop Bank Narrow Web"
    font-weight="400"
    font-style="italic"
    font-stretch="normal"
    units-per-em="1000"
    panose-1="2 0 5 6 4 0 0 9 0 4"
    ascent="770"
    descent="-230"
    x-height="484"
    cap-height="690"
    bbox="-194.846 -230.545 1010.45 1023.76"
    underline-thickness="50"
    underline-position="-50"
    slope="-12"
    unicode-range="U+000D-FB04"
  />
<missing-glyph horiz-adv-x="550" 
d="M28 693h495v-693h-495v693zM444 644h-337l169 -253zM474 94v505l-169 -252zM444 50l-168 252l-169 -252h337zM78 94l168 253l-168 252v-505z" />
    <glyph glyph-name="fi" unicode="fi" horiz-adv-x="476" 
d="M428 484q18 0 15 -20l-80 -448q-3 -16 -17 -16h-51q-16 0 -13 17l73 411h-156l-106 -609q-3 -16 -17 -16h-51q-16 0 -13 17l106 608h-41q-7 0 -10.5 2.5t-1.5 12.5l5 29q2 6 4.5 9t11.5 3h42l7 36q21 109 71 157.5t137 48.5q58 0 95 -16q15 -6 10 -19l-11 -32
q-5 -16 -20 -10q-33 12 -70 12q-60 0 -89.5 -33t-41.5 -100l-8 -44h220z" />
    <glyph glyph-name="fl" unicode="fl" horiz-adv-x="490" 
d="M208 484h92q15 0 12 -15l-5 -29q-2 -6 -4.5 -9t-11.5 -3h-92l-106 -609q-3 -16 -17 -16h-51q-16 0 -13 17l106 608h-41q-7 0 -10.5 2.5t-1.5 12.5l5 29q2 6 4.5 9t11.5 3h42l7 36q21 109 71 157.5t137 48.5q28 0 53.5 -4t45.5 -13l40 5q21 3 18 -14l-123 -684
q-3 -16 -17 -16h-50q-16 0 -13 17l113 634q-29 10 -63 10q-60 0 -89.5 -33t-41.5 -100z" />
    <glyph glyph-name="f_f" unicode="ff" horiz-adv-x="544" 
d="M118 428h-39q-7 0 -10.5 2.5t-1.5 12.5l5 29q2 6 4.5 9t11.5 3h40l4 24q9 57 26.5 96t40.5 63.5t52 35.5t61 11q22 0 41.5 -5t33.5 -13q7 -4 8 -8t-1 -9l-10 -33q-3 -11 -16 -7q-12 5 -25 7.5t-29 2.5q-40 0 -64.5 -31.5t-35.5 -97.5l-6 -36h175l6 36q9 57 26.5 96
t40.5 63.5t52 35.5t61 11q21 0 41 -5t34 -13q7 -4 8 -8t-1 -9l-10 -33q-3 -11 -16 -7q-12 5 -25.5 7.5t-28.5 2.5q-40 0 -64.5 -31.5t-35.5 -97.5l-8 -48h92q15 0 12 -15l-5 -29q-2 -6 -4.5 -9t-11.5 -3h-92l-106 -609q-3 -16 -17 -16h-51q-16 0 -13 17l106 608h-174
l-106 -609q-3 -16 -17 -16h-51q-16 0 -13 17z" />
    <glyph glyph-name="f_f_i" unicode="ffi" horiz-adv-x="731" 
d="M683 484q18 0 15 -20l-80 -448q-3 -16 -17 -16h-51q-16 0 -13 17l73 411h-156l-106 -609q-3 -16 -17 -16h-51q-16 0 -13 17l106 608h-174l-106 -609q-3 -16 -17 -16h-51q-16 0 -13 17l106 608h-39q-7 0 -10.5 2.5t-1.5 12.5l5 29q2 6 4.5 9t11.5 3h40l4 24q9 57 26.5 96
t40.5 63.5t52 35.5t61 11q22 0 41.5 -5t33.5 -13q7 -4 8 -8t-1 -9l-10 -33q-3 -11 -16 -7q-12 5 -25 7.5t-29 2.5q-40 0 -64.5 -31.5t-35.5 -97.5l-6 -36h175l7 36q21 109 71 157.5t137 48.5q58 0 95 -16q15 -6 10 -19l-11 -32q-5 -16 -20 -10q-33 12 -70 12
q-60 0 -89.5 -33t-41.5 -100l-8 -44h220z" />
    <glyph glyph-name="f_f_l" unicode="ffl" horiz-adv-x="745" 
d="M463 484h92q15 0 12 -15l-5 -29q-2 -6 -4.5 -9t-11.5 -3h-92l-106 -609q-3 -16 -17 -16h-51q-16 0 -13 17l106 608h-174l-106 -609q-3 -16 -17 -16h-51q-16 0 -13 17l106 608h-39q-7 0 -10.5 2.5t-1.5 12.5l5 29q2 6 4.5 9t11.5 3h40l4 24q9 57 26.5 96t40.5 63.5
t52 35.5t61 11q22 0 41.5 -5t33.5 -13q7 -4 8 -8t-1 -9l-10 -33q-3 -11 -16 -7q-12 5 -25 7.5t-29 2.5q-40 0 -64.5 -31.5t-35.5 -97.5l-6 -36h175l7 36q21 109 71 157.5t137 48.5q28 0 53.5 -4t45.5 -13l40 5q21 3 18 -14l-123 -684q-3 -16 -17 -16h-50q-16 0 -13 17
l113 634q-29 10 -63 10q-60 0 -89.5 -33t-41.5 -100z" />
    <glyph glyph-name=".notdef" horiz-adv-x="550" 
d="M28 693h495v-693h-495v693zM444 644h-337l169 -253zM474 94v505l-169 -252zM444 50l-168 252l-169 -252h337zM78 94l168 253l-168 252v-505z" />
    <glyph glyph-name=".null" horiz-adv-x="0" 
 />
    <glyph glyph-name=".null" horiz-adv-x="0" 
 />
    <glyph glyph-name="nonmarkingreturn" unicode="&#xd;" horiz-adv-x="168" 
 />
    <glyph glyph-name="nonbreakingspace" unicode="&#xa0;" horiz-adv-x="168" 
 />
    <glyph glyph-name="space" unicode=" " horiz-adv-x="168" 
 />
    <glyph glyph-name="A" unicode="A" horiz-adv-x="513" 
d="M384 0q-15 0 -16 16l-17 176h-206l-79 -178q-4 -8 -7.5 -11t-14.5 -3h-48q-16 0 -10 15l304 661q4 8 8 11t14 3h56q17 0 18 -16l69 -657q1 -10 -1.5 -13.5t-11.5 -3.5h-58zM345 258l-17 180q-2 18 -3.5 40t-2.5 44.5t-1 43.5t1 38h-1q-10 -29 -28.5 -75t-39.5 -94
l-79 -177h171z" />
    <glyph glyph-name="B" unicode="B" horiz-adv-x="495" 
d="M463 543q0 -56 -34.5 -101.5t-100.5 -71.5v-1q54 -14 86.5 -52t32.5 -95q0 -45 -17 -82t-47 -66q-37 -35 -93 -54.5t-131 -19.5h-107q-8 0 -12.5 3.5t-2.5 14.5l117 655q3 17 20 17h96q51 0 91 -12.5t66 -38.5q36 -36 36 -96zM207 393q38 0 70 11.5t55 31.5
q20 19 32.5 45t12.5 55q0 38 -22 60q-26 26 -91 26h-33l-41 -229h17zM161 68q54 0 91 13t60 35q23 21 34 48.5t11 58.5q0 45 -29 72q-17 15 -44 23.5t-68 8.5h-38l-46 -259h29z" />
    <glyph glyph-name="C" unicode="C" horiz-adv-x="481" 
d="M381 629q-56 0 -99.5 -36t-73 -92t-45 -124t-15.5 -131q0 -91 32 -137.5t97 -46.5q29 0 56 7.5t52 18.5q16 8 22 -6l12 -29q2 -6 1 -12t-11 -12q-29 -18 -67.5 -28.5t-83.5 -10.5q-49 0 -87 18t-63.5 50t-38.5 77.5t-13 100.5q0 56 10 110.5t28 104.5t44.5 93.5
t59.5 76.5q38 38 87 59t101 21q37 0 68.5 -10.5t58.5 -27.5q9 -6 10 -11.5t-3 -12.5l-18 -32q-8 -14 -22 -6q-23 13 -46.5 20.5t-52.5 7.5z" />
    <glyph glyph-name="D" unicode="D" horiz-adv-x="566" 
d="M137 69q65 0 118.5 22t92.5 62q51 51 79 125t28 157q0 92 -46 138q-26 26 -65 37t-99 11h-14l-99 -552h5zM154 671q2 11 6.5 15t16.5 4h82q79 0 132 -17t91 -55q64 -64 64 -179q0 -47 -9 -93t-26 -89.5t-42 -82.5t-58 -70q-54 -51 -122.5 -77.5t-160.5 -26.5h-76
q-18 0 -15 17z" />
    <glyph glyph-name="E" unicode="E" horiz-adv-x="440" 
d="M190 393h187q11 0 13 -4.5t0 -12.5l-7 -37q-2 -10 -6 -12.5t-15 -2.5h-185l-45 -255h219q11 0 13 -4t0 -12l-7 -37q-2 -11 -6 -13.5t-15 -2.5h-285q-17 0 -14 17l117 656q2 11 6.5 14t14.5 3h286q10 0 12 -3.5t0 -11.5l-12 -43q-2 -7 -6 -9t-13 -2h-211z" />
    <glyph glyph-name="F" unicode="F" horiz-adv-x="426" 
d="M123 18q-3 -18 -21 -18h-50q-11 0 -14 5t-1 13l117 655q2 11 6.5 14t14.5 3h286q10 0 12 -3.5t0 -11.5l-12 -43q-2 -7 -6 -9t-13 -2h-211l-41 -228h187q11 0 13 -4.5t0 -12.5l-7 -37q-2 -10 -6 -12.5t-15 -2.5h-185z" />
    <glyph glyph-name="G" unicode="G" horiz-adv-x="559" 
d="M397 701q39 0 73 -10t62 -27q9 -6 10 -11.5t-3 -12.5l-18 -32q-5 -8 -9.5 -9t-12.5 3q-24 13 -49 20t-52 7q-83 0 -141 -63q-26 -28 -46.5 -65.5t-34.5 -79.5t-21 -86.5t-7 -87.5q0 -49 12 -89t38 -65q18 -17 39.5 -24.5t49.5 -7.5q21 0 43 4t42 12l44 247h-80
q-11 0 -13 4t0 12l7 37q2 11 6 13.5t15 2.5h146q5 0 10.5 -2.5t3.5 -12.5l-58 -322q-2 -13 -6 -19.5t-15 -11.5q-38 -17 -79.5 -26t-83.5 -9q-56 0 -96 19.5t-66 53t-38.5 79.5t-12.5 99q0 50 9 102.5t27 102t44.5 94t61.5 79.5q38 38 88 60t111 22z" />
    <glyph glyph-name="H" unicode="H" horiz-adv-x="570" 
d="M451 18q-3 -18 -21 -18h-50q-11 0 -14 5t-1 13l54 306h-242l-54 -306q-3 -18 -21 -18h-50q-11 0 -14 5t-1 13l117 654q3 18 21 18h50q11 0 14 -5t1 -13l-50 -279h242l50 279q3 18 21 18h50q11 0 14 -5t1 -13z" />
    <glyph glyph-name="I" unicode="I" horiz-adv-x="328" 
d="M223 57q14 0 13 -13l-5 -30q-3 -14 -16 -14h-184q-14 0 -13 13l5 30q3 14 16 14h49l103 576h-49q-14 0 -13 13l5 30q3 14 16 14h184q14 0 13 -13l-5 -30q-3 -14 -16 -14h-49l-103 -576h49z" />
    <glyph glyph-name="J" unicode="J" horiz-adv-x="338" 
d="M166 633q-11 0 -14.5 4.5t-1.5 12.5l5 25q2 8 6 11.5t15 3.5h144q12 0 15.5 -4.5t1.5 -14.5l-81 -451q-12 -68 -28.5 -111.5t-39.5 -69.5t-52 -38t-66 -12q-18 0 -35 3t-30 8q-11 4 -6 17l12 38q4 13 18 9q18 -5 34 -5q21 0 37 7t29 24t22 45t17 70l76 428h-78z" />
    <glyph glyph-name="K" unicode="K" horiz-adv-x="486" 
d="M123 18q-2 -11 -6.5 -14.5t-14.5 -3.5h-50q-11 0 -14 5t-1 13l117 654q3 18 21 18h50q11 0 14 -5t1 -13l-53 -294h2l237 298q7 8 13.5 11t18.5 3h50q11 0 13 -5.5t-4 -13.5l-263 -322l169 -329q11 -20 -15 -20h-54q-14 0 -20 4t-11 15l-144 302h-2z" />
    <glyph glyph-name="L" unicode="L" horiz-adv-x="393" 
d="M337 69q11 0 13 -4t0 -12l-7 -37q-2 -11 -6 -13.5t-15 -2.5h-273q-17 0 -14 17l117 655q2 11 6.5 14.5t14.5 3.5h50q11 0 14 -5t1 -13l-108 -603h207z" />
    <glyph glyph-name="M" unicode="M" horiz-adv-x="721" 
d="M213 554q-2 -25 -5.5 -58.5t-8.5 -71t-11.5 -76.5t-13.5 -75l-52 -257q-2 -8 -5.5 -12t-13.5 -4h-48q-18 0 -14 19l133 652q2 12 6.5 15.5t15.5 3.5h44q11 0 15.5 -3.5t6.5 -11.5l65 -405q8 -50 13.5 -98.5t5.5 -80.5q19 62 83 194l186 389q5 9 9.5 12.5t14.5 3.5h45
q11 0 15 -4t2 -16l-95 -653q-2 -11 -7 -14t-16 -3h-45q-20 0 -17 21l35 232q6 42 13.5 84t15.5 82t15.5 75.5t13.5 64.5q-17 -53 -43.5 -114t-65.5 -142l-140 -290q-5 -8 -10 -10.5t-13 -2.5h-33q-8 0 -12 2.5t-6 10.5l-43 256q-7 40 -12.5 82t-10 80t-8 70t-4.5 53z" />
    <glyph glyph-name="N" unicode="N" horiz-adv-x="596" 
d="M353 359q29 -75 48 -133t26 -98q0 12 3 38.5t7.5 60.5t10 69.5t10.5 65.5l54 312q2 8 5.5 12t13.5 4h49q17 0 14 -16l-117 -657q-2 -11 -6.5 -14t-14.5 -3h-33q-10 0 -14.5 3t-7.5 11l-126 325q-20 54 -39 111t-30 111q-2 -34 -10 -90t-19 -122l-58 -333q-2 -10 -5.5 -13
t-13.5 -3h-49q-17 0 -14 18l117 655q2 9 5.5 13t14.5 4h33q12 0 16 -3t8 -12z" />
    <glyph glyph-name="O" unicode="O" horiz-adv-x="564" 
d="M246 62q31 0 58 18t50 48.5t41 71t31 85.5t19.5 92t6.5 90q0 33 -5.5 62.5t-17 51t-30 34.5t-45.5 13q-31 0 -58 -18t-50 -48.5t-41 -71t-31 -85.5t-19.5 -92t-6.5 -90q0 -33 5.5 -62.5t17 -51t30 -34.5t45.5 -13zM238 -11q-91 0 -136.5 63t-45.5 168q0 51 9 106.5
t26.5 109t43.5 101.5t60 84.5t75.5 58t91.5 21.5q91 0 136.5 -63t45.5 -168q0 -51 -9 -106.5t-26.5 -109t-43.5 -101.5t-60 -84.5t-76 -58t-91 -21.5z" />
    <glyph glyph-name="P" unicode="P" horiz-adv-x="456" 
d="M178 329q8 -1 17.5 -1h18.5q39 0 70 16t52.5 42t33 59.5t11.5 68.5q0 50 -24 77q-17 18 -42.5 24.5t-60.5 6.5h-24zM123 18q-3 -18 -21 -18h-50q-11 0 -14 5t-1 13l117 655q2 9 5.5 13t14.5 4h89q59 0 97.5 -11.5t64.5 -37.5q44 -44 44 -123q0 -54 -19 -101.5t-53.5 -83
t-81.5 -55.5t-102 -20q-11 0 -25 0.5t-22 1.5z" />
    <glyph glyph-name="Q" unicode="Q" horiz-adv-x="564" 
d="M234 -11q-43 0 -76.5 16.5t-56 46.5t-34 72.5t-11.5 95.5q0 51 9 106.5t26.5 109t43.5 101.5t60 84.5t75.5 58t91.5 21.5q91 0 136.5 -63t45.5 -168q0 -60 -12 -125t-35.5 -125t-58.5 -111t-81 -82q14 -5 26.5 -14.5t25 -21t26 -22t30.5 -16.5q13 -5 16 -10.5t-1 -15.5
l-12 -29q-5 -11 -11.5 -14.5t-18.5 -3.5q-41 0 -86 45q-23 23 -37.5 36t-26.5 19t-24 7.5t-30 1.5zM246 62q31 0 58 18t50 48.5t41 71t31 85.5t19.5 92t6.5 90q0 33 -5.5 62.5t-17 51t-30 34.5t-45.5 13q-31 0 -58 -18t-50 -48.5t-41 -71t-31 -85.5t-19.5 -92t-6.5 -90
q0 -33 5.5 -62.5t17 -51.5t30 -34.5t45.5 -12.5z" />
    <glyph glyph-name="R" unicode="R" horiz-adv-x="480" 
d="M469 520q0 -52 -19.5 -95.5t-52.5 -75.5q-34 -33 -80 -51l84 -279q5 -19 -15 -19h-50q-11 0 -15 3t-7 12l-76 264q-24 -3 -51 -3h-19l-45 -258q-3 -18 -21 -18h-50q-11 0 -14 5t-1 13l116 655q2 9 5.5 13t14.5 4h88q115 0 164 -49q44 -42 44 -121zM179 344h14
q48 0 80.5 12t55.5 34q25 23 38.5 57t13.5 75q0 46 -25 71q-15 14 -39.5 21.5t-62.5 7.5h-25z" />
    <glyph glyph-name="S" unicode="S" horiz-adv-x="446" 
d="M437 615q-6 -13 -22 -6q-24 11 -46 16.5t-48 5.5q-28 0 -50.5 -9t-38 -25t-24 -37t-8.5 -45q0 -29 14 -53t35 -47t46 -45.5t46 -48.5t35 -56t14 -67q0 -43 -16.5 -81t-46.5 -66.5t-70.5 -45t-88.5 -16.5q-42 0 -79 11t-61 26q-11 7 -5 21l15 32q5 11 10 12.5t13 -3.5
q23 -13 52.5 -21t54.5 -8q29 0 54 10.5t43.5 28t29 41.5t10.5 51q0 30 -14 54t-35 46.5t-46 44t-46 47t-35 55.5t-14 69t14.5 74t41.5 62t65.5 43t86.5 16q40 0 71.5 -10t52.5 -23q11 -6 5 -20z" />
    <glyph glyph-name="T" unicode="T" horiz-adv-x="442" 
d="M508 690q10 0 12 -3.5t0 -11.5l-12 -43q-2 -7 -6 -9t-13 -2h-150l-108 -603q-3 -18 -21 -18h-50q-11 0 -14 5t-1 13l108 603h-159q-11 0 -13 4t0 12l7 37q2 11 6 13.5t15 2.5h399z" />
    <glyph glyph-name="U" unicode="U" horiz-adv-x="587" 
d="M152 672q3 18 21 18h49q11 0 14 -5t1 -13l-62 -347q-9 -51 -14 -85t-5 -63q0 -53 26.5 -84t77.5 -31q67 0 109 54q23 31 39 79t30 123l64 354q3 18 21 18h50q11 0 14 -5t1 -13l-67 -376q-15 -85 -39 -143t-58 -94q-66 -70 -170 -70q-88 0 -136.5 46.5t-48.5 133.5
q0 26 5 61t13 78z" />
    <glyph glyph-name="V" unicode="V" horiz-adv-x="504" 
d="M255 16q-5 -9 -9.5 -12.5t-15.5 -3.5h-33q-12 0 -16.5 3t-6.5 14l-75 657q-1 10 3.5 13t12.5 3h51q17 0 18 -16l36 -357q5 -50 10 -107t6 -104q13 45 34 99.5t42 101.5l161 368q4 9 8 12t15 3h48q18 0 11 -15z" />
    <glyph glyph-name="W" unicode="W" horiz-adv-x="738" 
d="M472 690q18 0 18 -16l11 -346q1 -25 1 -55t-1 -60t-2 -58t-3 -50q14 55 33.5 116t42.5 119l130 335q4 10 9 12.5t16 2.5h47q18 0 11 -15l-268 -659q-4 -10 -9.5 -13t-16.5 -3h-39q-10 0 -14 3t-5 14l-11 306q-2 68 -2 129.5t4 120.5q-13 -49 -34.5 -115t-46.5 -129
l-122 -310q-5 -11 -9 -15t-15 -4h-42q-11 0 -14 4t-4 15l-34 653q-1 11 4 14.5t14 3.5h48q11 0 15 -2.5t5 -12.5l13 -334q2 -63 2 -117t-4 -118q13 51 31.5 112t41.5 119l131 337q4 9 8.5 12.5t15.5 3.5h44z" />
    <glyph glyph-name="X" unicode="X" horiz-adv-x="479" 
d="M220 360l-91 313q-5 17 13 17h50q11 0 15.5 -3t6.5 -11l68 -234l146 233q6 9 12 12t18 3h46q8 0 10.5 -5t-1.5 -11l-207 -315l100 -342q5 -17 -13 -17h-50q-11 0 -15.5 3t-6.5 11l-77 263l-165 -262q-6 -9 -12 -12t-18 -3h-45q-8 0 -10.5 5t1.5 11z" />
    <glyph glyph-name="Y" unicode="Y" horiz-adv-x="456" 
d="M279 280l-46 -262q-3 -18 -21 -18h-50q-11 0 -14 5t-1 13l47 262l-93 394q-3 16 15 16h55q10 0 13 -3t5 -10l39 -174q14 -61 20 -100t6 -62q8 20 18.5 44t21.5 47.5t22 45t20 36.5l92 162q5 9 9.5 11.5t15.5 2.5h47q18 0 10 -15z" />
    <glyph glyph-name="Z" unicode="Z" horiz-adv-x="477" 
d="M384 69q11 0 13 -4t0 -12l-7 -37q-2 -11 -6 -13.5t-15 -2.5h-354q-15 0 -12 16l3 15q2 11 8 22.5t14 24.5l250 372q35 53 65.5 97t56.5 74h-256q-11 0 -13 4t0 12l7 37q2 11 6 13.5t15 2.5h337q15 0 12 -16l-3 -15q-2 -11 -8 -22.5t-14 -24.5l-252 -374
q-35 -51 -64.5 -92.5t-55.5 -76.5h273z" />
    <glyph glyph-name="a" unicode="a" horiz-adv-x="467" 
d="M334 -6q-25 0 -38 12.5t-16 33.5q-25 -23 -56 -37t-62 -14q-26 0 -48.5 10.5t-39.5 31.5t-27 51t-10 69q0 84 28 155.5t76 119.5q32 32 73.5 50.5t89.5 18.5q28 0 57.5 -7t51.5 -18q9 -5 10.5 -10t-0.5 -16l-59 -330q-2 -13 -3 -22t-1 -14q0 -20 17 -20q5 0 10.5 1
t11.5 3q14 3 11 -11l-5 -25q-2 -6 -4 -9.5t-9 -7.5q-13 -7 -28.5 -11t-29.5 -4zM186 59q21 0 47 11.5t49 31.5l57 322q-18 8 -39 8q-57 0 -99 -44q-36 -38 -57.5 -100t-21.5 -131q0 -48 17.5 -73t46.5 -25z" />
    <glyph glyph-name="b" unicode="b" horiz-adv-x="459" 
d="M216 713q21 3 18 -14l-44 -249q24 21 53 33t58 12q52 0 87 -42t35 -120q0 -84 -28 -155.5t-76 -119.5q-32 -32 -73.5 -50.5t-89.5 -18.5q-29 0 -58.5 7t-51.5 18q-9 5 -11 10t0 16l116 650q2 9 6 12t14 5zM274 425q-21 0 -47.5 -11.5t-49.5 -31.5l-57 -322q18 -8 40 -8
q57 0 99 44q36 38 57.5 100t21.5 131q0 48 -17.5 73t-46.5 25z" />
    <glyph glyph-name="c" unicode="c" horiz-adv-x="375" 
d="M378 472q8 -5 9.5 -9.5t-2.5 -12.5l-14 -29q-5 -11 -20 -5q-17 8 -33.5 11.5t-34.5 3.5q-38 0 -68 -21.5t-51 -57.5t-32 -82.5t-11 -97.5q0 -60 26 -91q22 -27 63 -27q17 0 39 5t41 14q8 4 12 2t6 -8l10 -27q2 -7 1 -12.5t-12 -10.5q-26 -12 -55 -20t-63 -8t-60 10
t-45 28q-48 48 -48 141q0 36 7 73t19.5 71.5t31 65t42.5 54.5q29 29 65.5 46t81.5 17q52 0 95 -23z" />
    <glyph glyph-name="d" unicode="d" horiz-adv-x="462" 
d="M186 59q21 0 48.5 11.5t50.5 31.5l53 303q-12 10 -27.5 16.5t-33.5 6.5q-32 0 -60 -23t-49 -61t-33.5 -86.5t-12.5 -98.5q0 -52 17.5 -76t46.5 -24zM269 495q46 0 80 -26l39 221q2 9 6 12t14 5l45 6q21 3 18 -14l-121 -682q-2 -8 -6.5 -12.5t-15.5 -4.5h-33
q-11 0 -14.5 4.5t-1.5 12.5l4 23q-25 -23 -57 -37t-64 -14q-24 0 -47 10t-40 30t-27.5 50.5t-10.5 71.5q0 85 28.5 159.5t73.5 122.5q28 29 61.5 45.5t68.5 16.5z" />
    <glyph glyph-name="e" unicode="e" horiz-adv-x="436" 
d="M220 54q26 0 50.5 7t43.5 15q8 4 12 2t6 -8l10 -27q3 -8 1.5 -13t-12.5 -10q-26 -13 -59 -22t-70 -9q-76 0 -121 48t-45 137q0 60 17.5 117.5t49 103t74.5 73t94 27.5q62 0 98 -39.5t36 -111.5q0 -22 -3.5 -47.5t-8.5 -48.5q-3 -11 -8.5 -15.5t-17.5 -4.5h-243
q-3 -24 -3 -48q0 -63 27 -94.5t72 -31.5zM264 432q-21 0 -40.5 -11.5t-36.5 -32t-30 -47.5t-22 -58h184q8 30 8 64q0 39 -16 62t-47 23z" />
    <glyph glyph-name="f" unicode="f" horiz-adv-x="288" 
d="M78 428q-7 0 -10.5 2.5t-1.5 12.5l5 29q2 6 4.5 9t11.5 3h40l6 36q9 57 26.5 96t40.5 63.5t52 35.5t61 11q21 0 41 -5t34 -13q7 -4 8 -8t-1 -9l-10 -33q-3 -11 -16 -7q-12 5 -26 7.5t-28 2.5q-40 0 -64.5 -31.5t-35.5 -97.5l-8 -48h92q15 0 12 -15l-5 -29q-2 -6 -4.5 -9
t-11.5 -3h-92l-106 -609q-3 -16 -17 -16h-51q-16 0 -13 17l106 608h-39z" />
    <glyph glyph-name="g" unicode="g" horiz-adv-x="462" 
d="M353 14q-21 -116 -70 -175.5t-140 -59.5q-31 0 -61 7t-45 16q-14 8 -8 22l12 27q3 7 7 9.5t13 -1.5q40 -16 77 -16q60 0 91 41.5t47 129.5l5 28q-25 -23 -55 -35t-60 -12q-52 0 -88.5 40t-36.5 118q0 84 29 154.5t77 118.5q32 32 74 50.5t90 18.5q29 0 58 -7t51 -18
q9 -5 10.5 -10.5t-0.5 -15.5zM191 64q20 0 47.5 11t50.5 31l57 318q-18 8 -39 8q-58 0 -100 -44q-36 -38 -58.5 -99t-22.5 -130q0 -48 18 -71.5t47 -23.5z" />
    <glyph glyph-name="h" unicode="h" horiz-adv-x="472" 
d="M366 16q-3 -16 -18 -16h-49q-17 0 -14 17l52 292q7 41 7 58q0 26 -13 41.5t-42 15.5q-28 0 -58.5 -16.5t-56.5 -40.5l-62 -351q-3 -16 -17 -16h-51q-16 0 -13 17l118 674q2 9 6 12t14 5l44 6q21 3 18 -14l-46 -263q27 25 62 41.5t69 16.5q49 0 79 -30.5t30 -84.5
q0 -16 -2 -33.5t-6 -39.5z" />
    <glyph glyph-name="i" unicode="i" horiz-adv-x="226" 
d="M172 565q-17 0 -29 10t-12 28q0 23 16.5 38.5t39.5 15.5q17 0 29 -10t12 -28q0 -23 -16.5 -38.5t-39.5 -15.5zM114 16q-3 -16 -17 -16h-51q-16 0 -13 17l80 451q3 16 18 16h50q16 0 13 -17z" />
    <glyph glyph-name="j" unicode="j" horiz-adv-x="226" 
d="M114 13q-9 -53 -22 -96t-34 -74t-52 -47.5t-77 -16.5q-11 0 -24.5 1.5t-21.5 3.5q-9 2 -11 6t0 14l6 26q2 10 5.5 12t10.5 1t15 -1.5t13 -0.5q27 0 45 12t30 34t20 52t14 65l82 464q2 8 5.5 12t12.5 4h50q16 0 13 -18zM172 565q-17 0 -29 10t-12 28q0 23 16.5 38.5
t39.5 15.5q17 0 29 -10t12 -28q0 -23 -16.5 -38.5t-39.5 -15.5z" />
    <glyph glyph-name="k" unicode="k" horiz-adv-x="410" 
d="M330 472q7 7 12 9.5t16 2.5h47q8 0 9.5 -5t-2.5 -10l-172 -186l118 -264q4 -8 1.5 -13.5t-13.5 -5.5h-48q-11 0 -15 3.5t-7 9.5l-92 209l-43 -46l-28 -160q-3 -16 -17 -16h-51q-16 0 -13 17l118 674q2 9 6 12t14 5l44 6q21 3 18 -14l-72 -414z" />
    <glyph glyph-name="l" unicode="l" horiz-adv-x="224" 
d="M151 691q2 9 6 12t14 5l45 6q21 3 18 -14l-123 -684q-3 -16 -17 -16h-50q-16 0 -13 17z" />
    <glyph glyph-name="m" unicode="m" horiz-adv-x="707" 
d="M184 436q27 25 61 42t69 17t60 -16.5t36 -46.5q32 28 68 45.5t74 17.5q49 0 78.5 -30.5t29.5 -84.5q0 -16 -2 -33.5t-6 -39.5l-51 -291q-3 -16 -18 -16h-51q-9 0 -11.5 4.5t-0.5 12.5l52 292q7 41 7 58q0 26 -12 41.5t-41 15.5q-25 0 -53.5 -13.5t-53.5 -33.5
q-1 -15 -2.5 -32.5t-5.5 -37.5l-51 -291q-3 -16 -18 -16h-51q-9 0 -11.5 4.5t-0.5 12.5l52 292q7 41 7 58q0 26 -11 41.5t-40 15.5q-28 0 -57.5 -16.5t-55.5 -40.5l-62 -351q-3 -16 -17 -16h-51q-16 0 -13 17l80 451q3 16 20 16h45q10 0 12.5 -4.5t0.5 -13.5z" />
    <glyph glyph-name="n" unicode="n" horiz-adv-x="472" 
d="M184 436q27 25 62 42t70 17q49 0 79 -30.5t30 -84.5q0 -16 -2 -33.5t-6 -39.5l-51 -291q-3 -16 -18 -16h-49q-17 0 -14 17l52 292q7 41 7 58q0 26 -13 41.5t-42 15.5q-28 0 -58.5 -16.5t-56.5 -40.5l-62 -351q-3 -16 -17 -16h-51q-16 0 -13 17l80 451q3 16 20 16h45
q10 0 12.5 -4.5t0.5 -13.5z" />
    <glyph glyph-name="o" unicode="o" horiz-adv-x="456" 
d="M421 317q0 -56 -15.5 -114t-45 -105.5t-73 -78t-99.5 -30.5q-76 0 -114 50t-38 128q0 56 15.5 114t45 105.5t73 78t99.5 30.5q76 0 114 -50t38 -128zM336 316q0 51 -18 83t-55 32q-33 0 -59.5 -24t-44.5 -62.5t-28 -85t-10 -91.5q0 -51 18 -83t55 -32q33 0 59.5 24
t44.5 62.5t28 85t10 91.5z" />
    <glyph glyph-name="p" unicode="p" horiz-adv-x="460" 
d="M73 -204q-2 -9 -6 -12t-14 -5l-45 -6q-21 -3 -18 14l121 681q3 16 20 16h45q10 0 12.5 -4.5t0.5 -13.5l-5 -28q26 24 57.5 40.5t64.5 16.5q24 0 45 -10t37.5 -30t26 -50.5t9.5 -71.5q0 -85 -28.5 -159.5t-73.5 -122.5q-28 -29 -61.5 -45.5t-68.5 -16.5q-46 0 -80 26z
M184 55q31 0 59.5 23.5t49.5 61.5t33.5 86.5t12.5 98.5q0 52 -16 76t-45 24q-21 0 -49.5 -15t-54.5 -39l-51 -292q12 -10 27.5 -17t33.5 -7z" />
    <glyph glyph-name="q" unicode="q" horiz-adv-x="458" 
d="M244 -227q-21 -3 -18 14l44 247q-24 -21 -51.5 -33t-56.5 -12q-26 0 -48.5 10.5t-39.5 31.5t-27 51t-10 69q0 84 28 155.5t76 119.5q32 32 73.5 50.5t89.5 18.5q29 0 58.5 -7t51.5 -18q9 -5 10.5 -10t-0.5 -16l-115 -648q-2 -9 -6 -12t-14 -5zM186 59q21 0 47.5 11.5
t49.5 31.5l57 322q-18 8 -40 8q-57 0 -99 -44q-36 -38 -57.5 -100t-21.5 -131q0 -48 17.5 -73t46.5 -25z" />
    <glyph glyph-name="r" unicode="r" horiz-adv-x="303" 
d="M319 434q-3 -9 -7 -11.5t-13 -2.5h-9q-29 0 -58 -13.5t-59 -45.5l-61 -345q-3 -16 -17 -16h-51q-16 0 -13 17l80 451q3 16 20 16h45q10 0 12.5 -4.5t0.5 -13.5l-6 -38q27 31 59.5 49t58.5 18q20 0 26 -5.5t4 -14.5z" />
    <glyph glyph-name="s" unicode="s" horiz-adv-x="365" 
d="M333 425q-2 -6 -6.5 -8t-13.5 2q-17 7 -35 11t-37 4q-37 0 -60.5 -22.5t-23.5 -54.5q0 -29 22 -51.5t48.5 -46t48.5 -52.5t22 -71q0 -30 -11 -56.5t-32 -47t-50.5 -32t-66.5 -11.5q-31 0 -62.5 7.5t-54.5 18.5q-8 4 -9 7.5t2 11.5l11 27q4 9 8 12t14 -2q20 -8 43 -14
t46 -6q35 0 59.5 19.5t24.5 56.5q0 20 -10.5 36t-26 31t-34 30t-34 33t-26 40t-10.5 51q0 30 12 56.5t34 47t52 32t65 11.5q26 0 49.5 -5.5t42.5 -14.5q8 -4 10 -8.5t-1 -13.5z" />
    <glyph glyph-name="t" unicode="t" horiz-adv-x="310" 
d="M208 484h89q15 0 12 -15l-5 -29q-2 -6 -4.5 -9t-11.5 -3h-90l-45 -252q-9 -51 -9 -73q0 -50 44 -50q12 0 24.5 3t22.5 6q8 2 12 0.5t4 -10.5v-29q0 -6 -2.5 -10.5t-11.5 -8.5q-15 -6 -34 -10.5t-40 -4.5q-48 0 -74 26q-13 13 -20.5 31.5t-7.5 42.5q0 17 2 36t7 46l46 257
h-41q-7 0 -10.5 2.5t-1.5 12.5l5 29q2 6 4.5 9t11.5 3h42l21 114q2 9 6 12t14 5l44 6q21 3 18 -14z" />
    <glyph glyph-name="u" unicode="u" horiz-adv-x="472" 
d="M289 48q-27 -25 -62 -42t-70 -17q-49 0 -79 30.5t-30 84.5q0 16 2 33.5t6 39.5l51 291q2 8 5.5 12t12.5 4h51q9 0 11.5 -4.5t0.5 -12.5l-52 -292q-7 -41 -7 -58q0 -26 13 -41.5t42 -15.5q28 0 58.5 16.5t56.5 40.5l62 351q3 16 17 16h51q16 0 13 -17l-80 -451
q-3 -16 -20 -16h-45q-10 0 -12.5 4.5t-0.5 13.5z" />
    <glyph glyph-name="v" unicode="v" horiz-adv-x="401" 
d="M164 331q6 -54 8.5 -98t2.5 -69q0 -17 -0.5 -33.5t-1.5 -31.5q8 28 27.5 74.5t42.5 97.5l88 199q4 8 8.5 11t15.5 3h43q9 0 10.5 -5t-1.5 -12l-212 -453q-4 -8 -10 -11t-15 -3h-32q-11 0 -14 4.5t-4 11.5l-51 449q-1 19 18 19h43q11 0 14.5 -3t4.5 -11z" />
    <glyph glyph-name="w" unicode="w" horiz-adv-x="590" 
d="M387 97q17 53 36 109.5t42 113.5l58 149q4 8 8 11.5t15 3.5h42q15 0 9 -15l-189 -453q-7 -16 -24 -16h-34q-11 0 -15 3t-5 14l-14 179q-2 27 -3 54t-1 49q0 26 1 49t2 42q-7 -33 -23 -81t-36 -96l-82 -198q-4 -8 -9 -11.5t-16 -3.5h-34q-10 0 -13.5 3t-4.5 12l-28 453
q-1 16 17 16h44q9 0 12.5 -2.5t4.5 -11.5l9 -188q1 -27 1.5 -55.5t0.5 -54.5t-0.5 -45.5t-1.5 -28.5q6 25 19.5 67.5t30.5 83.5l87 221q4 9 8.5 11.5t13.5 2.5h36q10 0 13 -3t4 -12l14 -192q1 -22 2.5 -47.5t2.5 -50t1 -46t-1 -36.5z" />
    <glyph glyph-name="x" unicode="x" horiz-adv-x="410" 
d="M227 311l108 160q9 13 25 13h42q9 0 12 -5t-2 -12l-161 -223l80 -227q2 -7 -0.5 -12t-12.5 -5h-43q-11 0 -15 3.5t-7 11.5l-62 175l-119 -177q-9 -13 -25 -13h-42q-9 0 -12 5t2 12l173 240l-74 210q-2 7 -0.5 12t11.5 5h45q11 0 15 -3.5t7 -11.5z" />
    <glyph glyph-name="y" unicode="y" horiz-adv-x="404" 
d="M166 -73q-18 -40 -36.5 -68t-39.5 -46t-45.5 -26t-55.5 -8q-14 0 -27 2.5t-21 6.5q-9 4 -6 17l8 30q3 11 14 10q6 -1 15 -2t17 -1q18 0 32 5t27 18t26.5 35t28.5 55l17 37l-56 476q-2 16 15 16h51q16 0 17 -15l19 -188q5 -51 7.5 -100.5t4.5 -96.5q5 18 12 38.5t15 41
t16 40t15 35.5l105 232q3 7 6.5 10t13.5 3h44q17 0 10 -15z" />
    <glyph glyph-name="z" unicode="z" horiz-adv-x="381" 
d="M103 428q-15 0 -12 15l5 29q2 8 5 10t11 2h246q16 0 15 -13l-2 -12q-2 -13 -7.5 -23t-13.5 -23l-178 -261q-17 -25 -38 -52t-35 -44h191q15 0 12 -15l-5 -29q-2 -8 -5 -10t-11 -2h-261q-16 0 -15 13l2 12q2 13 7.5 23t13.5 23l178 261q17 25 38 52t35 44h-176z" />
    <glyph glyph-name="ampersand" unicode="&#x26;" horiz-adv-x="603" 
d="M428 586q0 -32 -10.5 -58.5t-28.5 -50.5t-41.5 -45t-49.5 -40l109 -220q32 48 50.5 109t23.5 130q1 8 4 10.5t11 2.5h33q13 0 13 -13q0 -28 -6 -65t-18.5 -77.5t-32 -81.5t-45.5 -76q17 -29 33.5 -40.5t42.5 -16.5q9 -2 11 -5.5t0 -11.5l-7 -35q-2 -11 -17 -11
q-74 0 -120 61q-35 -30 -78.5 -46.5t-93.5 -16.5q-40 0 -72.5 12t-56 34t-36 53t-12.5 68q0 74 45 133t125 113q-20 39 -31.5 73.5t-11.5 67.5t11.5 62t31.5 50.5t48 33.5t61 12q28 0 49.5 -9t36 -25t22 -36.5t7.5 -44.5zM119 167q0 -53 31 -81.5t78 -28.5q35 0 66 13t58 36
l-119 241q-56 -41 -85 -84.5t-29 -95.5zM240 552q0 -21 5.5 -44t24.5 -60q35 28 58.5 60.5t23.5 72.5q0 26 -11 42.5t-34 16.5q-28 0 -47.5 -25t-19.5 -63z" />
    <glyph glyph-name="at" unicode="@" horiz-adv-x="670" 
d="M449 149q-62 0 -71 53q-18 -18 -39 -29.5t-44 -11.5q-35 0 -57 26.5t-22 75.5q0 39 15 84t40.5 83.5t59 63.5t71.5 25q23 0 36.5 -11.5t22.5 -29.5l6 17q2 6 5 8.5t11 2.5h38q5 0 7.5 -2.5t0.5 -8.5l-76 -221q-12 -35 -12 -53q0 -27 24 -27q22 0 45.5 23.5t43.5 62
t33 86.5t13 97q0 90 -43 137.5t-119 47.5q-45 0 -85 -18t-74 -49t-61.5 -72t-46.5 -86.5t-29.5 -93t-10.5 -91.5q0 -50 13 -87.5t36 -62.5t55.5 -37t70.5 -12q35 0 73.5 9t68.5 22q10 4 14 -5l7 -17q2 -6 2 -10t-6 -8q-34 -19 -82 -30t-93 -11q-51 0 -95 16t-76 47t-50.5 77
t-18.5 107q0 80 30.5 162.5t84 150t125.5 110t155 42.5q48 0 87.5 -15.5t68 -44.5t44.5 -71.5t16 -96.5q0 -57 -16.5 -115t-45.5 -104.5t-67.5 -75.5t-82.5 -29zM325 217q13 0 27 7.5t28 18.5q10 38 27 88l36 106q-7 16 -16 25t-23 9q-23 0 -44 -22t-36.5 -53.5t-24.5 -65.5
t-9 -59q0 -26 8.5 -40t26.5 -14z" />
    <glyph glyph-name="exclam" unicode="!" horiz-adv-x="268" 
d="M156 188q-2 -7 -5 -10t-13 -3h-37q-13 0 -11 13l78 485q3 17 19 17h50q18 0 15 -16zM148 50q0 -25 -19.5 -43t-42.5 -18q-18 0 -31 11.5t-13 30.5q0 26 18.5 43t43.5 17q18 0 31 -11t13 -30z" />
    <glyph glyph-name="exclamdown" unicode="&#xa1;" horiz-adv-x="268" 
d="M112.993 295.982q2 6.99902 5 9.99902q2.99902 3 12.999 3h36.998q12.999 0 10.999 -12.999l-77.9951 -484.971q-3 -16.999 -18.999 -16.999h-49.9971q-17.999 0 -14.999 15.999zM120.992 433.974q0 24.998 19.499 42.9971t42.498 17.999q17.998 0 30.998 -11.499
q12.999 -11.5 12.999 -30.498q0 -25.999 -18.499 -42.998t-43.4971 -16.999q-17.999 0 -30.998 11q-13 10.999 -13 29.998z" />
    <glyph glyph-name="question" unicode="?" horiz-adv-x="384" 
d="M397 560q0 -40 -15.5 -70.5t-39 -56.5t-51 -50t-52 -51t-41.5 -60.5t-20 -80.5q-1 -10 -4.5 -13t-12.5 -3h-38q-12 0 -12 14q0 54 15 91.5t37 67t48.5 53.5t48.5 47t37 48.5t15 58.5q0 37 -20 58.5t-58 21.5q-23 0 -48 -6.5t-48 -17.5q-13 -6 -18 4l-13 30
q-4 8 -2.5 12.5t8.5 8.5q29 17 64 26t68 9q35 0 65.5 -11t50.5 -32q17 -18 26.5 -42t9.5 -56zM179 50q0 -25 -19.5 -43t-42.5 -18q-18 0 -31 11.5t-13 30.5q0 26 18.5 43t43.5 17q18 0 31 -11t13 -30z" />
    <glyph glyph-name="questiondown" unicode="&#xbf;" horiz-adv-x="384" 
d="M-6 -75.9951q0 39.9971 15.499 70.4951t38.998 56.4971q23.499 25.998 50.9971 49.9971q27.498 23.998 51.9971 50.9961q24.498 26.999 41.4971 60.4971t19.999 80.4951q1 9.99902 4.49902 12.999q3.5 3 12.5 3h37.9971q11.999 0 11.999 -13.999
q0 -53.9971 -14.999 -91.4951q-14.999 -37.4971 -36.9971 -66.9961q-21.999 -29.498 -48.4971 -53.4961q-26.499 -23.999 -48.4971 -46.9971q-21.999 -22.999 -36.998 -48.4971q-14.999 -25.499 -14.999 -58.4971q0 -36.9971 19.999 -58.4961t57.9961 -21.499
q22.999 0 47.9971 6.5q24.999 6.5 47.9971 17.499q12.999 6 17.999 -4l12.999 -29.998q4 -7.99902 2.5 -12.499t-8.49902 -8.5q-28.999 -16.999 -63.9961 -25.998q-34.998 -8.99902 -67.9961 -8.99902q-34.998 0 -65.4961 10.999t-50.4971 31.998
q-16.999 17.999 -26.498 41.9971q-9.5 23.999 -9.5 55.9971zM211.987 433.974q0 24.998 19.499 42.9971q19.498 17.999 42.4971 17.999q17.999 0 30.998 -11.499q12.999 -11.5 12.999 -30.498q0 -25.999 -18.499 -42.998t-43.4971 -16.999q-17.999 0 -30.998 11
q-12.999 10.999 -12.999 29.998z" />
    <glyph glyph-name="asterisk" unicode="*" horiz-adv-x="307" 
d="M342 602q0 -8 -3.5 -11t-12.5 -5l-91 -13l56 -71q7 -10 -8 -20l-32 -21q-5 -4 -10 -3t-7 9l-26 91l-56 -92q-9 -15 -18 -7l-27 25q-5 5 -4 8.5t9 10.5l75 70l-90 11q-8 1 -8.5 5.5t1.5 9.5l18 39q7 14 17 8l78 -46v96q0 8 2.5 12.5t11.5 4.5h35q9 0 11.5 -3.5t0.5 -8.5
l-35 -101l93 46q5 4 9.5 2t5.5 -10l5 -36v0z" />
    <glyph glyph-name="period" unicode="." horiz-adv-x="211" 
d="M124 50q0 -25 -19.5 -43t-42.5 -18q-18 0 -31 11.5t-13 30.5q0 26 18.5 43t43.5 17q18 0 31 -11t13 -30z" />
    <glyph glyph-name="comma" unicode="," horiz-adv-x="211" 
d="M117 40q0 -24 -8.5 -46.5t-22.5 -42.5t-32 -37.5t-37 -31.5q-8 -6 -12.5 -5t-8.5 6l-6 9q-2 4 -1.5 7t6.5 8q20 17 34 35.5t14 35.5q0 9 -3.5 16.5t-7 14t-7 14t-3.5 16.5q0 23 15 37.5t35 14.5t32.5 -14.5t12.5 -36.5z" />
    <glyph glyph-name="colon" unicode=":" horiz-adv-x="211" 
d="M124 50q0 -25 -19.5 -43t-42.5 -18q-18 0 -31 11.5t-13 30.5q0 26 18.5 43t43.5 17q18 0 31 -11t13 -30zM197 454q0 -25 -19.5 -43t-42.5 -18q-18 0 -31 11.5t-13 30.5q0 26 18.5 43t43.5 17q18 0 31 -11t13 -30z" />
    <glyph glyph-name="semicolon" unicode=";" horiz-adv-x="211" 
d="M194 454q0 -25 -19.5 -43t-42.5 -18q-18 0 -31 11.5t-13 30.5q0 26 18.5 43t43.5 17q18 0 31 -11t13 -30zM117 40q0 -24 -8.5 -46.5t-22.5 -42.5t-32 -37.5t-37 -31.5q-8 -6 -12.5 -5t-8.5 6l-6 9q-2 4 -1.5 7t6.5 8q20 17 34 35.5t14 35.5q0 9 -3.5 16.5t-7 14t-7 14
t-3.5 16.5q0 23 15 37.5t35 14.5t32.5 -14.5t12.5 -36.5z" />
    <glyph glyph-name="ellipsis" unicode="&#x2026;" horiz-adv-x="603" 
d="M124 50q0 -25 -19.5 -43t-42.5 -18q-18 0 -31 11.5t-13 30.5q0 26 18.5 43t43.5 17q18 0 31 -11t13 -30zM320 50q0 -25 -19.5 -43t-42.5 -18q-18 0 -31 11.5t-13 30.5q0 26 18.5 43t43.5 17q18 0 31 -11t13 -30zM516 50q0 -25 -19.5 -43t-42.5 -18q-18 0 -31 11.5
t-13 30.5q0 26 18.5 43t43.5 17q18 0 31 -11t13 -30z" />
    <glyph glyph-name="periodcentered" unicode="&#xb7;" horiz-adv-x="211" 
d="M167 301q0 -25 -19.5 -43t-42.5 -18q-18 0 -31 11.5t-13 30.5q0 26 18.5 43t43.5 17q18 0 31 -11t13 -30z" />
    <glyph glyph-name="uni22C5" unicode="&#x22c5;" horiz-adv-x="211" 
d="M167 301q0 -25 -19.5 -43t-42.5 -18q-18 0 -31 11.5t-13 30.5q0 26 18.5 43t43.5 17q18 0 31 -11t13 -30z" />
    <glyph glyph-name="bullet" unicode="&#x2022;" horiz-adv-x="372" 
d="M175 168q-52 0 -85.5 32t-33.5 86q0 33 14 62.5t37.5 52t54 36t62.5 13.5q52 0 85.5 -32t33.5 -86q0 -33 -14 -62.5t-37.5 -52t-54 -36t-62.5 -13.5z" />
    <glyph glyph-name="slash" unicode="/" horiz-adv-x="279" 
d="M59 4q-4 -9 -8 -12t-12 -3h-45q-17 0 -11 16l280 681q4 9 8 12t12 3h45q17 0 11 -16z" />
    <glyph glyph-name="parenleft" unicode="(" horiz-adv-x="280" 
d="M320 702q10 -8 3 -19q-40 -57 -73.5 -119t-58 -128t-38 -135t-13.5 -138q0 -72 11.5 -136t33.5 -118q2 -5 0.5 -10.5t-8.5 -8.5l-31 -14q-17 -8 -23 5q-29 67 -45 137t-16 144q0 73 15.5 146t43 143t66 135.5t85.5 124.5q8 11 14 11.5t13 -4.5z" />
    <glyph glyph-name="brokenbar" unicode="&#xa6;" horiz-adv-x="223" 
d="M190 461q-2 -8 -5 -12t-13 -4h-42q-10 0 -12.5 5t-0.5 13l41 234q2 8 5 12t13 4h42q10 0 12.5 -5t0.5 -13zM107 -4q-2 -8 -5 -12t-13 -4h-42q-10 0 -12.5 5t-0.5 13l41 234q2 8 5 12t13 4h42q10 0 12.5 -5t0.5 -13z" />
    <glyph glyph-name="parenright" unicode=")" horiz-adv-x="280" 
d="M-15 -106q-10 8 -3 19q40 57 73.5 119t58 128t38 135t13.5 138q0 72 -11.5 136t-33.5 118q-2 5 -0.5 10.5t8.5 8.5l31 14q17 8 23 -5q29 -67 45 -137t16 -144q0 -73 -15.5 -146t-43 -143t-66.5 -136t-85 -124q-8 -11 -14 -11.5t-13 4.5z" />
    <glyph glyph-name="bracketleft" unicode="[" horiz-adv-x="277" 
d="M229 640l-129 -721h81q15 0 12 -14l-6 -36q-2 -8 -4.5 -10.5t-12.5 -2.5h-143q-11 0 -14 4.5t-1 13.5l145 810q2 13 7 16t16 3h142q15 0 12 -14l-7 -36q-2 -8 -4.5 -10.5t-12.5 -2.5h-81z" />
    <glyph glyph-name="backslash" unicode="\" horiz-adv-x="281" 
d="M224 6q1 -16 -15 -16h-40q-15 0 -16 13l-63 682q-2 17 15 17h40q9 0 12 -3.5t4 -11.5z" />
    <glyph glyph-name="bracketright" unicode="]" horiz-adv-x="277" 
d="M59 -81l129 721h-81q-15 0 -12 14l6 36q2 8 4.5 10.5t12.5 2.5h143q11 0 14 -4.5t1 -13.5l-145 -810q-2 -13 -7 -16t-16 -3h-142q-15 0 -12 14l7 36q2 8 4.5 10.5t12.5 2.5h81z" />
    <glyph glyph-name="braceleft" unicode="{" horiz-adv-x="286" 
d="M161 -133q-57 0 -81 26q-25 25 -25 72q0 9 2 23t4 27l23 130q3 19 5 33.5t2 26.5q0 21 -7 33t-27 20q-7 3 -9.5 6.5t-0.5 12.5l5 29q2 7 4 9t10 4q27 5 43 28.5t24 70.5l27 147q14 77 48 110.5t98 33.5h43q15 0 12 -13l-5 -26q-2 -7 -4.5 -9.5t-10.5 -2.5h-20
q-20 0 -34 -5.5t-23.5 -19t-16 -35t-12.5 -54.5l-20 -112q-6 -36 -15 -60.5t-21 -40.5t-28 -25.5t-37 -15.5v-2q32 -8 43.5 -31.5t11.5 -55.5q0 -14 -2 -31t-5 -34l-22 -120q-2 -14 -3.5 -25.5t-1.5 -19.5q0 -29 13 -41t39 -12h22q15 0 12 -13l-5 -26q-2 -7 -4.5 -9.5
t-10.5 -2.5h-40z" />
    <glyph glyph-name="bar" unicode="|" horiz-adv-x="224" 
d="M107 -4q-2 -8 -5 -12t-13 -4h-42q-10 0 -12.5 5t-0.5 13l124 699q2 8 5 12t13 4h42q10 0 12.5 -5t0.5 -13z" />
    <glyph glyph-name="braceright" unicode="}" horiz-adv-x="286" 
d="M137 709q57 0 81 -26q25 -25 25 -72q0 -9 -2 -23t-4 -27l-23 -130q-3 -19 -5 -33.5t-2 -26.5q0 -21 7 -33t27 -20q7 -3 9.5 -6.5t0.5 -12.5l-5 -29q-2 -7 -4 -9t-10 -4q-27 -5 -43 -28.5t-24 -70.5l-27 -147q-14 -77 -48 -110.5t-98 -33.5h-43q-15 0 -12 13l5 26
q2 7 4.5 9.5t10.5 2.5h20q20 0 34 5.5t23.5 19t16 35t12.5 54.5l20 112q6 36 15 60.5t21 40.5t28 25.5t37 15.5v2q-32 8 -43.5 31.5t-11.5 55.5q0 14 2 31t5 34l22 120q2 14 3.5 25.5t1.5 19.5q0 29 -13 41t-39 12h-22q-15 0 -12 13l5 26q2 7 4.5 9.5t10.5 2.5h40z" />
    <glyph glyph-name="hyphen" unicode="-" horiz-adv-x="259" 
d="M202 301q19 0 16 -18l-7 -37q-2 -11 -6 -15t-15 -4h-127q-20 0 -17 18l7 37q2 11 6.5 15t15.5 4h127z" />
    <glyph glyph-name="uni00AD" unicode="&#xad;" horiz-adv-x="259" 
d="M202 301q19 0 16 -18l-7 -37q-2 -11 -6 -15t-15 -4h-127q-20 0 -17 18l7 37q2 11 6.5 15t15.5 4h127z" />
    <glyph glyph-name="endash" unicode="&#x2013;" horiz-adv-x="515" 
d="M502 240q-3 -18 -20 -18h-466q-16 0 -13 17l8 49q3 16 20 16h466q17 0 14 -17z" />
    <glyph glyph-name="emdash" unicode="&#x2014;" horiz-adv-x="1015" 
d="M1001 240q-3 -18 -20 -18h-968q-13 0 -11 18l8 47q2 8 5.5 12.5t12.5 4.5h968q17 0 14 -17z" />
    <glyph glyph-name="underscore" unicode="_" horiz-adv-x="395" 
d="M323 -84q15 0 12 -13l-4 -21q-2 -7 -4.5 -9.5t-10.5 -2.5h-369q-15 0 -12 13l4 21q2 7 4.5 9.5t10.5 2.5h369z" />
    <glyph glyph-name="dagger" unicode="&#x2020;" horiz-adv-x="397" 
d="M255 385l-67 -372q-2 -8 -5 -10.5t-11 -2.5h-42q-15 0 -12 16l63 369l-115 -3q-9 0 -11.5 4t-1.5 9l7 43q2 11 13 11l118 -2l40 229q3 14 18 14h48q15 0 13 -14l-43 -229l116 2q9 0 11.5 -3.5t1.5 -10.5l-7 -42q-2 -11 -13 -11z" />
    <glyph glyph-name="daggerdbl" unicode="&#x2021;" horiz-adv-x="397" 
d="M234 251l-44 -238q-3 -13 -17 -13h-41q-14 0 -11 13l40 238l-108 -3q-10 0 -12.5 3.5t-1.5 9.5l8 43q1 11 14 11l111 -2l21 130l-113 -3q-10 0 -12 3.5t-1 10.5l7 42q2 11 13 11l118 -2l29 171q3 14 17 14h49q15 0 13 -14l-33 -171l115 2q10 0 12 -4t1 -10l-7 -42
q-2 -11 -13 -11l-119 3l-24 -130l110 2q10 0 12.5 -4t1.5 -10l-8 -42q-2 -6 -4 -8.5t-9 -2.5z" />
    <glyph glyph-name="section" unicode="&#xa7;" horiz-adv-x="382" 
d="M372 631q-2 -6 -6.5 -8t-13.5 2q-17 7 -35 11t-37 4q-37 0 -60.5 -23t-23.5 -55q0 -19 10.5 -35.5t26.5 -31.5t34.5 -30.5t34.5 -34t26.5 -40t10.5 -49.5q0 -38 -18 -70t-50 -52q14 -17 23 -37t9 -46q0 -30 -11.5 -56.5t-32.5 -47t-51 -32t-67 -11.5q-31 0 -62.5 7.5
t-54.5 18.5q-8 4 -9 7.5t2 11.5l11 27q4 9 8 12t14 -2q20 -8 43 -14t46 -6q35 0 59.5 19.5t24.5 56.5q0 30 -22.5 52t-49 45t-49 52t-22.5 72q0 37 18 68.5t50 51.5q-14 17 -23 37.5t-9 47.5q0 30 12.5 57t34.5 47t52.5 32t65.5 12q26 0 49.5 -5.5t42.5 -14.5
q8 -4 10.5 -7.5t-1.5 -14.5zM160 357q0 -26 19 -47t43 -43q17 10 27 26t10 39q0 27 -19 47.5t-44 41.5q-17 -10 -26.5 -27t-9.5 -37z" />
    <glyph glyph-name="paragraph" unicode="&#xb6;" horiz-adv-x="445" 
d="M431 690q15 0 12 -14l-143 -802q-2 -8 -5.5 -11.5t-11.5 -3.5h-34q-16 0 -13 14l135 759h-58l-136 -758q-2 -8 -5 -11.5t-12 -3.5h-33q-6 0 -11 2.5t-3 11.5l88 496q-61 8 -90.5 42.5t-29.5 88.5q0 46 16.5 81.5t45 59.5t68 36.5t86.5 12.5h134z" />
    <glyph glyph-name="registered" unicode="&#xae;" horiz-adv-x="782" 
d="M773 407q0 -83 -35.5 -158.5t-95 -133.5t-136 -92t-158.5 -34q-64 0 -119 21.5t-95 60t-63 92.5t-23 119q0 84 35.5 159.5t94.5 133t135.5 91.5t159.5 34q64 0 118.5 -21.5t95 -60.5t63.5 -93t23 -118zM710 398q0 54 -18.5 98.5t-51.5 77t-78.5 50.5t-98.5 18
q-69 0 -133 -29t-112.5 -77.5t-77.5 -112t-29 -132.5q0 -54 18.5 -98.5t51.5 -77t78.5 -50.5t98.5 -18q69 0 133 29t112.5 77.5t77.5 112t29 132.5zM551 444q0 -6 -0.5 -12t-1.5 -12q-7 -39 -32 -66.5t-63 -41.5l62 -148q2 -5 0.5 -8.5t-7.5 -3.5h-36q-5 0 -8 1.5t-5 6.5
l-56 143h-52l-25 -141q-2 -10 -10 -10h-33q-9 0 -8 10l63 357q1 12 14 12h59q23 0 47.5 -3t45 -12t33.5 -26.5t13 -45.5zM498 436q0 32 -20.5 44t-56.5 12h-36l-26 -150h38q5 0 10.5 0.5t10.5 1.5q32 5 53 25t26 53q1 5 1 14z" />
    <glyph glyph-name="copyright" unicode="&#xa9;" horiz-adv-x="782" 
d="M773 407q0 -83 -35.5 -158.5t-95 -133.5t-136 -92t-158.5 -34q-64 0 -119 21.5t-95 60t-63 92.5t-23 119q0 84 35.5 159.5t94 133t135 91.5t159.5 34q64 0 119 -21.5t95.5 -60.5t63.5 -93t23 -118zM710 398q0 54 -18.5 98.5t-51.5 77t-78.5 50.5t-98.5 18q-69 0 -133 -29
t-112.5 -77.5t-77.5 -112t-29 -132.5q0 -54 18.5 -98.5t51.5 -77t78.5 -50.5t98.5 -18q69 0 133 29t112.5 77.5t77.5 112t29 132.5zM545 478q-2 -4 -6 -5.5t-8 0.5q-33 21 -73 21q-37 0 -65 -18t-47 -46t-28.5 -62.5t-9.5 -66.5q0 -23 5.5 -43.5t17 -35.5t29.5 -24t43 -9
q20 0 42 5.5t42 14.5q9 4 11 -4l5 -22q2 -6 -0.5 -9t-8.5 -6q-53 -22 -106 -22q-35 0 -60.5 11t-42 30.5t-24.5 46t-8 57.5q0 44 14 88t40.5 79.5t65 57.5t87.5 22q55 0 94 -24q7 -5 3 -13z" />
    <glyph glyph-name="trademark" unicode="&#x2122;" horiz-adv-x="561" 
d="M533 396q-1 -11 -12 -11h-28q-13 0 -11 12l17 101q5 33 10.5 55t12.5 55q-10 -25 -21.5 -54.5t-23.5 -52.5l-55 -109q-4 -7 -12 -7h-18q-9 0 -10 8l-20 123q-4 22 -6 46t-4 44q-2 -20 -4.5 -43t-7.5 -44l-26 -124q-3 -10 -12 -10h-24q-13 0 -10 12l60 282q2 10 14 10h21
q11 0 12 -7l21 -122q5 -29 8 -63.5t5 -65.5q12 29 26.5 62t35.5 75l55 110q5 11 16 11h20q12 0 11 -11zM291 689q9 0 7 -8l-5 -20q-2 -5 -4 -7t-8 -2h-67l-46 -258q-1 -5 -3 -7t-9 -2h-32q-12 0 -10 11l46 256h-67q-9 0 -8 8l4 21q1 8 9 8h193z" />
    <glyph glyph-name="quotedblleft" unicode="&#x201c;" horiz-adv-x="318" 
d="M229 535q0 24 8.5 46t22.5 42.5t32 38t37 31.5q8 6 12.5 5t8.5 -6l6 -9q2 -4 1.5 -7t-6.5 -8q-20 -17 -34 -35.5t-14 -35.5q0 -9 3.5 -16.5t7 -14t7 -14t3.5 -16.5q0 -23 -15 -37.5t-35 -14.5t-32.5 14.5t-12.5 36.5zM99 535q0 24 8.5 46t22.5 42.5t32 38t37 31.5
q8 6 12.5 5t8.5 -6l6 -9q2 -4 1.5 -7t-6.5 -8q-20 -17 -34 -35.5t-14 -35.5q0 -9 3.5 -16.5t7 -14t7 -14t3.5 -16.5q0 -23 -15 -37.5t-35 -14.5t-32.5 14.5t-12.5 36.5z" />
    <glyph glyph-name="quotedblright" unicode="&#x201d;" horiz-adv-x="318" 
d="M208 650q0 -24 -8.5 -46.5t-22.5 -42.5t-32 -37.5t-37 -31.5q-8 -6 -12.5 -5t-8.5 6l-6 9q-5 8 5 15q20 17 34 35.5t14 35.5q0 9 -3.5 16.5t-7 14t-7 14t-3.5 16.5q0 23 15 37.5t35 14.5t32.5 -14.5t12.5 -36.5zM338 650q0 -24 -8.5 -46.5t-22.5 -42.5t-32 -37.5
t-37 -31.5q-8 -6 -12.5 -5t-8.5 6l-6 9q-5 8 5 15q20 17 34 35.5t14 35.5q0 9 -3.5 16.5t-7 14t-7 14t-3.5 16.5q0 23 15 37.5t35 14.5t32.5 -14.5t12.5 -36.5z" />
    <glyph glyph-name="quoteleft" unicode="&#x2018;" horiz-adv-x="188" 
d="M99 535q0 24 8.5 46t22.5 42.5t32 38t37 31.5q8 6 12.5 5t8.5 -6l6 -9q2 -4 1.5 -7t-6.5 -8q-20 -17 -34 -35.5t-14 -35.5q0 -9 3.5 -16.5t7 -14t7 -14t3.5 -16.5q0 -23 -15 -37.5t-35 -14.5t-32.5 14.5t-12.5 36.5z" />
    <glyph glyph-name="quoteright" unicode="&#x2019;" horiz-adv-x="188" 
d="M208 650q0 -24 -8.5 -46.5t-22.5 -42.5t-32 -37.5t-37 -31.5q-8 -6 -12.5 -5t-8.5 6l-6 9q-5 8 5 15q20 17 34 35.5t14 35.5q0 9 -3.5 16.5t-7 14t-7 14t-3.5 16.5q0 23 15 37.5t35 14.5t32.5 -14.5t12.5 -36.5z" />
    <glyph glyph-name="guillemotleft" unicode="&#xab;" horiz-adv-x="374" 
d="M116 229l42 -135q2 -8 1.5 -13.5t-10.5 -9.5l-23 -9q-8 -3 -13.5 -2.5t-9.5 8.5l-60 143q-4 9 -2.5 15.5t7.5 14.5l114 147q7 8 11.5 9.5t10.5 -3.5l20 -15q5 -5 5 -8.5t-5 -10.5zM258 229l42 -135q2 -8 1.5 -13.5t-10.5 -9.5l-23 -9q-8 -3 -13.5 -2.5t-9.5 8.5l-60 143
q-4 9 -2.5 15.5t7.5 14.5l114 147q7 8 11.5 9.5t10.5 -3.5l20 -15q5 -5 5 -8.5t-5 -10.5z" />
    <glyph glyph-name="guillemotright" unicode="&#xbb;" horiz-adv-x="374" 
d="M259 228l-42 135q-2 8 -1.5 13.5t10.5 9.5l23 9q8 3 13.5 2.5t9.5 -8.5l60 -143q4 -9 2.5 -15.5t-7.5 -14.5l-114 -147q-7 -8 -11.5 -9.5t-10.5 3.5l-20 15q-5 5 -5 8.5t5 10.5zM117 228l-42 135q-2 8 -1.5 13.5t10.5 9.5l23 9q8 3 13.5 2.5t9.5 -8.5l60 -143
q4 -9 2.5 -15.5t-7.5 -14.5l-114 -147q-7 -8 -11.5 -9.5t-10.5 3.5l-20 15q-5 5 -5 8.5t5 10.5z" />
    <glyph glyph-name="guilsinglleft" unicode="&#x2039;" horiz-adv-x="232" 
d="M116 229l42 -135q2 -8 1.5 -13.5t-10.5 -9.5l-23 -9q-8 -3 -13.5 -2.5t-9.5 8.5l-60 143q-4 9 -2.5 15.5t7.5 14.5l114 147q7 8 11.5 9.5t10.5 -3.5l20 -15q5 -5 5 -8.5t-5 -10.5z" />
    <glyph glyph-name="guilsinglright" unicode="&#x203a;" horiz-adv-x="232" 
d="M117 228l-42 135q-2 8 -1.5 13.5t10.5 9.5l23 9q8 3 13.5 2.5t9.5 -8.5l60 -143q4 -9 2.5 -15.5t-7.5 -14.5l-114 -147q-7 -8 -11.5 -9.5t-10.5 3.5l-20 15q-5 5 -5 8.5t5 10.5z" />
    <glyph glyph-name="quotesinglbase" unicode="&#x201a;" horiz-adv-x="188" 
d="M108 10q0 -24 -8.5 -46.5t-22.5 -42.5t-32 -37.5t-37 -31.5q-8 -6 -12.5 -5t-8.5 6l-6 9q-2 4 -1.5 7t6.5 8q20 17 34 35.5t14 35.5q0 9 -3.5 16.5t-7 14t-7 14t-3.5 16.5q0 23 15 37.5t35 14.5t32.5 -14.5t12.5 -36.5z" />
    <glyph glyph-name="quotedblbase" unicode="&#x201e;" horiz-adv-x="318" 
d="M108 10q0 -24 -8.5 -46.5t-22.5 -42.5t-32 -37.5t-37 -31.5q-8 -6 -12.5 -5t-8.5 6l-6 9q-2 4 -1.5 7t6.5 8q20 17 34 35.5t14 35.5q0 9 -3.5 16.5t-7 14t-7 14t-3.5 16.5q0 23 15 37.5t35 14.5t32.5 -14.5t12.5 -36.5zM238 10q0 -24 -8.5 -46.5t-22.5 -42.5t-32 -37.5
t-37 -31.5q-8 -6 -12.5 -5t-8.5 6l-6 9q-2 4 -1.5 7t6.5 8q20 17 34 35.5t14 35.5q0 9 -3.5 16.5t-7 14t-7 14t-3.5 16.5q0 23 15 37.5t35 14.5t32.5 -14.5t12.5 -36.5z" />
    <glyph glyph-name="ordfeminine" unicode="&#xaa;" horiz-adv-x="315" 
d="M212 367q-15 -14 -35.5 -22.5t-48.5 -8.5q-33 0 -55.5 19t-22.5 52q0 52 42.5 75.5t123.5 23.5h18l1 7q4 27 -4.5 39t-40.5 12q-18 0 -36.5 -4t-33.5 -9q-9 -3 -12.5 -2t-5.5 7l-4 19q-2 10 0.5 14t10.5 7q20 8 45.5 13.5t49.5 5.5q61 0 83 -28q15 -20 15 -49
q0 -8 -1 -17t-3 -20l-26 -149q-2 -6 -5 -9t-11 -3h-33q-14 0 -13 13zM227 467q-54 2 -82 -10.5t-28 -42.5q0 -12 9.5 -20.5t27.5 -8.5q17 0 34 7t29 18z" />
    <glyph glyph-name="ordmasculine" unicode="&#xba;" horiz-adv-x="339" 
d="M331 505q0 -35 -11.5 -65.5t-32 -53.5t-49.5 -36.5t-64 -13.5q-57 0 -87 30.5t-30 79.5q0 34 11.5 64.5t32.5 54t50 37t64 13.5q57 0 86.5 -30.5t29.5 -79.5zM264 502q0 30 -13.5 46.5t-40.5 16.5q-19 0 -34.5 -9.5t-27 -25.5t-18 -37t-6.5 -44q-1 -30 13.5 -46.5
t41.5 -16.5q19 0 34.5 9.5t26.5 25.5t17.5 37t6.5 44z" />
    <glyph glyph-name="zero" unicode="0" 
d="M209 60q26 0 48.5 20.5t41.5 54.5t34.5 78t26 92t16 96t5.5 89q0 64 -16.5 102t-51.5 38q-26 0 -48.5 -20.5t-41.5 -54.5t-34.5 -78t-26 -92t-16 -96t-5.5 -89q0 -64 16.5 -102t51.5 -38zM200 -11q-72 0 -109 55.5t-37 151.5q0 55 8.5 117t26 122t43 113t59.5 90
q27 29 60 46t71 17q72 0 109 -55.5t37 -151.5q0 -55 -8.5 -117t-26 -122t-43 -113t-59.5 -90q-27 -29 -60 -46t-71 -17z" />
    <glyph glyph-name="one" unicode="1" 
d="M268 18q-3 -18 -21 -18h-48q-11 0 -14 5t-1 13l102 573l-127 -84q-15 -10 -24 5l-15 25q-8 14 7 25l165 110q16 11 28.5 14.5t34.5 3.5h14q19 0 16 -17z" />
    <glyph glyph-name="two" unicode="2" 
d="M39 0q-15 0 -15 14q0 20 9 38t31 42l144 161q46 51 78 90t52 71.5t29 61t9 59.5q0 48 -25.5 71.5t-66.5 23.5q-26 0 -54 -8t-54 -21q-17 -8 -24 6l-13 28q-3 7 -2.5 12t10.5 11q31 19 70.5 30t76.5 11q45 0 76.5 -12t53.5 -35q40 -43 40 -113q0 -35 -11 -68t-35.5 -71.5
t-64.5 -86t-98 -110.5l-128 -138h232q20 0 17 -17l-6 -34q-2 -9 -6 -12.5t-15 -3.5h-310z" />
    <glyph glyph-name="three" unicode="3" 
d="M196 404q33 0 62 9.5t50.5 27.5t34.5 43.5t13 57.5q0 44 -23.5 67t-67.5 23q-25 0 -51 -6.5t-50 -17.5q-16 -6 -21 6l-12 29q-6 16 7 23q25 14 63 24.5t74 10.5q45 0 78 -13t54 -36q34 -38 34 -99q0 -60 -37.5 -106.5t-94.5 -68.5v-1q48 -17 74 -52t26 -89
q0 -47 -17.5 -91.5t-50 -79t-78 -55.5t-101.5 -21q-19 0 -38.5 3t-37.5 8.5t-33 12.5t-25 15q-11 8 -5 21l15 28q5 10 10 11.5t15 -3.5q23 -13 48.5 -20t50.5 -7q39 0 68.5 16t50 41.5t30.5 56.5t10 61q0 59 -34 82.5t-95 23.5h-11q-10 0 -12.5 4t-0.5 13l6 35q2 8 5 10.5
t12 2.5h5z" />
    <glyph glyph-name="four" unicode="4" 
d="M343 16q-3 -16 -21 -16h-47q-19 0 -16 17l27 146h-224q-17 0 -16 16l1 13q1 23 14 45l231 435q6 11 10.5 14t15.5 3h45q11 0 13 -6t-2 -13l-234 -440h157l26 145q2 9 5.5 13t13.5 4h50q8 0 12.5 -3t2.5 -13l-26 -146h78q20 0 17 -17l-6 -34q-2 -9 -6 -12.5t-15 -3.5h-80z
" />
    <glyph glyph-name="five" unicode="5" 
d="M166 58q37 0 67 17t50.5 44t31.5 61.5t11 69.5q0 62 -38.5 84.5t-104.5 22.5h-43q-22 0 -19 20l52 294q2 11 7 15t18 4h250q19 0 16 -16l-5 -33q-2 -11 -6 -14.5t-18 -3.5h-192l-35 -202q98 -1 151.5 -42.5t53.5 -122.5q0 -48 -16.5 -96t-48 -86t-77.5 -61.5t-105 -23.5
q-38 0 -76 11.5t-58 27.5q-11 8 -5 21l15 28q5 8 10 10.5t15 -2.5q22 -12 48.5 -19.5t50.5 -7.5z" />
    <glyph glyph-name="six" unicode="6" 
d="M377 634q-34 0 -65.5 -18t-58.5 -50t-48.5 -77t-35.5 -100q28 20 60.5 31.5t66.5 11.5q32 0 57.5 -12t43.5 -33.5t27.5 -51t9.5 -63.5q0 -56 -16.5 -107t-45.5 -90t-69 -62t-87 -23q-40 0 -69.5 15t-49 42t-29 63.5t-9.5 79.5q0 107 25 200t68 162t99 109t119 40
q43 0 83 -13q12 -4 9 -19l-8 -31q-2 -8 -6 -10.5t-15 -0.5q-14 3 -27.5 5t-28.5 2zM266 365q-29 0 -57.5 -13t-53.5 -33q-9 -59 -9 -122q0 -138 77 -138q27 0 50 18t39.5 47t26 66t9.5 76q0 45 -19.5 72t-62.5 27z" />
    <glyph glyph-name="seven" unicode="7" 
d="M75 0q-11 0 -13.5 6.5t2.5 14.5l326 602h-243q-20 0 -17 17l6 34q2 9 6 12.5t15 3.5h319q16 0 14 -14l-2 -12q-2 -14 -8 -31t-21 -45l-307 -571q-5 -11 -10 -14t-19 -3h-48z" />
    <glyph glyph-name="eight" unicode="8" 
d="M441 208q0 -45 -17 -84.5t-47.5 -69.5t-71.5 -47.5t-89 -17.5q-38 0 -69 12t-53 33t-34 50t-12 63q0 73 45 130.5t120 95.5q-33 27 -53.5 63.5t-20.5 80.5q0 38 14 71.5t39 58.5t59.5 39.5t75.5 14.5q64 0 105.5 -37t41.5 -101q0 -57 -36.5 -104t-97.5 -84
q42 -29 71.5 -70t29.5 -97zM137 157q0 -43 23.5 -72t66.5 -29q25 0 48 11.5t40 31t27 46t10 56.5q0 45 -24.5 78.5t-59.5 59.5q-60 -29 -95.5 -75.5t-35.5 -106.5zM388 556q0 42 -21 60t-48 18q-21 0 -39 -9t-30.5 -24t-20 -35.5t-7.5 -42.5q0 -36 18 -64t48 -51
q44 27 72 63.5t28 84.5z" />
    <glyph glyph-name="nine" unicode="9" 
d="M146 57q34 0 65.5 17.5t58.5 50t48.5 77.5t35.5 100q-28 -20 -60.5 -31.5t-66.5 -11.5q-32 0 -57.5 12t-43.5 33.5t-27.5 50.5t-9.5 64q0 56 16.5 107t45.5 90t69 62t87 23q40 0 69.5 -15t49 -42t29 -63.5t9.5 -79.5q0 -107 -25 -200t-68 -162t-99 -109t-119 -40
q-43 0 -83 13q-12 4 -9 19l8 31q2 8 6 10.5t15 0.5q14 -3 27.5 -5t28.5 -2zM257 326q29 0 57.5 13t53.5 33q9 58 9 122q0 138 -77 138q-27 0 -50 -18t-39.5 -47t-26 -66t-9.5 -76q0 -45 19.5 -72t62.5 -27z" />
    <glyph glyph-name="dollar" unicode="$" 
d="M353 700q35 -2 62 -11.5t46 -20.5q11 -6 5 -20l-15 -33q-6 -13 -22 -6q-23 10 -43.5 15.5t-44.5 6.5l-45 -250l38.5 -38.5t35 -41.5t25 -47.5t9.5 -55.5q0 -38 -13 -72t-36.5 -61t-56 -46t-71.5 -26l-11 -66q-2 -8 -5 -12t-13 -4h-15q-10 0 -12.5 5t-0.5 13l10 60
q-41 1 -77 11t-61 26q-6 4 -7.5 8.5t2.5 12.5l15 32q4 8 9 11t14 -2q23 -14 54 -21.5t64 -7.5l46 261q-20 18 -39.5 37.5t-35 41.5t-25.5 48.5t-10 58.5q0 35 12 67.5t35 59t56 44t74 22.5l11 59q2 8 5 12t13 4h15q10 0 12.5 -5t0.5 -13zM214 515q0 -27 12 -49.5t31 -44.5
l36 204q-38 -12 -58.5 -42t-20.5 -68zM319 190q0 26 -11.5 48.5t-29.5 42.5l-37 -210q35 16 56.5 48t21.5 71z" />
    <glyph glyph-name="cent" unicode="&#xa2;" 
d="M343 494q41 -3 79 -22q8 -5 9.5 -9.5t-2.5 -12.5l-14 -29q-6 -12 -20 -5q-32 15 -63 16l-67 -379q16 2 34.5 7t34.5 13q8 4 12 2t6 -8l10 -27q2 -7 1 -12.5t-12 -10.5q-22 -11 -46 -18t-51 -9l-11 -63q-2 -8 -5 -12t-12 -4h-14q-10 0 -12 5t0 13l11 61q-50 6 -83 37
q-48 48 -48 141q0 36 7 73t19.5 71.5t31 65t42.5 54.5q25 25 54.5 40.5t65.5 20.5l11 64q2 8 4.5 12t12.5 4h14q10 0 12 -4t0 -14zM191 80q13 -16 32 -23l65 368q-29 -11 -52 -35.5t-38.5 -58t-24 -75t-8.5 -84.5q0 -61 26 -92z" />
    <glyph glyph-name="Euro" unicode="&#x20ac;" 
d="M190 265v-19q0 -42 6.5 -76t20.5 -58t36.5 -37t54.5 -13q24 0 47.5 6.5t41.5 15.5q16 8 22 -6l12 -28q2 -6 1.5 -11.5t-11.5 -12.5q-29 -18 -63.5 -27t-67.5 -9q-49 0 -85 18t-60 50t-35.5 77.5t-11.5 100.5v29h-50q-5 0 -9 2.5t-2 10.5l3 18q2 8 5 10t10 2h47
q2 12 3.5 24t3.5 24h-46q-5 0 -9 2.5t-2 10.5l3 18q2 8 5 10t10 2h49q14 57 39 111.5t62 96.5t86 68t112 26q33 0 60.5 -9t50.5 -23q9 -6 10 -11t-3 -13l-16 -29q-7 -13 -22 -6q-19 9 -39.5 14t-45.5 5q-40 0 -72.5 -19t-58 -50.5t-43.5 -73.5t-30 -87h121q5 0 9 -2.5
t2 -10.5l-3 -18q-2 -8 -5 -10t-10 -2h-123q-2 -12 -3.5 -24t-3.5 -24h122q5 0 9 -2.5t2 -10.5l-3 -18q-2 -8 -5 -10t-10 -2h-118z" />
    <glyph glyph-name="florin" unicode="&#x192;" 
d="M180 35q-19 -60 -39 -102t-44 -68.5t-53 -38t-66 -11.5q-21 0 -39 4t-32 11q-11 6 -7 18l11 30q3 8 6.5 9.5t10.5 -0.5q11 -4 22 -6t23 -2q18 0 34.5 6.5t31 21.5t27.5 40.5t25 64.5l102 323h-59q-5 0 -8 2t-1 8l6 22q2 5 4 7t9 2h63l33 105q19 60 39 102t43.5 68.5
t52.5 38t66 11.5q21 0 39 -4t32 -11q11 -6 7 -18l-11 -30q-3 -8 -6.5 -9.5t-10.5 0.5q-11 4 -22 6t-23 2q-18 0 -34.5 -6.5t-31 -21.5t-27.5 -40.5t-25 -64.5l-40 -128h90q13 0 10 -12l-4 -18q-2 -6 -4.5 -8.5t-10.5 -2.5h-94z" />
    <glyph glyph-name="sterling" unicode="&#xa3;" 
d="M374 385q9 0 11 -3.5t1 -8.5l-6 -36q-3 -13 -16 -13h-122l-21 -120q-9 -50 -23 -80t-42 -55h230q11 0 13 -4t0 -12l-7 -37q-2 -11 -6 -13.5t-15 -2.5h-326q-14 0 -11 15l5 28q2 7 4 10t10 8q18 9 31.5 20t23 27.5t17 39.5t13.5 58l21 118h-42q-9 0 -11 3.5t-1 8.5l6 36
q3 13 16 13h43l19 103q19 100 67 156.5t135 56.5q28 0 51 -5.5t40 -13.5q5 -2 7 -6t-1 -12l-12 -34q-6 -13 -17 -9q-14 5 -31 8.5t-36 3.5q-50 0 -78.5 -36t-42.5 -113l-18 -99h121z" />
    <glyph glyph-name="yen" unicode="&#xa5;" 
d="M193 204l11 58h-80q-5 0 -9 2.5t-2 10.5l3 18q2 8 5 10t10 2h70l-87 369q-3 16 15 16h55q10 0 13 -3t5 -10l39 -174q6 -25 10.5 -49.5t8.5 -46t5.5 -39t1.5 -27.5q8 19 18.5 43t22 47.5t22.5 45.5t20 37l92 162q5 9 9.5 11.5t15.5 2.5h45q18 0 10 -15l-216 -370h72
q5 0 9 -2.5t2 -10.5l-3 -18q-2 -8 -5 -10t-10 -2h-82l-11 -58h82q5 0 9 -2.5t2 -10.5l-3 -18q-2 -8 -5 -10t-10 -2h-82l-25 -143q-3 -18 -21 -18h-50q-11 0 -14 5t-1 13l25 143h-79q-5 0 -9 2.5t-2 10.5l3 18q2 8 5 10t10 2h80z" />
    <glyph glyph-name="numbersign" unicode="#" 
d="M269 201h-94l-56 -187q-2 -8 -6 -11t-13 -3h-41q-15 0 -12 13l57 188h-78q-14 0 -10 13l10 33q2 8 5.5 9.5t11.5 1.5h78l47 157h-78q-14 0 -10 13l10 33q2 8 5.5 9.5t11.5 1.5h79l62 205q2 8 6 11t13 3h41q15 0 12 -13l-63 -206h94l62 205q2 8 6 11t13 3h41q15 0 12 -13
l-63 -206h76q14 0 10 -13l-10 -33q-2 -8 -5.5 -9.5t-11.5 -1.5h-76l-47 -157h75q14 0 10 -13l-10 -33q-2 -8 -5.5 -9.5t-11.5 -1.5h-76l-56 -187q-2 -8 -6 -11t-13 -3h-41q-15 0 -12 13zM193 258h93l47 157h-93z" />
    <glyph glyph-name="percent" unicode="%" horiz-adv-x="654" 
d="M158 5q-9 -15 -25 -15h-46q-17 0 -5 17l452 679q9 15 25 15h45q8 0 10 -4t-4 -12zM326 565q0 -41 -10.5 -81.5t-29.5 -73t-47 -53t-62 -20.5q-46 0 -68 35.5t-22 94.5q0 41 10.5 81.5t29.5 73t46.5 53t62.5 20.5q47 0 68.5 -36.5t21.5 -93.5zM260 569q0 73 -34 73
q-17 0 -31 -18t-23.5 -45t-14.5 -58.5t-5 -58.5q0 -35 8.5 -53.5t25.5 -18.5q18 0 31.5 17.5t23 44t14.5 58t5 59.5zM604 223q0 -41 -10.5 -81.5t-29.5 -73t-47 -53t-62 -20.5q-46 0 -68 35.5t-22 94.5q0 41 10.5 81.5t29.5 73t46.5 53t62.5 20.5q47 0 68.5 -36.5
t21.5 -93.5zM538 227q0 73 -34 73q-17 0 -31 -18t-23.5 -45t-14.5 -58.5t-5 -58.5q0 -35 8.5 -53.5t25.5 -18.5q18 0 31.5 17.5t23 44t14.5 58t5 59.5z" />
    <glyph glyph-name="perthousand" unicode="&#x2030;" horiz-adv-x="931" 
d="M163 5q-9 -15 -25 -15h-46q-17 0 -5 17l452 679q9 15 25 15h45q8 0 10 -4t-4 -12zM331 565q0 -41 -10.5 -81.5t-29.5 -73t-47 -53t-62 -20.5q-46 0 -68 35.5t-22 94.5q0 41 10.5 81.5t29.5 73t46.5 53t62.5 20.5q47 0 68.5 -36.5t21.5 -93.5zM265 569q0 73 -34 73
q-17 0 -31 -18t-23.5 -45t-14.5 -58.5t-5 -58.5q0 -35 8.5 -53.5t25.5 -18.5q18 0 31.5 17.5t23 44t14.5 58t5 59.5zM609 223q0 -41 -10.5 -81.5t-29.5 -73t-47 -53t-62 -20.5q-46 0 -68 35.5t-22 94.5q0 41 10.5 81.5t29.5 73t46.5 53t62.5 20.5q47 0 68.5 -36.5
t21.5 -93.5zM543 227q0 73 -34 73q-17 0 -31 -18t-23.5 -45t-14.5 -58.5t-5 -58.5q0 -35 8.5 -53.5t25.5 -18.5q18 0 31.5 17.5t23 44t14.5 58t5 59.5zM884 223q0 -41 -10.5 -81.5t-29.5 -73t-47 -53t-62 -20.5q-46 0 -68 35.5t-22 94.5q0 41 10.5 81.5t29.5 73t46.5 53
t62.5 20.5q47 0 68.5 -36.5t21.5 -93.5zM818 227q0 73 -34 73q-17 0 -31 -18t-23.5 -45t-14.5 -58.5t-5 -58.5q0 -35 8.5 -53.5t25.5 -18.5q18 0 31.5 17.5t23 44t14.5 58t5 59.5z" />
    <glyph glyph-name="plus" unicode="+" 
d="M270 174q-2 -11 -7 -15t-16 -4h-35q-11 0 -15 4t-2 15l23 131h-116q-19 0 -16 17l6 33q2 11 6.5 14.5t14.5 3.5h116l24 131q2 11 7 15t16 4h35q11 0 15 -4t2 -15l-23 -131h116q19 0 16 -17l-6 -33q-2 -11 -6.5 -14.5t-14.5 -3.5h-116z" />
    <glyph glyph-name="minus" unicode="&#x2212;" 
d="M421 373q19 0 16 -17l-6 -33q-2 -11 -6.5 -14.5t-14.5 -3.5h-308q-19 0 -16 17l6 33q2 11 6.5 14.5t14.5 3.5h308z" />
    <glyph glyph-name="multiply" unicode="&#xd7;" 
d="M151 197q-14 -12 -23 0l-18 24q-6 8 -5 12.5t7 10.5l100 91l-69 94q-8 12 4 23l31 27q7 5 12.5 6t10.5 -6l70 -92l100 89q14 12 23 0l19 -25q9 -12 -2 -23l-100 -90l69 -93q8 -11 -5 -23l-31 -27q-14 -12 -23 0l-69 91z" />
    <glyph glyph-name="less" unicode="&#x3c;" 
d="M407 508q7 -11 -8 -22l-194 -145l139 -140q11 -11 2 -22l-32 -33q-15 -15 -27 -2l-167 171q-4 5 -5.5 8t-0.5 9l3 15q2 6 3.5 9.5t8.5 8.5l235 173q16 12 25 -1z" />
    <glyph glyph-name="divide" unicode="&#xf7;" 
d="M275 438q-18 0 -31 11t-13 30q0 26 17.5 43.5t43.5 17.5q19 0 31.5 -10.5t12.5 -30.5q0 -25 -18 -43t-43 -18zM421 373q19 0 16 -17l-6 -33q-2 -11 -6.5 -14.5t-14.5 -3.5h-308q-19 0 -16 17l6 33q2 11 6.5 14.5t14.5 3.5h308zM222 138q-18 0 -31 11t-13 30
q0 26 17.5 43.5t43.5 17.5q19 0 31.5 -10.5t12.5 -30.5q0 -25 -18 -43t-43 -18z" />
    <glyph glyph-name="equal" unicode="=" 
d="M123 216q-19 0 -16 17l7 35q2 11 6 14.5t14 3.5h235q19 0 16 -17l-7 -35q-2 -11 -6 -14.5t-14 -3.5h-235zM154 388q-19 0 -16 17l7 35q2 11 6 14.5t14 3.5h235q19 0 16 -17l-7 -35q-2 -11 -6 -14.5t-14 -3.5h-235z" />
    <glyph glyph-name="logicalnot" unicode="&#xac;" 
d="M363 233q-2 -11 -6.5 -14t-13.5 -3h-36q-11 0 -13.5 5t-0.5 15l27 152h-182q-19 0 -16 17l7 35q2 11 6 14.5t14 3.5h235q19 0 16 -17z" />
    <glyph glyph-name="greater" unicode="&#x3e;" 
d="M116 172q-7 11 8 22l194 145l-139 140q-11 11 -2 22l32 33q15 15 27 2l167 -171q4 -5 5.5 -8t0.5 -9l-3 -15q-2 -6 -3.5 -9.5t-8.5 -8.5l-235 -173q-16 -12 -25 1z" />
    <glyph glyph-name="notequal" unicode="&#x2260;" 
d="M221 216l-56 -94q-6 -10 -10.5 -11t-11.5 3l-18 10q-7 5 -8 8.5t5 13.5l41 70h-40q-19 0 -16 17l7 35q2 11 6 14.5t14 3.5h71l60 102h-111q-19 0 -16 17l7 35q2 11 6 14.5t14 3.5h142l57 95q6 10 10.5 11t11.5 -3l18 -10q7 -4 7.5 -8.5t-4.5 -13.5l-42 -71h35
q19 0 16 -17l-7 -35q-2 -11 -6 -14.5t-14 -3.5h-66l-61 -102h107q19 0 16 -17l-7 -35q-2 -11 -6 -14.5t-14 -3.5h-137z" />
    <glyph glyph-name="approxequal" unicode="&#x2248;" 
d="M337 365q-25 0 -43 10.5t-32 23.5t-26 23.5t-25 10.5q-17 0 -31.5 -12.5t-28.5 -35.5q-5 -8 -10 -9t-12 4l-13 9q-10 6 -2 23q20 41 46.5 63.5t58.5 22.5q25 0 43 -10.5t32 -23.5t26 -23.5t25 -10.5q17 0 31.5 12.5t28.5 35.5q5 8 10 9t12 -4l13 -9q10 -6 2 -23
q-20 -41 -46.5 -63.5t-58.5 -22.5zM304 165q-25 0 -43 10.5t-32 23.5t-26 23.5t-25 10.5q-17 0 -31.5 -12.5t-28.5 -35.5q-5 -8 -10 -9t-12 4l-13 9q-10 6 -2 23q20 41 46.5 63.5t58.5 22.5q25 0 43 -10.5t32 -23.5t26 -23.5t25 -10.5q17 0 31.5 12.5t28.5 35.5q5 8 10 9
t12 -4l13 -9q10 -6 2 -23q-20 -41 -46.5 -63.5t-58.5 -22.5z" />
    <glyph glyph-name="plusminus" unicode="&#xb1;" 
d="M267 174q-2 -11 -7 -15t-16 -4h-35q-11 0 -15 4t-2 15l23 131h-116q-19 0 -16 17l6 33q2 11 6.5 14.5t14.5 3.5h116l24 131q2 11 7 15t16 4h35q11 0 15 -4t2 -15l-23 -131h116q19 0 16 -17l-6 -33q-2 -11 -6.5 -14.5t-14.5 -3.5h-116zM364 68q19 0 16 -17l-6 -33
q-2 -11 -6.5 -14.5t-14.5 -3.5h-308q-19 0 -16 17l6 33q2 11 6.5 14.5t14.5 3.5h308z" />
    <glyph glyph-name="lessequal" unicode="&#x2264;" 
d="M383 68q19 0 16 -17l-6 -33q-2 -11 -6.5 -14.5t-14.5 -3.5h-308q-19 0 -16 17l6 33q2 11 6.5 14.5t14.5 3.5h308zM413 508q7 -11 -8 -22l-194 -145l139 -140q11 -11 2 -22l-32 -33q-15 -15 -27 -2l-167 171q-4 5 -5.5 8t-0.5 9l3 15q2 6 3.5 9.5t8.5 8.5l235 173
q16 12 25 -1z" />
    <glyph glyph-name="greaterequal" unicode="&#x2265;" 
d="M382 68q19 0 16 -17l-6 -33q-2 -11 -6.5 -14.5t-14.5 -3.5h-308q-19 0 -16 17l6 33q2 11 6.5 14.5t14.5 3.5h308zM123 172q-7 11 8 22l194 145l-139 140q-11 11 -2 22l32 33q15 15 27 2l167 -171q4 -5 5.5 -8t0.5 -9l-3 -15q-2 -6 -3.5 -9.5t-8.5 -8.5l-235 -173
q-16 -12 -25 1z" />
    <glyph glyph-name="asciicircum" unicode="^" 
d="M426 405q4 -14 -9 -18l-38 -12q-16 -5 -20 8l-64 207l-142 -210q-11 -17 -26 -5l-26 19q-11 7 0 21l184 264q5 8 9.5 10t12.5 2h12q8 0 11 -2.5t5 -8.5z" />
    <glyph glyph-name="asciitilde" unicode="~" 
d="M303 229q-21 0 -36.5 8.5t-28.5 18.5t-25 18.5t-26 8.5q-29 0 -73 -37q-11 -8 -20 5l-13 18q-5 6 -3 11t8 11q23 24 52 40t55 16q21 0 36.5 -8.5t28.5 -18.5t25 -18.5t26 -8.5q29 0 73 37q11 8 20 -5l13 -18q5 -6 3 -11t-8 -11q-23 -24 -52 -40t-55 -16z" />
    <glyph glyph-name="lozenge" unicode="&#x25ca;" horiz-adv-x="423" 
d="M132 336l53 -231l141 234l-53 244zM58 282q-3 13 -5 26t0 22l2 10q2 11 8.5 23.5t14.5 26.5l177 296q5 8 9 11.5t14 3.5h32q9 0 13.5 -3t6.5 -12l67 -287q4 -14 6 -27t0 -23l-2 -11q-2 -8 -7 -20.5t-15 -27.5l-179 -286q-5 -8 -9.5 -11.5t-13.5 -3.5h-29q-16 0 -20 15z
" />
    <glyph glyph-name="degree" unicode="&#xb0;" horiz-adv-x="246" 
d="M155 560q23 0 39 16.5t16 39.5q0 18 -10.5 29t-27.5 11q-23 0 -39 -16.5t-16 -39.5q0 -18 10.5 -29t27.5 -11zM148 514q-34 0 -57 22.5t-23 57.5q0 22 9 41.5t24.5 34.5t35.5 23.5t42 8.5q34 0 57 -22.5t23 -57.5q0 -22 -9 -41.5t-24.5 -34.5t-35.5 -23.5t-42 -8.5z" />
    <glyph glyph-name="quotesingle" unicode="'" horiz-adv-x="177" 
d="M114 524q-13 0 -11 12l22 149q1 7 4 11.5t12 4.5h39q8 0 11.5 -3t1.5 -13l-30 -149q-2 -7 -5 -9.5t-11 -2.5h-33z" />
    <glyph glyph-name="quotedbl" unicode="&#x22;" horiz-adv-x="279" 
d="M114 524q-13 0 -11 12l22 149q1 7 4 11.5t12 4.5h39q8 0 11.5 -3t1.5 -13l-30 -149q-2 -7 -5 -9.5t-11 -2.5h-33zM216 524q-13 0 -11 12l22 149q1 7 4 11.5t12 4.5h39q8 0 11.5 -3t1.5 -13l-30 -149q-2 -7 -5 -9.5t-11 -2.5h-33z" />
    <glyph glyph-name="radical" unicode="&#x221a;" horiz-adv-x="490" 
d="M85 469q2 8 5 11.5t14 3.5h90q10 0 13 -2.5t4 -10.5l37 -341l255 566q4 8 7.5 11t14.5 3h39q16 0 10 -14l-317 -685q-5 -11 -19 -11h-38q-9 0 -12 3t-4 11l-44 411h-48q-16 0 -13 14z" />
    <glyph glyph-name="currency" unicode="&#xa4;" 
d="M246 259q22 0 38 10.5t27 27t16.5 37.5t5.5 41q0 29 -14 43.5t-40 14.5q-22 0 -38 -10.5t-27 -27t-16.5 -37.5t-5.5 -41q0 -29 14 -43.5t40 -14.5zM233 195q-23 0 -38.5 6t-32.5 20l-52 -44q-10 -8 -16 -8.5t-13 7.5l-17 22q-6 8 -5.5 14t10.5 14l57 48q-6 18 -6 41
q0 53 33 103l-37 48q-7 8 -5.5 14t10.5 14l27 22q15 14 27 -1l36 -44q21 14 39.5 20t41.5 6t38.5 -6t32.5 -20l52 44q10 8 16 8.5t13 -7.5l17 -22q6 -8 5.5 -14t-10.5 -14l-57 -48q6 -18 6 -41q0 -26 -8 -52t-25 -51l37 -48q7 -8 5.5 -14t-10.5 -14l-27 -22q-15 -14 -27 1
l-36 44q-21 -14 -39.5 -20t-41.5 -6z" />
    <glyph glyph-name="infinity" unicode="&#x221e;" horiz-adv-x="688" 
d="M201 412q-20 0 -36 -8t-27.5 -22t-18 -32.5t-6.5 -39.5q0 -34 18.5 -51t44.5 -17q30 0 61.5 24.5t60.5 58.5q-22 42 -45 64.5t-52 22.5zM329 271q-40 -43 -79.5 -70t-85.5 -27q-63 0 -95.5 37t-32.5 92q0 38 13.5 70.5t36.5 56.5t54 37.5t66 13.5q48 0 83.5 -25.5
t62.5 -71.5q40 43 79.5 70t85.5 27q63 0 95.5 -37t32.5 -92q0 -38 -13.5 -70.5t-36.5 -56.5t-54 -37.5t-66 -13.5q-48 0 -83.5 25.5t-62.5 71.5zM480 243q19 0 35.5 8t28 22t18 32.5t6.5 39.5q0 34 -18.5 51t-44.5 17q-30 0 -61.5 -24.5t-60.5 -58.5q22 -42 45 -64.5
t52 -22.5z" />
    <glyph glyph-name="mu" unicode="&#x3bc;" horiz-adv-x="492" 
d="M196 62q26 0 54.5 15t51.5 38l62 353q3 16 18 16h50q16 0 13 -17l-60 -336q-3 -16 -5 -28t-2 -21q0 -22 16 -22q8 0 13.5 1.5t12.5 3.5q11 4 14 -8l5 -20q4 -14 -9 -23q-11 -8 -29 -13.5t-41 -5.5q-29 0 -43 14t-19 40q-23 -26 -53.5 -40.5t-62.5 -14.5q-23 0 -41 7
t-29 23l-31 -176q-2 -8 -5 -12t-12 -4h-49q-17 0 -14 17l110 619q3 16 18 16h50q16 0 13 -17l-51 -290q-2 -14 -3.5 -27.5t-1.5 -24.5q0 -26 13 -44.5t47 -18.5z" />
    <glyph glyph-name="uni00B5" unicode="&#xb5;" horiz-adv-x="492" 
d="M196 62q26 0 54.5 15t51.5 38l62 353q3 16 18 16h50q16 0 13 -17l-60 -336q-3 -16 -5 -28t-2 -21q0 -22 16 -22q8 0 13.5 1.5t12.5 3.5q11 4 14 -8l5 -20q4 -14 -9 -23q-11 -8 -29 -13.5t-41 -5.5q-29 0 -43 14t-19 40q-23 -26 -53.5 -40.5t-62.5 -14.5q-23 0 -41 7
t-29 23l-31 -176q-2 -8 -5 -12t-12 -4h-49q-17 0 -14 17l110 619q3 16 18 16h50q16 0 13 -17l-51 -290q-2 -14 -3.5 -27.5t-1.5 -24.5q0 -26 13 -44.5t47 -18.5z" />
    <glyph glyph-name="partialdiff" unicode="&#x2202;" horiz-adv-x="481" 
d="M259 433q32 0 59 -11.5t50 -31.5q2 20 3.5 47t1.5 47q0 81 -25.5 119.5t-73.5 38.5q-37 0 -81 -16q-15 -6 -20 7l-10 28q-5 17 9 24q25 12 53 19t58 7q44 0 76.5 -16.5t54 -47t32 -73t10.5 -94.5q0 -92 -17 -180.5t-50 -157.5t-82 -111t-112 -42q-66 0 -105 44.5
t-39 122.5q0 61 16.5 112t45 88t66.5 57t80 20zM204 59q51 0 93 68t62 197q-44 44 -93 44q-29 0 -52.5 -16t-40.5 -43.5t-26.5 -65.5t-9.5 -81q0 -49 18.5 -76t48.5 -27z" />
    <glyph glyph-name="summation" unicode="&#x2211;" horiz-adv-x="492" 
d="M389 -98q11 0 13 -4t0 -12l-7 -37q-2 -11 -6 -13.5t-15 -2.5h-396q-14 0 -13 13l2 19q2 15 9 26.5t21 27.5l305 355l-180 338q-8 15 -5 31l6 31q2 10 5.5 13t14.5 3h381q11 0 13 -4t0 -12l-7 -37q-2 -11 -6 -13.5t-15 -2.5h-300l167 -311q8 -16 8 -26q0 -16 -18 -37
l-297 -345h320z" />
    <glyph glyph-name="product" unicode="&#x220f;" horiz-adv-x="544" 
d="M522 621l-137 -773q-3 -17 -19 -17h-52q-11 0 -14 5t-1 14l138 771h-185l-137 -773q-3 -17 -19 -17h-52q-11 0 -14 5t-1 14l137 771h-56q-11 0 -13 4t0 12l7 37q2 11 6 13.5t15 2.5h473q10 0 12 -3.5t0 -11.5l-12 -43q-2 -7 -6 -9t-13 -2h-57z" />
    <glyph glyph-name="pi" unicode="&#x3c0;" horiz-adv-x="513" 
d="M197 423l-72 -407q-2 -8 -5.5 -12t-12.5 -4h-50q-16 0 -13 17l72 406h-56q-16 0 -13 16l5 30q2 9 6 12t12 3h430q8 0 11.5 -3t1.5 -12l-5 -31q-3 -15 -18 -15h-76l-50 -282q-2 -14 -4 -26t-2 -22q0 -15 5 -23t22 -8q10 0 20 3t18 8q14 9 19 -4l10 -26q5 -11 -7 -20
q-38 -27 -86 -27q-49 0 -66.5 24t-17.5 61q0 14 2 29.5t5 32.5l50 280h-135z" />
    <glyph glyph-name="integral" unicode="&#x222b;" horiz-adv-x="326" 
d="M218 290q0 -436 -197 -436q-34 0 -56 10q-11 5 -7 19l9 30q3 11 14 9q6 -2 14 -3t18 -1q62 0 91 89t29 283q0 436 197 436q34 0 56 -10q11 -5 7 -19l-9 -30q-3 -11 -14 -9q-6 2 -14 3t-18 1q-62 0 -91 -89t-29 -283z" />
    <glyph glyph-name="Omega" unicode="&#x3a9;" horiz-adv-x="591" 
d="M141 65q-38 38 -58.5 94t-20.5 132q0 81 23.5 155.5t65 131.5t97 90.5t119.5 33.5q47 0 83.5 -18.5t62 -52.5t39 -81.5t13.5 -104.5q0 -51 -10.5 -104t-32.5 -103.5t-54.5 -95t-76.5 -77.5h104q17 0 14 -16l-6 -32q-3 -17 -20 -17h-184q-18 0 -15 17l3 19q2 12 7.5 18
t17.5 17q34 32 63.5 72t51 86.5t33.5 99.5t12 110q0 91 -30 140.5t-87 49.5q-44 0 -81 -30t-64 -79.5t-42.5 -113.5t-15.5 -131q0 -69 17 -121.5t48 -82.5q10 -10 12 -16t0 -16l-4 -22q-3 -17 -21 -17h-179q-17 0 -14 17l6 32q3 16 21 16h103z" />
    <glyph glyph-name="Ohm" unicode="&#x2126;" horiz-adv-x="591" 
d="M141 65q-38 38 -58.5 94t-20.5 132q0 81 23.5 155.5t65 131.5t97 90.5t119.5 33.5q47 0 83.5 -18.5t62 -52.5t39 -81.5t13.5 -104.5q0 -51 -10.5 -104t-32.5 -103.5t-54.5 -95t-76.5 -77.5h104q17 0 14 -16l-6 -32q-3 -17 -20 -17h-184q-18 0 -15 17l3 19q2 12 7.5 18
t17.5 17q34 32 63.5 72t51 86.5t33.5 99.5t12 110q0 91 -30 140.5t-87 49.5q-44 0 -81 -30t-64 -79.5t-42.5 -113.5t-15.5 -131q0 -69 17 -121.5t48 -82.5q10 -10 12 -16t0 -16l-4 -22q-3 -17 -21 -17h-179q-17 0 -14 17l6 32q3 16 21 16h103z" />
    <glyph glyph-name="uni0394" unicode="&#x394;" horiz-adv-x="504" 
d="M9 0q-19 0 -16 18l5 29q2 13 9.5 31.5t16.5 38.5l255 558q3 8 7.5 11.5t13.5 3.5h61q18 0 19 -17l53 -556q2 -14 3 -28.5t1 -22.5q0 -6 -0.5 -12t-1.5 -12l-4 -24q-2 -11 -6.5 -14.5t-15.5 -3.5h-400zM87 70h266l-38 521z" />
    <glyph glyph-name="Delta" unicode="&#x2206;" horiz-adv-x="504" 
d="M9 0q-19 0 -16 18l5 29q2 13 9.5 31.5t16.5 38.5l255 558q3 8 7.5 11.5t13.5 3.5h61q18 0 19 -17l53 -556q2 -14 3 -28.5t1 -22.5q0 -6 -0.5 -12t-1.5 -12l-4 -24q-2 -11 -6.5 -14.5t-15.5 -3.5h-400zM87 70h266l-38 521z" />
    <glyph glyph-name="litre" unicode="&#x2113;" horiz-adv-x="409" 
d="M190 228q-14 -64 -14 -108q0 -31 10.5 -46.5t37.5 -15.5q46 0 90 66q4 6 10 7.5t11 -3.5l18 -15q4 -4 5.5 -8.5t-3.5 -12.5q-30 -51 -72 -76.5t-87 -25.5q-30 0 -49.5 9.5t-31.5 26t-17 37.5t-5 45q0 20 2.5 39.5t7.5 38.5l-45 -27q-6 -4 -9.5 -1.5t-5.5 6.5l-14 31
q-4 10 9 18q17 10 38 22.5t38 23.5l44 248q6 33 17 67.5t30 62.5t47 46t67 18q52 0 75.5 -32t23.5 -89q0 -53 -19 -103t-50.5 -95t-72.5 -84t-86 -70zM203 310q27 25 51.5 56t43 65t30 70.5t11.5 73.5q0 33 -8.5 46.5t-22.5 13.5q-21 0 -39 -27.5t-30 -93.5z" />
    <glyph glyph-name="estimated" unicode="&#x212e;" horiz-adv-x="906" 
d="M220 338q-5 0 -5 -5v-195q0 -7 2.5 -12.5t6.5 -10.5q46 -49 109 -77.5t136 -28.5q78 0 143.5 32.5t112.5 86.5h58q-54 -64 -136 -102t-179 -38q-83 0 -155.5 28t-127 77t-86 114t-31.5 140t31.5 140t86 113.5t127 76.5t155.5 28q82 0 154.5 -28t126.5 -76.5t85.5 -113.5
t31.5 -140v-9h-646zM720 560q0 13 -10 23q-47 47 -108.5 74t-132.5 27q-73 0 -135 -28t-109 -76q-10 -10 -10 -25v-192q0 -5 5 -5h495q5 0 5 5v197z" />
    <glyph glyph-name="numero" unicode="&#x2116;" horiz-adv-x="834" 
d="M659 147q18 0 31.5 14.5t23.5 37t15 49.5t5 51q0 62 -37 62q-18 0 -31.5 -15t-23.5 -37.5t-15 -49t-5 -50.5q0 -62 37 -62zM653 102q-48 0 -71 30.5t-23 78.5q0 31 9.5 65.5t27.5 63.5t45 47.5t62 18.5q48 0 71 -30.5t23 -78.5q0 -32 -9.5 -66t-27.5 -63t-45 -47.5
t-62 -18.5zM353 359q29 -75 48 -133t26 -98q0 12 3 38.5t7.5 60.5t10 69.5t10.5 65.5l54 312q2 8 5.5 12t13.5 4h49q17 0 14 -16l-117 -657q-2 -11 -6.5 -14t-14.5 -3h-33q-10 0 -14.5 3t-7.5 11l-126 325q-20 54 -39 111t-30 111q-2 -34 -10 -90t-19 -122l-58 -333
q-2 -10 -5.5 -13t-13.5 -3h-49q-17 0 -14 18l117 655q2 9 5.5 13t14.5 4h33q12 0 16 -3t8 -12zM735 46q15 0 12 -13l-4 -21q-2 -7 -4.5 -9.5t-10.5 -2.5h-193q-15 0 -12 13l4 21q2 7 4.5 9.5t10.5 2.5h193z" />
    <glyph glyph-name="fraction" unicode="&#x2044;" horiz-adv-x="109" 
d="M-115 -6q-5 -7 -10 -10.5t-15 -3.5h-45q-16 0 -6 17l451 682q5 7 10 10.5t15 3.5h45q16 0 5 -18z" />
    <glyph glyph-name="onesuperior" unicode="&#xb9;" horiz-adv-x="317" 
d="M133 691q-14 -7 -18 4l-10 24q-4 11 8 18l96 51q10 5 17 7.5t18 2.5h25q8 0 10.5 -3t1.5 -9l-57 -328q-1 -6 -4 -9t-11 -3h-39q-14 0 -12 12l48 272z" />
    <glyph glyph-name="twosuperior" unicode="&#xb2;" horiz-adv-x="317" 
d="M59 470q2 13 8 21t27 26q36 31 63.5 55t47.5 44q26 26 39 48t13 47q0 38 -44 38q-19 0 -38 -6.5t-38 -15.5q-12 -5 -15 6l-6 21q-2 7 -1 11t8 8q23 13 50 21t55 8q45 0 71 -20.5t26 -58.5q0 -20 -4 -36.5t-13 -32.5t-24.5 -33t-38.5 -38q-20 -18 -44.5 -38.5t-55.5 -45.5
h132q15 0 12 -13l-5 -27q-2 -7 -5 -10t-11 -3h-201q-12 0 -11 11z" />
    <glyph glyph-name="threesuperior" unicode="&#xb3;" horiz-adv-x="317" 
d="M217 802q43 0 69.5 -20.5t26.5 -56.5q0 -62 -65 -88q23 -7 38 -27t15 -46q0 -58 -39 -90t-106 -32q-24 0 -47.5 5t-43.5 15q-6 3 -6.5 6.5t2.5 10.5l11 27q5 12 19 5q34 -16 66 -16q34 0 55 17.5t21 47.5t-20.5 40t-52.5 10h-8q-13 0 -11 12l3 22q1 12 14 12h11
q17 0 33 4t27 13q18 15 18 40q0 17 -12.5 26.5t-33.5 9.5q-29 0 -62 -13q-13 -6 -17 6l-7 23q-3 9 8 15q24 11 48 16.5t46 5.5z" />
    <glyph glyph-name="onehalf" unicode="&#xbd;" horiz-adv-x="745" 
d="M108 583q-14 -7 -18 4l-10 24q-4 11 8 18l96 51q10 5 17 7.5t18 2.5h25q8 0 10.5 -3t1.5 -9l-57 -328q-1 -6 -4 -9t-11 -3h-39q-14 0 -12 12l48 272zM427 24q2 13 8 21t27 26q36 31 63.5 55t47.5 44q26 26 39 48t13 47q0 38 -44 38q-19 0 -38 -6.5t-38 -15.5
q-12 -5 -15 6l-6 21q-2 7 -1 11t8 8q23 13 50 21t55 8q45 0 71 -20.5t26 -58.5q0 -20 -4 -36.5t-13 -32.5t-24.5 -33t-38.5 -38q-20 -18 -44.5 -38.5t-55.5 -45.5h132q15 0 12 -13l-5 -27q-2 -7 -5 -10t-11 -3h-201q-12 0 -11 11zM172 -6q-5 -7 -10 -10.5t-15 -3.5h-45
q-16 0 -6 17l451 682q5 7 10 10.5t15 3.5h45q16 0 5 -18z" />
    <glyph glyph-name="onequarter" unicode="&#xbc;" horiz-adv-x="745" 
d="M113 583q-14 -7 -18 4l-10 24q-4 11 8 18l96 51q10 5 17 7.5t18 2.5h25q8 0 10.5 -3t1.5 -9l-57 -328q-1 -6 -4 -9t-11 -3h-39q-14 0 -12 12l48 272zM616 12q-2 -12 -16 -12h-33q-14 0 -12 12l11 66h-133q-8 0 -10.5 3t-1.5 11l2 12q2 10 4.5 16.5t11.5 21.5l121 198
q8 12 21 12h38q16 0 7 -16l-126 -206h75l12 64q2 7 4.5 9.5t10.5 2.5h35q8 0 10 -3t1 -9l-12 -64h40q15 0 12 -13l-5 -26q-2 -7 -5 -10t-11 -3h-40zM186 -6q-5 -7 -10 -10.5t-15 -3.5h-45q-16 0 -6 17l451 682q5 7 10 10.5t15 3.5h45q16 0 5 -18z" />
    <glyph glyph-name="threequarters" unicode="&#xbe;" horiz-adv-x="745" 
d="M226 694q43 0 69.5 -20.5t26.5 -56.5q0 -62 -65 -88q23 -7 38 -27t15 -46q0 -58 -39 -90t-106 -32q-24 0 -47.5 5t-43.5 15q-6 3 -6.5 6.5t2.5 10.5l11 27q5 12 19 5q34 -16 66 -16q34 0 55 17.5t21 47.5t-20.5 40t-52.5 10h-8q-13 0 -11 12l3 22q1 12 14 12h11
q17 0 33 4t27 13q18 15 18 40q0 17 -12.5 26.5t-33.5 9.5q-29 0 -62 -13q-13 -6 -17 6l-7 23q-3 9 8 15q24 11 48 16.5t46 5.5zM636 12q-2 -12 -16 -12h-33q-14 0 -12 12l11 65h-133q-8 0 -10.5 3t-1.5 11l2 13q2 10 4.5 16.5t11.5 21.5l121 198q8 12 21 12h38q16 0 7 -16
l-126 -206h75l12 64q2 7 4.5 9.5t10.5 2.5h35q8 0 10 -3t1 -9l-12 -64h40q15 0 12 -13l-5 -27q-2 -7 -5 -10t-11 -3h-40zM225 -6q-5 -7 -10 -10.5t-15 -3.5h-45q-16 0 -6 17l451 682q5 7 10 10.5t15 3.5h45q16 0 5 -18z" />
    <glyph glyph-name="grave" unicode="`" horiz-adv-x="260" 
d="M261 582q9 -9 2 -17l-17 -20q-6 -8 -17 0l-106 76q-8 6 -10.5 11.5t4.5 14.5l24 28q12 14 25 1z" />
    <glyph glyph-name="acute" unicode="&#xb4;" horiz-adv-x="260" 
d="M269 649q5 -7 5 -13t-8 -11l-123 -79q-8 -5 -12 -4t-9 6l-13 17q-6 9 3 17l112 94q16 14 26 -1z" />
    <glyph glyph-name="dieresis" unicode="&#xa8;" horiz-adv-x="260" 
d="M106 563q-17 0 -28 9.5t-11 26.5q0 22 15.5 37.5t37.5 15.5q17 0 28 -9.5t11 -26.5q0 -22 -15.5 -37.5t-37.5 -15.5zM251 563q-17 0 -28 9.5t-11 26.5q0 22 15.5 37.5t37.5 15.5q17 0 28 -9.5t11 -26.5q0 -22 -15.5 -37.5t-37.5 -15.5z" />
    <glyph glyph-name="circumflex" unicode="&#x2c6;" horiz-adv-x="260" 
d="M275 546q-10 -9 -19 2l-62 75l-90 -80q-10 -9 -18 1l-12 14q-7 9 3 19l97 95q7 6 11.5 8t12.5 2h13q6 0 9 -1.5t7 -6.5l67 -96q5 -6 4.5 -9.5t-6.5 -8.5z" />
    <glyph glyph-name="tilde" unicode="&#x2dc;" horiz-adv-x="260" 
d="M243 560q-15 0 -28 5.5t-25 12.5t-23 12.5t-23 5.5t-22.5 -6t-23.5 -18q-10 -10 -18 2l-11 16q-7 12 6 25q15 14 34 24.5t40 10.5q15 0 27.5 -5.5t24.5 -12.5t23.5 -12.5t23.5 -5.5t22.5 6t23.5 18q10 10 18 -2l11 -16q4 -6 3 -11.5t-9 -13.5q-15 -14 -34 -24.5
t-40 -10.5z" />
    <glyph glyph-name="macron" unicode="&#xaf;" horiz-adv-x="260" 
d="M284 624q17 0 14 -14l-5 -24q-2 -9 -5.5 -12t-12.5 -3h-186q-17 0 -14 14l5 24q3 15 17 15h187z" />
    <glyph glyph-name="breve" unicode="&#x2d8;" horiz-adv-x="260" 
d="M305 642q-16 -44 -48.5 -67.5t-74.5 -23.5q-41 0 -67.5 23.5t-26.5 68.5q0 17 17 17h22q8 0 11.5 -2.5t4.5 -11.5q5 -45 46 -45q39 0 62 46q4 8 7.5 10.5t13.5 2.5h23q10 0 11 -5.5t-1 -12.5z" />
    <glyph glyph-name="dotaccent" unicode="&#x2d9;" horiz-adv-x="260" 
d="M179 551q-17 0 -28.5 11t-11.5 29q0 25 16.5 40.5t40.5 15.5q17 0 28.5 -11t11.5 -29q0 -25 -16.5 -40.5t-40.5 -15.5z" />
    <glyph glyph-name="ring" unicode="&#x2da;" horiz-adv-x="260" 
d="M183 582q15 0 27.5 11t12.5 29q0 13 -8.5 20t-19.5 7q-15 0 -27.5 -11t-12.5 -29q0 -13 8.5 -20t19.5 -7zM177 541q-27 0 -46 18.5t-19 45.5q0 18 7.5 33.5t20 27t28.5 18t33 6.5q27 0 46 -18.5t19 -45.5q0 -18 -7.5 -33.5t-20 -27t-28.5 -18t-33 -6.5z" />
    <glyph glyph-name="cedilla" unicode="&#xb8;" horiz-adv-x="260" 
d="M165 -111q0 -37 -27.5 -64.5t-72.5 -27.5q-15 0 -28.5 2.5t-23.5 6.5q-7 2 -8 6t1 10l5 17q3 10 14 7q10 -3 19.5 -4.5t17.5 -1.5q21 0 34 13.5t13 29.5q0 12 -10 19.5t-41 12.5q-15 2 -16.5 9.5t1.5 19.5l17 60h46l-13 -53q35 -5 53.5 -20.5t18.5 -41.5z" />
    <glyph glyph-name="hungarumlaut" unicode="&#x2dd;" horiz-adv-x="260" 
d="M196 648q8 -13 -7 -22l-133 -78q-8 -5 -11.5 -4t-6.5 6l-9 14q-3 5 -2 9t9 10l121 92q15 13 24 -2zM356 648q8 -13 -7 -22l-133 -78q-8 -5 -11.5 -4t-6.5 6l-9 14q-3 5 -2 9t9 10l121 92q15 13 24 -2z" />
    <glyph glyph-name="ogonek" unicode="&#x2db;" horiz-adv-x="260" 
d="M158 -177q2 -8 -5 -12q-10 -6 -29 -11.5t-38 -5.5q-33 0 -55.5 17.5t-22.5 53.5q0 41 32 80.5t86 64.5l24 -14q-42 -33 -63.5 -61.5t-21.5 -63.5q0 -17 10 -26t27 -9q11 0 21.5 3l17.5 5q8 3 10 0.5t4 -7.5z" />
    <glyph glyph-name="caron" unicode="&#x2c7;" horiz-adv-x="260" 
d="M108 672q10 9 19 -2l62 -75l90 80q10 9 18 -1l12 -14q4 -5 3.5 -9t-6.5 -10l-97 -95q-7 -6 -11.5 -8t-12.5 -2h-13q-6 0 -9 1.5t-7 6.5l-67 96q-8 11 2 18z" />
    <glyph glyph-name="commaaccent" unicode="&#x326;" horiz-adv-x="260" 
d="M116 -92q0 -20 -7 -39t-19 -36.5t-27.5 -32t-31.5 -26.5q-7 -5 -10.5 -4.5t-7.5 5.5l-5 7q-2 4 -1 6.5t6 6.5q17 14 28.5 30t11.5 30q0 16 -9 26.5t-9 25.5q0 20 13 32t30 12t27.5 -12.5t10.5 -30.5z" />
    <glyph glyph-name="grave.cap" horiz-adv-x="260" 
d="M261 782q9 -9 2 -17l-17 -20q-6 -8 -17 0l-106 76q-8 6 -10.5 11.5t4.5 14.5l24 28q12 14 25 1z" />
    <glyph glyph-name="acute.cap" horiz-adv-x="260" 
d="M269 849q5 -7 5 -13t-8 -11l-123 -79q-8 -5 -12 -4t-9 6l-13 17q-6 9 3 17l112 94q16 14 26 -1z" />
    <glyph glyph-name="dieresis.cap" horiz-adv-x="260" 
d="M106 763q-17 0 -28 9.5t-11 26.5q0 22 15.5 37.5t37.5 15.5q17 0 28 -9.5t11 -26.5q0 -22 -15.5 -37.5t-37.5 -15.5zM251 763q-17 0 -28 9.5t-11 26.5q0 22 15.5 37.5t37.5 15.5q17 0 28 -9.5t11 -26.5q0 -22 -15.5 -37.5t-37.5 -15.5z" />
    <glyph glyph-name="circumflex.cap" horiz-adv-x="260" 
d="M275 746q-10 -9 -19 2l-62 75l-90 -80q-10 -9 -18 1l-12 14q-7 9 3 19l97 95q7 6 11.5 8t12.5 2h13q6 0 9 -1.5t7 -6.5l67 -96q5 -6 4.5 -9.5t-6.5 -8.5z" />
    <glyph glyph-name="tilde.cap" horiz-adv-x="260" 
d="M243 760q-15 0 -28 5.5t-25 12.5t-23 12.5t-23 5.5t-22.5 -6t-23.5 -18q-10 -10 -18 2l-11 16q-7 12 6 25q15 14 34 24.5t40 10.5q15 0 27.5 -5.5t24.5 -12.5t23.5 -12.5t23.5 -5.5t22.5 6t23.5 18q10 10 18 -2l11 -16q4 -6 3 -11.5t-9 -13.5q-15 -14 -34 -24.5
t-40 -10.5z" />
    <glyph glyph-name="macron.cap" horiz-adv-x="260" 
d="M284 824q17 0 14 -14l-5 -24q-2 -9 -5.5 -12t-12.5 -3h-186q-17 0 -14 14l5 24q3 15 17 15h187z" />
    <glyph glyph-name="breve.cap" horiz-adv-x="260" 
d="M305 842q-16 -44 -48.5 -67.5t-74.5 -23.5q-41 0 -67.5 23.5t-26.5 68.5q0 17 17 17h22q8 0 11.5 -2.5t4.5 -11.5q5 -45 46 -45q39 0 62 46q4 8 7.5 10.5t13.5 2.5h23q10 0 11 -5.5t-1 -12.5z" />
    <glyph glyph-name="dotaccent.cap" horiz-adv-x="260" 
d="M179 751q-17 0 -28.5 11t-11.5 29q0 25 16.5 40.5t40.5 15.5q17 0 28.5 -11t11.5 -29q0 -25 -16.5 -40.5t-40.5 -15.5z" />
    <glyph glyph-name="ring.cap" horiz-adv-x="260" 
d="M183 782q15 0 27.5 11t12.5 29q0 13 -8.5 20t-19.5 7q-15 0 -27.5 -11t-12.5 -29q0 -13 8.5 -20t19.5 -7zM177 741q-27 0 -46 18.5t-19 45.5q0 18 7.5 33.5t20 27t28.5 18t33 6.5q27 0 46 -18.5t19 -45.5q0 -18 -7.5 -33.5t-20 -27t-28.5 -18t-33 -6.5z" />
    <glyph glyph-name="hungarumlaut.cap" horiz-adv-x="260" 
d="M196 848q8 -13 -7 -22l-133 -78q-8 -5 -11.5 -4t-6.5 6l-9 14q-3 5 -2 9t9 10l121 92q15 13 24 -2zM356 848q8 -13 -7 -22l-133 -78q-8 -5 -11.5 -4t-6.5 6l-9 14q-3 5 -2 9t9 10l121 92q15 13 24 -2z" />
    <glyph glyph-name="caron.cap" horiz-adv-x="260" 
d="M108 872q10 9 19 -2l62 -75l90 80q10 9 18 -1l12 -14q4 -5 3.5 -9t-6.5 -10l-97 -95q-7 -6 -11.5 -8t-12.5 -2h-13q-6 0 -9 1.5t-7 6.5l-67 96q-8 11 2 18z" />
    <glyph glyph-name="Agrave" unicode="&#xc0;" horiz-adv-x="513" 
d="M384 0q-15 0 -16 16l-17 176h-206l-79 -178q-4 -8 -7.5 -11t-14.5 -3h-48q-16 0 -10 15l304 661q4 8 8 11t14 3h56q17 0 18 -16l69 -657q1 -10 -1.5 -13.5t-11.5 -3.5h-58zM345 258l-17 180q-2 18 -3.5 40t-2.5 44.5t-1 43.5t1 38h-1q-10 -29 -28.5 -75t-39.5 -94
l-79 -177h171zM427 782q9 -9 2 -17l-17 -20q-6 -8 -17 0l-106 76q-8 6 -10.5 11.5t4.5 14.5l24 28q12 14 25 1z" />
    <glyph glyph-name="Aacute" unicode="&#xc1;" horiz-adv-x="513" 
d="M384 0q-15 0 -16 16l-17 176h-206l-79 -178q-4 -8 -7.5 -11t-14.5 -3h-48q-16 0 -10 15l304 661q4 8 8 11t14 3h56q17 0 18 -16l69 -657q1 -10 -1.5 -13.5t-11.5 -3.5h-58zM345 258l-17 180q-2 18 -3.5 40t-2.5 44.5t-1 43.5t1 38h-1q-10 -29 -28.5 -75t-39.5 -94
l-79 -177h171zM431 849q5 -7 5 -13t-8 -11l-123 -79q-8 -5 -12 -4t-9 6l-13 17q-6 9 3 17l112 94q16 14 26 -1z" />
    <glyph glyph-name="Acircumflex" unicode="&#xc2;" horiz-adv-x="513" 
d="M384 0q-15 0 -16 16l-17 176h-206l-79 -178q-4 -8 -7.5 -11t-14.5 -3h-48q-16 0 -10 15l304 661q4 8 8 11t14 3h56q17 0 18 -16l69 -657q1 -10 -1.5 -13.5t-11.5 -3.5h-58zM345 258l-17 180q-2 18 -3.5 40t-2.5 44.5t-1 43.5t1 38h-1q-10 -29 -28.5 -75t-39.5 -94
l-79 -177h171zM438 746q-10 -9 -19 2l-62 75l-90 -80q-10 -9 -18 1l-12 14q-7 9 3 19l97 95q7 6 11.5 8t12.5 2h13q6 0 9 -1.5t7 -6.5l67 -96q5 -6 4.5 -9.5t-6.5 -8.5z" />
    <glyph glyph-name="Atilde" unicode="&#xc3;" horiz-adv-x="513" 
d="M384 0q-15 0 -16 16l-17 176h-206l-79 -178q-4 -8 -7.5 -11t-14.5 -3h-48q-16 0 -10 15l304 661q4 8 8 11t14 3h56q17 0 18 -16l69 -657q1 -10 -1.5 -13.5t-11.5 -3.5h-58zM345 258l-17 180q-2 18 -3.5 40t-2.5 44.5t-1 43.5t1 38h-1q-10 -29 -28.5 -75t-39.5 -94
l-79 -177h171zM394 760q-15 0 -28 5.5t-25 12.5t-23 12.5t-23 5.5t-22.5 -6t-23.5 -18q-10 -10 -18 2l-11 16q-7 12 6 25q15 14 34 24.5t40 10.5q15 0 27.5 -5.5t24.5 -12.5t23.5 -12.5t23.5 -5.5t22.5 6t23.5 18q10 10 18 -2l11 -16q4 -6 3 -11.5t-9 -13.5
q-15 -14 -34 -24.5t-40 -10.5z" />
    <glyph glyph-name="Adieresis" unicode="&#xc4;" horiz-adv-x="513" 
d="M384 0q-15 0 -16 16l-17 176h-206l-79 -178q-4 -8 -7.5 -11t-14.5 -3h-48q-16 0 -10 15l304 661q4 8 8 11t14 3h56q17 0 18 -16l69 -657q1 -10 -1.5 -13.5t-11.5 -3.5h-58zM345 258l-17 180q-2 18 -3.5 40t-2.5 44.5t-1 43.5t1 38h-1q-10 -29 -28.5 -75t-39.5 -94
l-79 -177h171zM275 763q-17 0 -28 9.5t-11 26.5q0 22 15.5 37.5t37.5 15.5q17 0 28 -9.5t11 -26.5q0 -22 -15.5 -37.5t-37.5 -15.5zM420 763q-17 0 -28 9.5t-11 26.5q0 22 15.5 37.5t37.5 15.5q17 0 28 -9.5t11 -26.5q0 -22 -15.5 -37.5t-37.5 -15.5z" />
    <glyph glyph-name="Amacron" unicode="&#x100;" horiz-adv-x="513" 
d="M384 0q-15 0 -16 16l-17 176h-206l-79 -178q-4 -8 -7.5 -11t-14.5 -3h-48q-16 0 -10 15l304 661q4 8 8 11t14 3h56q17 0 18 -16l69 -657q1 -10 -1.5 -13.5t-11.5 -3.5h-58zM345 258l-17 180q-2 18 -3.5 40t-2.5 44.5t-1 43.5t1 38h-1q-10 -29 -28.5 -75t-39.5 -94
l-79 -177h171zM452 824q17 0 14 -14l-5 -24q-2 -9 -5.5 -12t-12.5 -3h-186q-17 0 -14 14l5 24q3 15 17 15h187z" />
    <glyph glyph-name="Abreve" unicode="&#x102;" horiz-adv-x="513" 
d="M384 0q-15 0 -16 16l-17 176h-206l-79 -178q-4 -8 -7.5 -11t-14.5 -3h-48q-16 0 -10 15l304 661q4 8 8 11t14 3h56q17 0 18 -16l69 -657q1 -10 -1.5 -13.5t-11.5 -3.5h-58zM345 258l-17 180q-2 18 -3.5 40t-2.5 44.5t-1 43.5t1 38h-1q-10 -29 -28.5 -75t-39.5 -94
l-79 -177h171zM464 842q-16 -44 -48.5 -67.5t-74.5 -23.5q-41 0 -67.5 23.5t-26.5 68.5q0 17 17 17h22q8 0 11.5 -2.5t4.5 -11.5q5 -45 46 -45q39 0 62 46q4 8 7.5 10.5t13.5 2.5h23q10 0 11 -5.5t-1 -12.5z" />
    <glyph glyph-name="Acaron" unicode="&#x1cd;" horiz-adv-x="513" 
d="M257 872q10 9 19 -2l62 -75l90 80q10 9 18 -1l12 -14q4 -5 3.5 -9t-6.5 -10l-97 -95q-7 -6 -11.5 -8t-12.5 -2h-13q-6 0 -9 1.5t-7 6.5l-67 96q-8 11 2 18zM384 0q-15 0 -16 16l-17 176h-206l-79 -178q-4 -8 -7.5 -11t-14.5 -3h-48q-16 0 -10 15l304 661q4 8 8 11t14 3
h56q17 0 18 -16l69 -657q1 -10 -1.5 -13.5t-11.5 -3.5h-58zM345 258l-17 180q-2 18 -3.5 40t-2.5 44.5t-1 43.5t1 38h-1q-10 -29 -28.5 -75t-39.5 -94l-79 -177h171z" />
    <glyph glyph-name="Aring" unicode="&#xc5;" horiz-adv-x="513" 
d="M384 0q-15 0 -16 16l-17 176h-206l-79 -178q-4 -8 -7.5 -11t-14.5 -3h-48q-16 0 -10 15l304 661q4 8 8 11t14 3h56q17 0 18 -16l69 -657q1 -10 -1.5 -13.5t-11.5 -3.5h-58zM345 258l-17 180q-2 18 -3.5 40t-2.5 44.5t-1 43.5t1 38h-1q-10 -29 -28.5 -75t-39.5 -94
l-79 -177h171zM355 782q15 0 27.5 11t12.5 29q0 13 -8.5 20t-19.5 7q-15 0 -27.5 -11t-12.5 -29q0 -13 8.5 -20t19.5 -7zM349 741q-27 0 -46 18.5t-19 45.5q0 18 7.5 33.5t20 27t28.5 18t33 6.5q27 0 46 -18.5t19 -45.5q0 -18 -7.5 -33.5t-20 -27t-28.5 -18t-33 -6.5z" />
    <glyph glyph-name="Aringacute" unicode="&#x1fa;" horiz-adv-x="513" 
d="M384 0q-15 0 -16 16l-17 176h-206l-79 -178q-4 -8 -7.5 -11t-14.5 -3h-48q-16 0 -10 15l304 661q4 8 8 11t14 3h56q17 0 18 -16l69 -657q1 -10 -1.5 -13.5t-11.5 -3.5h-58zM345 258l-17 180q-2 18 -3.5 40t-2.5 44.5t-1 43.5t1 38h-1q-10 -29 -28.5 -75t-39.5 -94
l-79 -177h171zM346 762q15 0 27.5 11t12.5 29q0 13 -8.5 20t-19.5 7q-15 0 -27.5 -11t-12.5 -29q0 -13 8.5 -20t19.5 -7zM340 721q-27 0 -46 18.5t-19 45.5q0 18 7.5 33.5t20 27t28.5 18t33 6.5q27 0 46 -18.5t19 -45.5q0 -18 -7.5 -33.5t-20 -27t-28.5 -18t-33 -6.5z
M455 990q5 -7 5 -13t-8 -11l-123 -79q-8 -5 -12 -4t-9 6l-13 17q-6 9 3 17l112 94q16 14 26 -1z" />
    <glyph glyph-name="Aogonek" unicode="&#x104;" horiz-adv-x="513" 
d="M415 -177q2 -8 -5 -12q-10 -6 -29 -11.5t-38 -5.5q-33 0 -55.5 17.5t-22.5 53.5q0 19 7 40.5t20.5 41t33 36t43.5 25.5l-18 184h-206l-79 -178q-4 -8 -7.5 -11t-14.5 -3h-48q-16 0 -10 15l304 661q4 8 8 11t14 3h56q9 0 13 -3t5 -13l69 -657q1 -10 -1.5 -13.5t-11.5 -3.5
h-4q-18 0 -38 -10t-37.5 -27.5t-29 -41t-11.5 -50.5q0 -17 10 -26t27 -9q11 0 21.5 3l17.5 5q8 3 10 0.5t4 -7.5zM174 258h171l-17 180q-2 18 -3.5 40t-2.5 44.5t-1 43.5t1 38h-1q-10 -29 -28.5 -75t-39.5 -94z" />
    <glyph glyph-name="AE" unicode="&#xc6;" horiz-adv-x="727" 
d="M434 594q-17 -34 -42 -75t-48 -76l-119 -181h143l32 177q8 42 17 84t17 71zM340 0q-19 0 -16 17l32 179h-173l-121 -183q-6 -8 -11 -10.5t-16 -2.5h-49q-10 0 -11 5.5t3 11.5l440 658q7 10 13 12.5t18 2.5h299q10 0 12 -3.5t0 -11.5l-12 -43q-2 -7 -6 -9t-13 -2h-211
l-41 -228h187q11 0 13 -4.5t0 -12.5l-7 -37q-2 -10 -6 -12.5t-15 -2.5h-185l-45 -255h219q11 0 13 -4t0 -12l-7 -37q-2 -11 -6 -13.5t-15 -2.5h-283z" />
    <glyph glyph-name="AEacute" unicode="&#x1fc;" horiz-adv-x="727" 
d="M434 594q-17 -34 -42 -75t-48 -76l-119 -181h143l32 177q8 42 17 84t17 71zM340 0q-19 0 -16 17l32 179h-173l-121 -183q-6 -8 -11 -10.5t-16 -2.5h-49q-10 0 -11 5.5t3 11.5l440 658q7 10 13 12.5t18 2.5h299q10 0 12 -3.5t0 -11.5l-12 -43q-2 -7 -6 -9t-13 -2h-211
l-41 -228h187q11 0 13 -4.5t0 -12.5l-7 -37q-2 -10 -6 -12.5t-15 -2.5h-185l-45 -255h219q11 0 13 -4t0 -12l-7 -37q-2 -11 -6 -13.5t-15 -2.5h-283zM673 849q5 -7 5 -13t-8 -11l-123 -79q-8 -5 -12 -4t-9 6l-13 17q-6 9 3 17l112 94q16 14 26 -1z" />
    <glyph glyph-name="Cacute" unicode="&#x106;" horiz-adv-x="481" 
d="M381 629q-56 0 -99.5 -36t-73 -92t-45 -124t-15.5 -131q0 -91 32 -137.5t97 -46.5q29 0 56 7.5t52 18.5q16 8 22 -6l12 -29q2 -6 1 -12t-11 -12q-29 -18 -67.5 -28.5t-83.5 -10.5q-49 0 -87 18t-63.5 50t-38.5 77.5t-13 100.5q0 56 10 110.5t28 104.5t44.5 93.5
t59.5 76.5q38 38 87 59t101 21q37 0 68.5 -10.5t58.5 -27.5q9 -6 10 -11.5t-3 -12.5l-18 -32q-8 -14 -22 -6q-23 13 -46.5 20.5t-52.5 7.5zM472 849q5 -7 5 -13t-8 -11l-123 -79q-8 -5 -12 -4t-9 6l-13 17q-6 9 3 17l112 94q16 14 26 -1z" />
    <glyph glyph-name="Ccedilla" unicode="&#xc7;" horiz-adv-x="481" 
d="M321 -111q0 -37 -27.5 -64.5t-72.5 -27.5q-15 0 -28.5 2.5t-23.5 6.5q-7 2 -8 6t1 10l5 17q3 10 14 7q10 -3 19.5 -4.5t17.5 -1.5q21 0 34 13.5t13 29.5q0 12 -10 19.5t-41 12.5q-15 2 -16.5 9.5t1.5 19.5l14 50q-78 15 -117.5 79.5t-39.5 162.5q0 56 10 110.5t28 104.5
t44.5 93.5t59.5 76.5q38 38 87 59t101 21q37 0 68.5 -10t58.5 -28q9 -6 10 -11.5t-3 -12.5l-18 -32q-8 -14 -22 -6q-23 13 -46.5 20.5t-52.5 7.5q-56 0 -99.5 -36t-73 -92t-45 -124t-15.5 -131q0 -91 32 -137.5t97 -46.5q29 0 56 7t52 19q16 8 22 -6l12 -29q3 -7 2 -12.5
t-12 -11.5q-29 -17 -67.5 -28t-83.5 -11l-9 -39q35 -5 53.5 -20.5t18.5 -41.5z" />
    <glyph glyph-name="Ccircumflex" unicode="&#x108;" horiz-adv-x="481" 
d="M381 629q-56 0 -99.5 -36t-73 -92t-45 -124t-15.5 -131q0 -91 32 -137.5t97 -46.5q29 0 56 7.5t52 18.5q16 8 22 -6l12 -29q2 -6 1 -12t-11 -12q-29 -18 -67.5 -28.5t-83.5 -10.5q-49 0 -87 18t-63.5 50t-38.5 77.5t-13 100.5q0 56 10 110.5t28 104.5t44.5 93.5
t59.5 76.5q38 38 87 59t101 21q37 0 68.5 -10.5t58.5 -27.5q9 -6 10 -11.5t-3 -12.5l-18 -32q-8 -14 -22 -6q-23 13 -46.5 20.5t-52.5 7.5zM477 746q-10 -9 -19 2l-62 75l-90 -80q-10 -9 -18 1l-12 14q-7 9 3 19l97 95q7 6 11.5 8t12.5 2h13q6 0 9 -1.5t7 -6.5l67 -96
q5 -6 4.5 -9.5t-6.5 -8.5z" />
    <glyph glyph-name="Ccaron" unicode="&#x10c;" horiz-adv-x="481" 
d="M381 629q-56 0 -99.5 -36t-73 -92t-45 -124t-15.5 -131q0 -91 32 -137.5t97 -46.5q29 0 56 7.5t52 18.5q16 8 22 -6l12 -29q2 -6 1 -12t-11 -12q-29 -18 -67.5 -28.5t-83.5 -10.5q-49 0 -87 18t-63.5 50t-38.5 77.5t-13 100.5q0 56 10 110.5t28 104.5t44.5 93.5
t59.5 76.5q38 38 87 59t101 21q37 0 68.5 -10.5t58.5 -27.5q9 -6 10 -11.5t-3 -12.5l-18 -32q-8 -14 -22 -6q-23 13 -46.5 20.5t-52.5 7.5zM314 872q10 9 19 -2l62 -75l90 80q10 9 18 -1l12 -14q4 -5 3.5 -9t-6.5 -10l-97 -95q-7 -6 -11.5 -8t-12.5 -2h-13q-6 0 -9 1.5
t-7 6.5l-67 96q-8 11 2 18z" />
    <glyph glyph-name="Cdotaccent" unicode="&#x10a;" horiz-adv-x="481" 
d="M381 629q-56 0 -99.5 -36t-73 -92t-45 -124t-15.5 -131q0 -91 32 -137.5t97 -46.5q29 0 56 7.5t52 18.5q16 8 22 -6l12 -29q2 -6 1 -12t-11 -12q-29 -18 -67.5 -28.5t-83.5 -10.5q-49 0 -87 18t-63.5 50t-38.5 77.5t-13 100.5q0 56 10 110.5t28 104.5t44.5 93.5
t59.5 76.5q38 38 87 59t101 21q37 0 68.5 -10.5t58.5 -27.5q9 -6 10 -11.5t-3 -12.5l-18 -32q-8 -14 -22 -6q-23 13 -46.5 20.5t-52.5 7.5zM387 751q-17 0 -28.5 11t-11.5 29q0 25 16.5 40.5t40.5 15.5q17 0 28.5 -11t11.5 -29q0 -25 -16.5 -40.5t-40.5 -15.5z" />
    <glyph glyph-name="Dcaron" unicode="&#x10e;" horiz-adv-x="566" 
d="M137 69q65 0 118.5 22t92.5 62q51 51 79 125t28 157q0 92 -46 138q-26 26 -65 37t-99 11h-14l-99 -552h5zM154 671q2 11 6.5 15t16.5 4h82q79 0 132 -17t91 -55q64 -64 64 -179q0 -47 -9 -93t-26 -89.5t-42 -82.5t-58 -70q-54 -51 -122.5 -77.5t-160.5 -26.5h-76
q-18 0 -15 17zM282 872q10 9 19 -2l62 -75l90 80q10 9 18 -1l12 -14q4 -5 3.5 -9t-6.5 -10l-97 -95q-7 -6 -11.5 -8t-12.5 -2h-13q-6 0 -9 1.5t-7 6.5l-67 96q-8 11 2 18z" />
    <glyph glyph-name="Dcroat" unicode="&#x110;" horiz-adv-x="566" 
d="M102 383l52 288q2 11 6.5 15t16.5 4h82q79 0 132 -17t91 -55q64 -64 64 -179q0 -47 -9 -93t-26 -89.5t-42 -82.5t-58 -70q-54 -51 -122.5 -77.5t-160.5 -26.5h-76q-18 0 -15 17l56 317h-55q-15 0 -12 13l5 24q2 7 4.5 9.5t10.5 2.5h56zM137 69q65 0 118.5 22t92.5 62
q51 51 79 125t28 157q0 92 -46 138q-26 26 -65 37t-99 11h-14l-43 -238h110q15 0 12 -13l-5 -24q-2 -7 -4.5 -9.5t-10.5 -2.5h-111l-47 -265h5z" />
    <glyph glyph-name="Eth" unicode="&#xd0;" horiz-adv-x="566" 
d="M102 383l52 288q2 11 6.5 15t16.5 4h82q79 0 132 -17t91 -55q64 -64 64 -179q0 -47 -9 -93t-26 -89.5t-42 -82.5t-58 -70q-54 -51 -122.5 -77.5t-160.5 -26.5h-76q-18 0 -15 17l56 317h-55q-15 0 -12 13l5 24q2 7 4.5 9.5t10.5 2.5h56zM137 69q65 0 118.5 22t92.5 62
q51 51 79 125t28 157q0 92 -46 138q-26 26 -65 37t-99 11h-14l-43 -238h110q15 0 12 -13l-5 -24q-2 -7 -4.5 -9.5t-10.5 -2.5h-111l-47 -265h5z" />
    <glyph glyph-name="Egrave" unicode="&#xc8;" horiz-adv-x="440" 
d="M190 393h187q11 0 13 -4.5t0 -12.5l-7 -37q-2 -10 -6 -12.5t-15 -2.5h-185l-45 -255h219q11 0 13 -4t0 -12l-7 -37q-2 -11 -6 -13.5t-15 -2.5h-285q-17 0 -14 17l117 656q2 11 6.5 14t14.5 3h286q10 0 12 -3.5t0 -11.5l-12 -43q-2 -7 -6 -9t-13 -2h-211zM392 782
q9 -9 2 -17l-17 -20q-6 -8 -17 0l-106 76q-8 6 -10.5 11.5t4.5 14.5l24 28q12 14 25 1z" />
    <glyph glyph-name="Eacute" unicode="&#xc9;" horiz-adv-x="440" 
d="M190 393h187q11 0 13 -4.5t0 -12.5l-7 -37q-2 -10 -6 -12.5t-15 -2.5h-185l-45 -255h219q11 0 13 -4t0 -12l-7 -37q-2 -11 -6 -13.5t-15 -2.5h-285q-17 0 -14 17l117 656q2 11 6.5 14t14.5 3h286q10 0 12 -3.5t0 -11.5l-12 -43q-2 -7 -6 -9t-13 -2h-211zM412 849
q5 -7 5 -13t-8 -11l-123 -79q-8 -5 -12 -4t-9 6l-13 17q-6 9 3 17l112 94q16 14 26 -1z" />
    <glyph glyph-name="Ecircumflex" unicode="&#xca;" horiz-adv-x="440" 
d="M190 393h187q11 0 13 -4.5t0 -12.5l-7 -37q-2 -10 -6 -12.5t-15 -2.5h-185l-45 -255h219q11 0 13 -4t0 -12l-7 -37q-2 -11 -6 -13.5t-15 -2.5h-285q-17 0 -14 17l117 656q2 11 6.5 14t14.5 3h286q10 0 12 -3.5t0 -11.5l-12 -43q-2 -7 -6 -9t-13 -2h-211zM414 746
q-10 -9 -19 2l-62 75l-90 -80q-10 -9 -18 1l-12 14q-7 9 3 19l97 95q7 6 11.5 8t12.5 2h13q6 0 9 -1.5t7 -6.5l67 -96q5 -6 4.5 -9.5t-6.5 -8.5z" />
    <glyph glyph-name="Ecaron" unicode="&#x11a;" horiz-adv-x="440" 
d="M190 393h187q11 0 13 -4.5t0 -12.5l-7 -37q-2 -10 -6 -12.5t-15 -2.5h-185l-45 -255h219q11 0 13 -4t0 -12l-7 -37q-2 -11 -6 -13.5t-15 -2.5h-285q-17 0 -14 17l117 656q2 11 6.5 14t14.5 3h286q10 0 12 -3.5t0 -11.5l-12 -43q-2 -7 -6 -9t-13 -2h-211zM244 872
q10 9 19 -2l62 -75l90 80q10 9 18 -1l12 -14q4 -5 3.5 -9t-6.5 -10l-97 -95q-7 -6 -11.5 -8t-12.5 -2h-13q-6 0 -9 1.5t-7 6.5l-67 96q-8 11 2 18z" />
    <glyph glyph-name="Edieresis" unicode="&#xcb;" horiz-adv-x="440" 
d="M190 393h187q11 0 13 -4.5t0 -12.5l-7 -37q-2 -10 -6 -12.5t-15 -2.5h-185l-45 -255h219q11 0 13 -4t0 -12l-7 -37q-2 -11 -6 -13.5t-15 -2.5h-285q-17 0 -14 17l117 656q2 11 6.5 14t14.5 3h286q10 0 12 -3.5t0 -11.5l-12 -43q-2 -7 -6 -9t-13 -2h-211zM248 763
q-17 0 -28 9.5t-11 26.5q0 22 15.5 37.5t37.5 15.5q17 0 28 -9.5t11 -26.5q0 -22 -15.5 -37.5t-37.5 -15.5zM393 763q-17 0 -28 9.5t-11 26.5q0 22 15.5 37.5t37.5 15.5q17 0 28 -9.5t11 -26.5q0 -22 -15.5 -37.5t-37.5 -15.5z" />
    <glyph glyph-name="Emacron" unicode="&#x112;" horiz-adv-x="440" 
d="M190 393h187q11 0 13 -4.5t0 -12.5l-7 -37q-2 -10 -6 -12.5t-15 -2.5h-185l-45 -255h219q11 0 13 -4t0 -12l-7 -37q-2 -11 -6 -13.5t-15 -2.5h-285q-17 0 -14 17l117 656q2 11 6.5 14t14.5 3h286q10 0 12 -3.5t0 -11.5l-12 -43q-2 -7 -6 -9t-13 -2h-211zM424 824
q17 0 14 -14l-5 -24q-2 -9 -5.5 -12t-12.5 -3h-186q-17 0 -14 14l5 24q3 15 17 15h187z" />
    <glyph glyph-name="Ebreve" unicode="&#x114;" horiz-adv-x="440" 
d="M190 393h187q11 0 13 -4.5t0 -12.5l-7 -37q-2 -10 -6 -12.5t-15 -2.5h-185l-45 -255h219q11 0 13 -4t0 -12l-7 -37q-2 -11 -6 -13.5t-15 -2.5h-285q-17 0 -14 17l117 656q2 11 6.5 14t14.5 3h286q10 0 12 -3.5t0 -11.5l-12 -43q-2 -7 -6 -9t-13 -2h-211zM443 842
q-16 -44 -48.5 -67.5t-74.5 -23.5q-41 0 -67.5 23.5t-26.5 68.5q0 17 17 17h22q8 0 11.5 -2.5t4.5 -11.5q5 -45 46 -45q39 0 62 46q4 8 7.5 10.5t13.5 2.5h23q10 0 11 -5.5t-1 -12.5z" />
    <glyph glyph-name="Edotaccent" unicode="&#x116;" horiz-adv-x="440" 
d="M190 393h187q11 0 13 -4.5t0 -12.5l-7 -37q-2 -10 -6 -12.5t-15 -2.5h-185l-45 -255h219q11 0 13 -4t0 -12l-7 -37q-2 -11 -6 -13.5t-15 -2.5h-285q-17 0 -14 17l117 656q2 11 6.5 14t14.5 3h286q10 0 12 -3.5t0 -11.5l-12 -43q-2 -7 -6 -9t-13 -2h-211zM319 751
q-17 0 -28.5 11t-11.5 29q0 25 16.5 40.5t40.5 15.5q17 0 28.5 -11t11.5 -29q0 -25 -16.5 -40.5t-40.5 -15.5z" />
    <glyph glyph-name="Eogonek" unicode="&#x118;" horiz-adv-x="440" 
d="M231 621l-41 -228h187q11 0 13 -4.5t0 -12.5l-7 -37q-2 -10 -6 -12.5t-15 -2.5h-185l-45 -255h219q11 0 13 -4t0 -12l-7 -37q-2 -9 -10 -11.5t-21.5 -6.5t-31 -15t-37.5 -36q-12 -16 -20 -35.5t-8 -40.5q0 -17 10 -26t27 -9q11 0 21.5 3l17.5 5q8 3 10 0.5t4 -7.5l3 -14
q2 -8 -5 -12q-10 -6 -29 -11.5t-38 -5.5q-33 0 -55.5 17.5t-22.5 53.5q0 35 23 74t63 61h-207q-17 0 -14 17l117 656q2 11 6.5 14t14.5 3h286q10 0 12 -3.5t0 -11.5l-12 -43q-2 -7 -6 -9t-13 -2h-211z" />
    <glyph glyph-name="Gcircumflex" unicode="&#x11c;" horiz-adv-x="559" 
d="M397 701q39 0 73 -10t62 -27q9 -6 10 -11.5t-3 -12.5l-18 -32q-5 -8 -9.5 -9t-12.5 3q-24 13 -49 20t-52 7q-83 0 -141 -63q-26 -28 -46.5 -65.5t-34.5 -79.5t-21 -86.5t-7 -87.5q0 -49 12 -89t38 -65q18 -17 39.5 -24.5t49.5 -7.5q21 0 43 4t42 12l44 247h-80
q-11 0 -13 4t0 12l7 37q2 11 6 13.5t15 2.5h146q5 0 10.5 -2.5t3.5 -12.5l-58 -322q-2 -13 -6 -19.5t-15 -11.5q-38 -17 -79.5 -26t-83.5 -9q-56 0 -96 19.5t-66 53t-38.5 79.5t-12.5 99q0 50 9 102.5t27 102t44.5 94t61.5 79.5q38 38 88 60t111 22zM491 746q-10 -9 -19 2
l-62 75l-90 -80q-10 -9 -18 1l-12 14q-7 9 3 19l97 95q7 6 11.5 8t12.5 2h13q6 0 9 -1.5t7 -6.5l67 -96q5 -6 4.5 -9.5t-6.5 -8.5z" />
    <glyph glyph-name="Gbreve" unicode="&#x11e;" horiz-adv-x="559" 
d="M397 701q39 0 73 -10t62 -27q9 -6 10 -11.5t-3 -12.5l-18 -32q-5 -8 -9.5 -9t-12.5 3q-24 13 -49 20t-52 7q-83 0 -141 -63q-26 -28 -46.5 -65.5t-34.5 -79.5t-21 -86.5t-7 -87.5q0 -49 12 -89t38 -65q18 -17 39.5 -24.5t49.5 -7.5q21 0 43 4t42 12l44 247h-80
q-11 0 -13 4t0 12l7 37q2 11 6 13.5t15 2.5h146q5 0 10.5 -2.5t3.5 -12.5l-58 -322q-2 -13 -6 -19.5t-15 -11.5q-38 -17 -79.5 -26t-83.5 -9q-56 0 -96 19.5t-66 53t-38.5 79.5t-12.5 99q0 50 9 102.5t27 102t44.5 94t61.5 79.5q38 38 88 60t111 22zM524 842
q-16 -44 -48.5 -67.5t-74.5 -23.5q-41 0 -67.5 23.5t-26.5 68.5q0 17 17 17h22q8 0 11.5 -2.5t4.5 -11.5q5 -45 46 -45q39 0 62 46q4 8 7.5 10.5t13.5 2.5h23q10 0 11 -5.5t-1 -12.5z" />
    <glyph glyph-name="Gdotaccent" unicode="&#x120;" horiz-adv-x="559" 
d="M397 701q39 0 73 -10t62 -27q9 -6 10 -11.5t-3 -12.5l-18 -32q-5 -8 -9.5 -9t-12.5 3q-24 13 -49 20t-52 7q-83 0 -141 -63q-26 -28 -46.5 -65.5t-34.5 -79.5t-21 -86.5t-7 -87.5q0 -49 12 -89t38 -65q18 -17 39.5 -24.5t49.5 -7.5q21 0 43 4t42 12l44 247h-80
q-11 0 -13 4t0 12l7 37q2 11 6 13.5t15 2.5h146q5 0 10.5 -2.5t3.5 -12.5l-58 -322q-2 -13 -6 -19.5t-15 -11.5q-38 -17 -79.5 -26t-83.5 -9q-56 0 -96 19.5t-66 53t-38.5 79.5t-12.5 99q0 50 9 102.5t27 102t44.5 94t61.5 79.5q38 38 88 60t111 22zM398 751q-17 0 -28.5 11
t-11.5 29q0 25 16.5 40.5t40.5 15.5q17 0 28.5 -11t11.5 -29q0 -25 -16.5 -40.5t-40.5 -15.5z" />
    <glyph glyph-name="Gcommaaccent" unicode="&#x122;" horiz-adv-x="559" 
d="M397 701q39 0 73 -10t62 -27q9 -6 10 -11.5t-3 -12.5l-18 -32q-5 -8 -9.5 -9t-12.5 3q-24 13 -49 20t-52 7q-83 0 -141 -63q-26 -28 -46.5 -65.5t-34.5 -79.5t-21 -86.5t-7 -87.5q0 -49 12 -89t38 -65q18 -17 39.5 -24.5t49.5 -7.5q21 0 43 4t42 12l44 247h-80
q-11 0 -13 4t0 12l7 37q2 11 6 13.5t15 2.5h146q5 0 10.5 -2.5t3.5 -12.5l-58 -322q-2 -13 -6 -19.5t-15 -11.5q-38 -17 -79.5 -26t-83.5 -9q-56 0 -96 19.5t-66 53t-38.5 79.5t-12.5 99q0 50 9 102.5t27 102t44.5 94t61.5 79.5q38 38 88 60t111 22zM293 -92q0 -20 -7 -39
t-19 -36.5t-27.5 -32t-31.5 -26.5q-7 -5 -10.5 -4.5t-7.5 5.5l-5 7q-2 4 -1 6.5t6 6.5q17 14 28.5 30t11.5 30q0 16 -9 26.5t-9 25.5q0 20 13 32t30 12t27.5 -12.5t10.5 -30.5z" />
    <glyph glyph-name="Hcircumflex" unicode="&#x124;" horiz-adv-x="570" 
d="M451 18q-3 -18 -21 -18h-50q-11 0 -14 5t-1 13l54 306h-242l-54 -306q-3 -18 -21 -18h-50q-11 0 -14 5t-1 13l117 654q3 18 21 18h50q11 0 14 -5t1 -13l-50 -279h242l50 279q3 18 21 18h50q11 0 14 -5t1 -13zM462 746q-10 -9 -19 2l-62 75l-90 -80q-10 -9 -18 1l-12 14
q-7 9 3 19l97 95q7 6 11.5 8t12.5 2h13q6 0 9 -1.5t7 -6.5l67 -96q5 -6 4.5 -9.5t-6.5 -8.5z" />
    <glyph glyph-name="Hbar" unicode="&#x126;" horiz-adv-x="570" 
d="M550 571h64q17 0 14 -14l-3 -20q-2 -9 -5.5 -12t-12.5 -3h-66l-90 -504q-3 -18 -21 -18h-50q-11 0 -14 5t-1 13l54 306h-242l-54 -306q-3 -18 -21 -18h-50q-11 0 -14 5t-1 13l90 504h-62q-17 0 -14 14l3 20q3 15 17 15h65l18 101q3 18 21 18h50q11 0 14 -5t1 -13
l-18 -101h242l18 101q3 18 21 18h50q11 0 14 -5t1 -13zM432 393l23 129h-242l-23 -129h242z" />
    <glyph glyph-name="Igrave" unicode="&#xcc;" horiz-adv-x="328" 
d="M223 57q14 0 13 -13l-5 -30q-3 -14 -16 -14h-184q-14 0 -13 13l5 30q3 14 16 14h49l103 576h-49q-14 0 -13 13l5 30q3 14 16 14h184q14 0 13 -13l-5 -30q-3 -14 -16 -14h-49l-103 -576h49zM334 782q9 -9 2 -17l-17 -20q-6 -8 -17 0l-106 76q-8 6 -10.5 11.5t4.5 14.5
l24 28q12 14 25 1z" />
    <glyph glyph-name="Iacute" unicode="&#xcd;" horiz-adv-x="328" 
d="M223 57q14 0 13 -13l-5 -30q-3 -14 -16 -14h-184q-14 0 -13 13l5 30q3 14 16 14h49l103 576h-49q-14 0 -13 13l5 30q3 14 16 14h184q14 0 13 -13l-5 -30q-3 -14 -16 -14h-49l-103 -576h49zM342 849q5 -7 5 -13t-8 -11l-123 -79q-8 -5 -12 -4t-9 6l-13 17q-6 9 3 17
l112 94q16 14 26 -1z" />
    <glyph glyph-name="Icircumflex" unicode="&#xce;" horiz-adv-x="328" 
d="M223 57q14 0 13 -13l-5 -30q-3 -14 -16 -14h-184q-14 0 -13 13l5 30q3 14 16 14h49l103 576h-49q-14 0 -13 13l5 30q3 14 16 14h184q14 0 13 -13l-5 -30q-3 -14 -16 -14h-49l-103 -576h49zM347 746q-10 -9 -19 2l-62 75l-90 -80q-10 -9 -18 1l-12 14q-7 9 3 19l97 95
q7 6 11.5 8t12.5 2h13q6 0 9 -1.5t7 -6.5l67 -96q5 -6 4.5 -9.5t-6.5 -8.5z" />
    <glyph glyph-name="Itilde" unicode="&#x128;" horiz-adv-x="328" 
d="M223 57q14 0 13 -13l-5 -30q-3 -14 -16 -14h-184q-14 0 -13 13l5 30q3 14 16 14h49l103 576h-49q-14 0 -13 13l5 30q3 14 16 14h184q14 0 13 -13l-5 -30q-3 -14 -16 -14h-49l-103 -576h49zM307 760q-15 0 -28 5.5t-25 12.5t-23 12.5t-23 5.5t-22.5 -6t-23.5 -18
q-10 -10 -18 2l-11 16q-7 12 6 25q15 14 34 24.5t40 10.5q15 0 27.5 -5.5t24.5 -12.5t23.5 -12.5t23.5 -5.5t22.5 6t23.5 18q10 10 18 -2l11 -16q4 -6 3 -11.5t-9 -13.5q-15 -14 -34 -24.5t-40 -10.5z" />
    <glyph glyph-name="Idieresis" unicode="&#xcf;" horiz-adv-x="328" 
d="M223 57q14 0 13 -13l-5 -30q-3 -14 -16 -14h-184q-14 0 -13 13l5 30q3 14 16 14h49l103 576h-49q-14 0 -13 13l5 30q3 14 16 14h184q14 0 13 -13l-5 -30q-3 -14 -16 -14h-49l-103 -576h49zM181 763q-17 0 -28 9.5t-11 26.5q0 22 15.5 37.5t37.5 15.5q17 0 28 -9.5
t11 -26.5q0 -22 -15.5 -37.5t-37.5 -15.5zM326 763q-17 0 -28 9.5t-11 26.5q0 22 15.5 37.5t37.5 15.5q17 0 28 -9.5t11 -26.5q0 -22 -15.5 -37.5t-37.5 -15.5z" />
    <glyph glyph-name="Imacron" unicode="&#x12a;" horiz-adv-x="328" 
d="M223 57q14 0 13 -13l-5 -30q-3 -14 -16 -14h-184q-14 0 -13 13l5 30q3 14 16 14h49l103 576h-49q-14 0 -13 13l5 30q3 14 16 14h184q14 0 13 -13l-5 -30q-3 -14 -16 -14h-49l-103 -576h49zM359 824q17 0 14 -14l-5 -24q-2 -9 -5.5 -12t-12.5 -3h-186q-17 0 -14 14l5 24
q3 15 17 15h187z" />
    <glyph glyph-name="Ibreve" unicode="&#x12c;" horiz-adv-x="328" 
d="M223 57q14 0 13 -13l-5 -30q-3 -14 -16 -14h-184q-14 0 -13 13l5 30q3 14 16 14h49l103 576h-49q-14 0 -13 13l5 30q3 14 16 14h184q14 0 13 -13l-5 -30q-3 -14 -16 -14h-49l-103 -576h49zM376 842q-16 -44 -48.5 -67.5t-74.5 -23.5q-41 0 -67.5 23.5t-26.5 68.5
q0 17 17 17h22q8 0 11.5 -2.5t4.5 -11.5q5 -45 46 -45q39 0 62 46q4 8 7.5 10.5t13.5 2.5h23q10 0 11 -5.5t-1 -12.5z" />
    <glyph glyph-name="Idotaccent" unicode="&#x130;" horiz-adv-x="328" 
d="M223 57q14 0 13 -13l-5 -30q-3 -14 -16 -14h-184q-14 0 -13 13l5 30q3 14 16 14h49l103 576h-49q-14 0 -13 13l5 30q3 14 16 14h184q14 0 13 -13l-5 -30q-3 -14 -16 -14h-49l-103 -576h49zM253 751q-17 0 -28.5 11t-11.5 29q0 25 16.5 40.5t40.5 15.5q17 0 28.5 -11
t11.5 -29q0 -25 -16.5 -40.5t-40.5 -15.5z" />
    <glyph glyph-name="Iogonek" unicode="&#x12e;" horiz-adv-x="328" 
d="M223 57q14 0 13 -13l-5 -30q-3 -14 -16 -14h-16q-18 -1 -37.5 -11.5t-36 -28t-27.5 -40.5t-11 -49q0 -17 10 -26t27 -9q11 0 21.5 3l17.5 5q8 3 10 0.5t4 -7.5l3 -14q2 -8 -5 -12q-10 -6 -29 -11.5t-38 -5.5q-33 0 -55.5 17.5t-22.5 53.5q0 35 23 74t63 61h-85
q-14 0 -13 13l5 30q3 14 16 14h49l103 576h-49q-14 0 -13 13l5 30q3 14 16 14h184q14 0 13 -13l-5 -30q-3 -14 -16 -14h-49l-103 -576h49z" />
    <glyph glyph-name="IJ" unicode="&#x132;" horiz-adv-x="651" 
d="M223 57q14 0 13 -13l-5 -30q-3 -14 -16 -14h-184q-14 0 -13 13l5 30q3 14 16 14h49l103 576h-49q-14 0 -13 13l5 30q3 14 16 14h184q14 0 13 -13l-5 -30q-3 -14 -16 -14h-49l-103 -576h49zM479 633q-11 0 -14.5 4.5t-1.5 12.5l5 25q2 8 6 11.5t15 3.5h144q12 0 15.5 -4.5
t1.5 -14.5l-81 -451q-12 -68 -28.5 -111.5t-39.5 -69.5t-52 -38t-66 -12q-18 0 -35 3t-30 8q-11 4 -6 17l12 38q4 13 18 9q18 -5 34 -5q21 0 37 7t29 24t22 45t17 70l76 428h-78z" />
    <glyph glyph-name="Jcircumflex" unicode="&#x134;" horiz-adv-x="338" 
d="M166 633q-11 0 -14.5 4.5t-1.5 12.5l5 25q2 8 6 11.5t15 3.5h144q12 0 15.5 -4.5t1.5 -14.5l-81 -451q-12 -68 -28.5 -111.5t-39.5 -69.5t-52 -38t-66 -12q-18 0 -35 3t-30 8q-11 4 -6 17l12 38q4 13 18 9q18 -5 34 -5q21 0 37 7t29 24t22 45t17 70l76 428h-78zM352 746
q-10 -9 -19 2l-62 75l-90 -80q-10 -9 -18 1l-12 14q-7 9 3 19l97 95q7 6 11.5 8t12.5 2h13q6 0 9 -1.5t7 -6.5l67 -96q5 -6 4.5 -9.5t-6.5 -8.5z" />
    <glyph glyph-name="Kcommaaccent" unicode="&#x136;" horiz-adv-x="486" 
d="M123 18q-2 -11 -6.5 -14.5t-14.5 -3.5h-50q-11 0 -14 5t-1 13l117 654q3 18 21 18h50q11 0 14 -5t1 -13l-53 -294h2l237 298q7 8 13.5 11t18.5 3h50q11 0 13 -5.5t-4 -13.5l-263 -322l169 -329q11 -20 -15 -20h-54q-14 0 -20 4t-11 15l-144 302h-2zM259 -92q0 -20 -7 -39
t-19 -36.5t-27.5 -32t-31.5 -26.5q-7 -5 -10.5 -4.5t-7.5 5.5l-5 7q-2 4 -1 6.5t6 6.5q17 14 28.5 30t11.5 30q0 16 -9 26.5t-9 25.5q0 20 13 32t30 12t27.5 -12.5t10.5 -30.5z" />
    <glyph glyph-name="Lacute" unicode="&#x139;" horiz-adv-x="393" 
d="M337 69q11 0 13 -4t0 -12l-7 -37q-2 -11 -6 -13.5t-15 -2.5h-273q-17 0 -14 17l117 655q2 11 6.5 14.5t14.5 3.5h50q11 0 14 -5t1 -13l-108 -603h207zM305 849q5 -7 5 -13t-8 -11l-123 -79q-8 -5 -12 -4t-9 6l-13 17q-6 9 3 17l112 94q16 14 26 -1z" />
    <glyph glyph-name="Lcaron" unicode="&#x13d;" horiz-adv-x="393" 
d="M337 69q11 0 13 -4t0 -12l-7 -37q-2 -11 -6 -13.5t-15 -2.5h-273q-17 0 -14 17l117 655q2 11 6.5 14.5t14.5 3.5h50q11 0 14 -5t1 -13l-108 -603h207zM373 657q0 -20 -7 -39t-19 -36.5t-27.5 -32t-31.5 -26.5q-7 -5 -10.5 -4.5t-7.5 5.5l-5 7q-2 4 -1 6.5t6 6.5
q17 14 28.5 30t11.5 30q0 16 -9 26.5t-9 25.5q0 20 13 32t30 12t27.5 -12.5t10.5 -30.5z" />
    <glyph glyph-name="Lcommaaccent" unicode="&#x13b;" horiz-adv-x="393" 
d="M337 69q11 0 13 -4t0 -12l-7 -37q-2 -11 -6 -13.5t-15 -2.5h-273q-17 0 -14 17l117 655q2 11 6.5 14.5t14.5 3.5h50q11 0 14 -5t1 -13l-108 -603h207zM232 -92q0 -20 -7 -39t-19 -36.5t-27.5 -32t-31.5 -26.5q-7 -5 -10.5 -4.5t-7.5 5.5l-5 7q-2 4 -1 6.5t6 6.5
q17 14 28.5 30t11.5 30q0 16 -9 26.5t-9 25.5q0 20 13 32t30 12t27.5 -12.5t10.5 -30.5z" />
    <glyph glyph-name="Lslash" unicode="&#x141;" horiz-adv-x="393" 
d="M194 426l99 79q8 6 13 3t3 -11l-6 -35q-2 -9 -4 -13.5t-8 -9.5l-111 -88l-50 -282h207q11 0 13 -4t0 -12l-7 -37q-2 -11 -6 -13.5t-15 -2.5h-273q-17 0 -14 17l45 255l-63 -50q-8 -6 -13 -3t-3 11l6 35q2 9 4 13.5t8 9.5l75 59l58 325q2 11 6.5 14.5t14.5 3.5h50
q11 0 14 -5t1 -13z" />
    <glyph glyph-name="Ldot" unicode="&#x13f;" horiz-adv-x="393" 
d="M337 69q11 0 13 -4t0 -12l-7 -37q-2 -11 -6 -13.5t-15 -2.5h-273q-17 0 -14 17l117 655q2 11 6.5 14.5t14.5 3.5h50q11 0 14 -5t1 -13l-108 -603h207zM271 318q-17 0 -28.5 11t-11.5 29q0 25 16.5 40.5t40.5 15.5q17 0 28.5 -11t11.5 -29q0 -25 -16.5 -40.5t-40.5 -15.5z
" />
    <glyph glyph-name="Nacute" unicode="&#x143;" horiz-adv-x="596" 
d="M353 359q29 -75 48 -133t26 -98q0 12 3 38.5t7.5 60.5t10 69.5t10.5 65.5l54 312q2 8 5.5 12t13.5 4h49q17 0 14 -16l-117 -657q-2 -11 -6.5 -14t-14.5 -3h-33q-10 0 -14.5 3t-7.5 11l-126 325q-20 54 -39 111t-30 111q-2 -34 -10 -90t-19 -122l-58 -333q-2 -10 -5.5 -13
t-13.5 -3h-49q-17 0 -14 18l117 655q2 9 5.5 13t14.5 4h33q12 0 16 -3t8 -12zM478 849q5 -7 5 -13t-8 -11l-123 -79q-8 -5 -12 -4t-9 6l-13 17q-6 9 3 17l112 94q16 14 26 -1z" />
    <glyph glyph-name="Ncaron" unicode="&#x147;" horiz-adv-x="596" 
d="M353 359q29 -75 48 -133t26 -98q0 12 3 38.5t7.5 60.5t10 69.5t10.5 65.5l54 312q2 8 5.5 12t13.5 4h49q17 0 14 -16l-117 -657q-2 -11 -6.5 -14t-14.5 -3h-33q-10 0 -14.5 3t-7.5 11l-126 325q-20 54 -39 111t-30 111q-2 -34 -10 -90t-19 -122l-58 -333q-2 -10 -5.5 -13
t-13.5 -3h-49q-17 0 -14 18l117 655q2 9 5.5 13t14.5 4h33q12 0 16 -3t8 -12zM311 872q10 9 19 -2l62 -75l90 80q10 9 18 -1l12 -14q4 -5 3.5 -9t-6.5 -10l-97 -95q-7 -6 -11.5 -8t-12.5 -2h-13q-6 0 -9 1.5t-7 6.5l-67 96q-8 11 2 18z" />
    <glyph glyph-name="Ntilde" unicode="&#xd1;" horiz-adv-x="596" 
d="M353 359q29 -75 48 -133t26 -98q0 12 3 38.5t7.5 60.5t10 69.5t10.5 65.5l54 312q2 8 5.5 12t13.5 4h49q17 0 14 -16l-117 -657q-2 -11 -6.5 -14t-14.5 -3h-33q-10 0 -14.5 3t-7.5 11l-126 325q-20 54 -39 111t-30 111q-2 -34 -10 -90t-19 -122l-58 -333q-2 -10 -5.5 -13
t-13.5 -3h-49q-17 0 -14 18l117 655q2 9 5.5 13t14.5 4h33q12 0 16 -3t8 -12zM437 760q-15 0 -28 5.5t-25 12.5t-23 12.5t-23 5.5t-22.5 -6t-23.5 -18q-10 -10 -18 2l-11 16q-7 12 6 25q15 14 34 24.5t40 10.5q15 0 27.5 -5.5t24.5 -12.5t23.5 -12.5t23.5 -5.5t22.5 6
t23.5 18q10 10 18 -2l11 -16q4 -6 3 -11.5t-9 -13.5q-15 -14 -34 -24.5t-40 -10.5z" />
    <glyph glyph-name="Ncommaaccent" unicode="&#x145;" horiz-adv-x="596" 
d="M353 359q29 -75 48 -133t26 -98q0 12 3 38.5t7.5 60.5t10 69.5t10.5 65.5l54 312q2 8 5.5 12t13.5 4h49q17 0 14 -16l-117 -657q-2 -11 -6.5 -14t-14.5 -3h-33q-10 0 -14.5 3t-7.5 11l-126 325q-20 54 -39 111t-30 111q-2 -34 -10 -90t-19 -122l-58 -333q-2 -10 -5.5 -13
t-13.5 -3h-49q-17 0 -14 18l117 655q2 9 5.5 13t14.5 4h33q12 0 16 -3t8 -12zM303 -92q0 -20 -7 -39t-19 -36.5t-27.5 -32t-31.5 -26.5q-7 -5 -10.5 -4.5t-7.5 5.5l-5 7q-2 4 -1 6.5t6 6.5q17 14 28.5 30t11.5 30q0 16 -9 26.5t-9 25.5q0 20 13 32t30 12t27.5 -12.5
t10.5 -30.5z" />
    <glyph glyph-name="Eng" unicode="&#x14a;" horiz-adv-x="596" 
d="M353 359q29 -75 48 -133t26 -98q0 12 3 38.5t7.5 60.5t10 69.5t10.5 65.5l54 312q2 8 5.5 12t13.5 4h49q17 0 14 -16l-117 -658q-11 -59 -25.5 -101.5t-36 -70t-52 -40.5t-73.5 -13q-14 0 -29 2t-26 7q-10 4 -7 17l6 34q2 7 5 10t11 1q7 -2 16.5 -3t18.5 -1q22 0 38 5.5
t28.5 19.5t21 37.5t15.5 58.5l9 48l-122 312q-20 54 -39 111t-30 111q-2 -34 -10 -90t-19 -122l-58 -333q-2 -10 -5.5 -13t-13.5 -3h-49q-17 0 -14 18l117 655q2 9 5.5 13t14.5 4h33q12 0 16 -3t8 -12z" />
    <glyph glyph-name="Ograve" unicode="&#xd2;" horiz-adv-x="564" 
d="M246 62q31 0 58 18t50 48.5t41 71t31 85.5t19.5 92t6.5 90q0 33 -5.5 62.5t-17 51t-30 34.5t-45.5 13q-31 0 -58 -18t-50 -48.5t-41 -71t-31 -85.5t-19.5 -92t-6.5 -90q0 -33 5.5 -62.5t17 -51t30 -34.5t45.5 -13zM238 -11q-91 0 -136.5 63t-45.5 168q0 51 9 106.5
t26.5 109t43.5 101.5t60 84.5t75.5 58t91.5 21.5q91 0 136.5 -63t45.5 -168q0 -51 -9 -106.5t-26.5 -109t-43.5 -101.5t-60 -84.5t-76 -58t-91 -21.5zM456 782q9 -9 2 -17l-17 -20q-6 -8 -17 0l-106 76q-8 6 -10.5 11.5t4.5 14.5l24 28q12 14 25 1z" />
    <glyph glyph-name="Oacute" unicode="&#xd3;" horiz-adv-x="564" 
d="M246 62q31 0 58 18t50 48.5t41 71t31 85.5t19.5 92t6.5 90q0 33 -5.5 62.5t-17 51t-30 34.5t-45.5 13q-31 0 -58 -18t-50 -48.5t-41 -71t-31 -85.5t-19.5 -92t-6.5 -90q0 -33 5.5 -62.5t17 -51t30 -34.5t45.5 -13zM238 -11q-91 0 -136.5 63t-45.5 168q0 51 9 106.5
t26.5 109t43.5 101.5t60 84.5t75.5 58t91.5 21.5q91 0 136.5 -63t45.5 -168q0 -51 -9 -106.5t-26.5 -109t-43.5 -101.5t-60 -84.5t-76 -58t-91 -21.5zM458 849q5 -7 5 -13t-8 -11l-123 -79q-8 -5 -12 -4t-9 6l-13 17q-6 9 3 17l112 94q16 14 26 -1z" />
    <glyph glyph-name="Ocircumflex" unicode="&#xd4;" horiz-adv-x="564" 
d="M246 62q31 0 58 18t50 48.5t41 71t31 85.5t19.5 92t6.5 90q0 33 -5.5 62.5t-17 51t-30 34.5t-45.5 13q-31 0 -58 -18t-50 -48.5t-41 -71t-31 -85.5t-19.5 -92t-6.5 -90q0 -33 5.5 -62.5t17 -51t30 -34.5t45.5 -13zM238 -11q-91 0 -136.5 63t-45.5 168q0 51 9 106.5
t26.5 109t43.5 101.5t60 84.5t75.5 58t91.5 21.5q91 0 136.5 -63t45.5 -168q0 -51 -9 -106.5t-26.5 -109t-43.5 -101.5t-60 -84.5t-76 -58t-91 -21.5zM464 746q-10 -9 -19 2l-62 75l-90 -80q-10 -9 -18 1l-12 14q-7 9 3 19l97 95q7 6 11.5 8t12.5 2h13q6 0 9 -1.5t7 -6.5
l67 -96q5 -6 4.5 -9.5t-6.5 -8.5z" />
    <glyph glyph-name="Otilde" unicode="&#xd5;" horiz-adv-x="564" 
d="M246 62q31 0 58 18t50 48.5t41 71t31 85.5t19.5 92t6.5 90q0 33 -5.5 62.5t-17 51t-30 34.5t-45.5 13q-31 0 -58 -18t-50 -48.5t-41 -71t-31 -85.5t-19.5 -92t-6.5 -90q0 -33 5.5 -62.5t17 -51t30 -34.5t45.5 -13zM238 -11q-91 0 -136.5 63t-45.5 168q0 51 9 106.5
t26.5 109t43.5 101.5t60 84.5t75.5 58t91.5 21.5q91 0 136.5 -63t45.5 -168q0 -51 -9 -106.5t-26.5 -109t-43.5 -101.5t-60 -84.5t-76 -58t-91 -21.5zM426 760q-15 0 -28 5.5t-25 12.5t-23 12.5t-23 5.5t-22.5 -6t-23.5 -18q-10 -10 -18 2l-11 16q-7 12 6 25q15 14 34 24.5
t40 10.5q15 0 27.5 -5.5t24.5 -12.5t23.5 -12.5t23.5 -5.5t22.5 6t23.5 18q10 10 18 -2l11 -16q4 -6 3 -11.5t-9 -13.5q-15 -14 -34 -24.5t-40 -10.5z" />
    <glyph glyph-name="Odieresis" unicode="&#xd6;" horiz-adv-x="564" 
d="M246 62q31 0 58 18t50 48.5t41 71t31 85.5t19.5 92t6.5 90q0 33 -5.5 62.5t-17 51t-30 34.5t-45.5 13q-31 0 -58 -18t-50 -48.5t-41 -71t-31 -85.5t-19.5 -92t-6.5 -90q0 -33 5.5 -62.5t17 -51t30 -34.5t45.5 -13zM238 -11q-91 0 -136.5 63t-45.5 168q0 51 9 106.5
t26.5 109t43.5 101.5t60 84.5t75.5 58t91.5 21.5q91 0 136.5 -63t45.5 -168q0 -51 -9 -106.5t-26.5 -109t-43.5 -101.5t-60 -84.5t-76 -58t-91 -21.5zM302 763q-17 0 -28 9.5t-11 26.5q0 22 15.5 37.5t37.5 15.5q17 0 28 -9.5t11 -26.5q0 -22 -15.5 -37.5t-37.5 -15.5z
M447 763q-17 0 -28 9.5t-11 26.5q0 22 15.5 37.5t37.5 15.5q17 0 28 -9.5t11 -26.5q0 -22 -15.5 -37.5t-37.5 -15.5z" />
    <glyph glyph-name="Omacron" unicode="&#x14c;" horiz-adv-x="564" 
d="M246 62q31 0 58 18t50 48.5t41 71t31 85.5t19.5 92t6.5 90q0 33 -5.5 62.5t-17 51t-30 34.5t-45.5 13q-31 0 -58 -18t-50 -48.5t-41 -71t-31 -85.5t-19.5 -92t-6.5 -90q0 -33 5.5 -62.5t17 -51t30 -34.5t45.5 -13zM238 -11q-91 0 -136.5 63t-45.5 168q0 51 9 106.5
t26.5 109t43.5 101.5t60 84.5t75.5 58t91.5 21.5q91 0 136.5 -63t45.5 -168q0 -51 -9 -106.5t-26.5 -109t-43.5 -101.5t-60 -84.5t-76 -58t-91 -21.5zM480 824q17 0 14 -14l-5 -24q-2 -9 -5.5 -12t-12.5 -3h-186q-17 0 -14 14l5 24q3 15 17 15h187z" />
    <glyph glyph-name="Obreve" unicode="&#x14e;" horiz-adv-x="564" 
d="M246 62q31 0 58 18t50 48.5t41 71t31 85.5t19.5 92t6.5 90q0 33 -5.5 62.5t-17 51t-30 34.5t-45.5 13q-31 0 -58 -18t-50 -48.5t-41 -71t-31 -85.5t-19.5 -92t-6.5 -90q0 -33 5.5 -62.5t17 -51t30 -34.5t45.5 -13zM238 -11q-91 0 -136.5 63t-45.5 168q0 51 9 106.5
t26.5 109t43.5 101.5t60 84.5t75.5 58t91.5 21.5q91 0 136.5 -63t45.5 -168q0 -51 -9 -106.5t-26.5 -109t-43.5 -101.5t-60 -84.5t-76 -58t-91 -21.5zM491 842q-16 -44 -48.5 -67.5t-74.5 -23.5q-41 0 -67.5 23.5t-26.5 68.5q0 17 17 17h22q8 0 11.5 -2.5t4.5 -11.5
q5 -45 46 -45q39 0 62 46q4 8 7.5 10.5t13.5 2.5h23q10 0 11 -5.5t-1 -12.5z" />
    <glyph glyph-name="Ohungarumlaut" unicode="&#x150;" horiz-adv-x="564" 
d="M246 62q31 0 58 18t50 48.5t41 71t31 85.5t19.5 92t6.5 90q0 33 -5.5 62.5t-17 51t-30 34.5t-45.5 13q-31 0 -58 -18t-50 -48.5t-41 -71t-31 -85.5t-19.5 -92t-6.5 -90q0 -33 5.5 -62.5t17 -51t30 -34.5t45.5 -13zM238 -11q-91 0 -136.5 63t-45.5 168q0 51 9 106.5
t26.5 109t43.5 101.5t60 84.5t75.5 58t91.5 21.5q91 0 136.5 -63t45.5 -168q0 -51 -9 -106.5t-26.5 -109t-43.5 -101.5t-60 -84.5t-76 -58t-91 -21.5zM389 848q8 -13 -7 -22l-133 -78q-8 -5 -11.5 -4t-6.5 6l-9 14q-3 5 -2 9t9 10l121 92q15 13 24 -2zM549 848q8 -13 -7 -22
l-133 -78q-8 -5 -11.5 -4t-6.5 6l-9 14q-3 5 -2 9t9 10l121 92q15 13 24 -2z" />
    <glyph glyph-name="Oslash" unicode="&#xd8;" horiz-adv-x="564" 
d="M238 -11q-71 0 -116 40l-42 -65q-9 -13 -19 -4l-25 18q-10 7 -2 19l52 79q-30 57 -30 144q0 51 9 106.5t26.5 109t43.5 101.5t60 84.5t75.5 58t91.5 21.5q33 0 60.5 -9t48.5 -26l46 70q9 13 19 4l25 -18q10 -7 2 -19l-54 -82q35 -59 35 -151q0 -51 -9 -106.5t-26.5 -109
t-43.5 -101.5t-60 -84.5t-76 -58t-91 -21.5zM246 62q31 0 58 18t50 48.5t41 71t31 85.5t19.5 92t6.5 90q0 15 -1.5 29.5t-3.5 28.5l-275 -420q25 -43 74 -43zM148 223q0 -25 3 -47l272 416q-12 17 -29 26.5t-40 9.5q-31 0 -58 -18t-50 -48.5t-41 -71t-31 -85.5t-19.5 -92
t-6.5 -90z" />
    <glyph glyph-name="Oslashacute" unicode="&#x1fe;" horiz-adv-x="564" 
d="M238 -11q-71 0 -116 40l-42 -65q-9 -13 -19 -4l-25 18q-10 7 -2 19l52 79q-30 57 -30 144q0 51 9 106.5t26.5 109t43.5 101.5t60 84.5t75.5 58t91.5 21.5q33 0 60.5 -9t48.5 -26l46 70q9 13 19 4l25 -18q10 -7 2 -19l-54 -82q35 -59 35 -151q0 -51 -9 -106.5t-26.5 -109
t-43.5 -101.5t-60 -84.5t-76 -58t-91 -21.5zM246 62q31 0 58 18t50 48.5t41 71t31 85.5t19.5 92t6.5 90q0 15 -1.5 29.5t-3.5 28.5l-275 -420q25 -43 74 -43zM148 223q0 -25 3 -47l272 416q-12 17 -29 26.5t-40 9.5q-31 0 -58 -18t-50 -48.5t-41 -71t-31 -85.5t-19.5 -92
t-6.5 -90zM458 849q5 -7 5 -13t-8 -11l-123 -79q-8 -5 -12 -4t-9 6l-13 17q-6 9 3 17l112 94q16 14 26 -1z" />
    <glyph glyph-name="OE" unicode="&#x152;" horiz-adv-x="769" 
d="M222 -13q-40 0 -71 17t-52 48t-32 73t-11 93q0 78 20.5 162t59.5 156q16 30 38.5 59t50 52.5t61 37.5t72.5 14q40 0 69.5 -20.5t47.5 -50.5l8 43q2 11 6.5 14t14.5 3h286q10 0 12 -3.5t0 -11.5l-12 -43q-2 -7 -6 -9t-13 -2h-211l-41 -228h187q11 0 13 -4.5t0 -12.5
l-7 -37q-2 -10 -6 -12.5t-15 -2.5h-185l-45 -255h219q11 0 13 -4t0 -12l-7 -37q-2 -11 -6 -13.5t-15 -2.5h-285q-17 0 -14 17l8 45q-29 -32 -68.5 -52.5t-83.5 -20.5zM243 60q20 0 40.5 7.5t39.5 20t36 29t31 34.5l72 402q-40 73 -104 73q-30 0 -55 -14.5t-44.5 -37
t-34.5 -50.5t-26 -55q-23 -57 -36.5 -122.5t-13.5 -125.5q0 -34 5 -63.5t16.5 -51t29.5 -34t44 -12.5z" />
    <glyph glyph-name="Thorn" unicode="&#xde;" horiz-adv-x="480" 
d="M303 510q-26 0 -54 -17t-50 -40l-40 -221q13 -22 34.5 -35t44.5 -13q31 0 56.5 20.5t43 52t27 69.5t9.5 73q0 53 -18 82t-53 29zM153 666q2 9 6 12t14 5l47 6q21 3 18 -14l-26 -150q25 22 55 36t63 14t58 -13t41.5 -35.5t25 -53.5t8.5 -66q0 -54 -16 -105.5t-45 -92
t-69 -65t-88 -24.5q-31 0 -57 13t-40 31l-27 -148q-3 -16 -17 -16h-54q-16 0 -13 17z" />
    <glyph glyph-name="Racute" unicode="&#x154;" horiz-adv-x="480" 
d="M469 520q0 -52 -19.5 -95.5t-52.5 -75.5q-34 -33 -80 -51l84 -279q5 -19 -15 -19h-50q-11 0 -15 3t-7 12l-76 264q-24 -3 -51 -3h-19l-45 -258q-3 -18 -21 -18h-50q-11 0 -14 5t-1 13l116 655q2 9 5.5 13t14.5 4h88q115 0 164 -49q44 -42 44 -121zM179 344h14
q48 0 80.5 12t55.5 34q25 23 38.5 57t13.5 75q0 46 -25 71q-15 14 -39.5 21.5t-62.5 7.5h-25zM404 849q5 -7 5 -13t-8 -11l-123 -79q-8 -5 -12 -4t-9 6l-13 17q-6 9 3 17l112 94q16 14 26 -1z" />
    <glyph glyph-name="Rcaron" unicode="&#x158;" horiz-adv-x="480" 
d="M469 520q0 -52 -19.5 -95.5t-52.5 -75.5q-34 -33 -80 -51l84 -279q5 -19 -15 -19h-50q-11 0 -15 3t-7 12l-76 264q-24 -3 -51 -3h-19l-45 -258q-3 -18 -21 -18h-50q-11 0 -14 5t-1 13l116 655q2 9 5.5 13t14.5 4h88q115 0 164 -49q44 -42 44 -121zM179 344h14
q48 0 80.5 12t55.5 34q25 23 38.5 57t13.5 75q0 46 -25 71q-15 14 -39.5 21.5t-62.5 7.5h-25zM244 872q10 9 19 -2l62 -75l90 80q10 9 18 -1l12 -14q4 -5 3.5 -9t-6.5 -10l-97 -95q-7 -6 -11.5 -8t-12.5 -2h-13q-6 0 -9 1.5t-7 6.5l-67 96q-8 11 2 18z" />
    <glyph glyph-name="Rcommaaccent" unicode="&#x156;" horiz-adv-x="480" 
d="M469 520q0 -52 -19.5 -95.5t-52.5 -75.5q-34 -33 -80 -51l84 -279q5 -19 -15 -19h-50q-11 0 -15 3t-7 12l-76 264q-24 -3 -51 -3h-19l-45 -258q-3 -18 -21 -18h-50q-11 0 -14 5t-1 13l116 655q2 9 5.5 13t14.5 4h88q115 0 164 -49q44 -42 44 -121zM179 344h14
q48 0 80.5 12t55.5 34q25 23 38.5 57t13.5 75q0 46 -25 71q-15 14 -39.5 21.5t-62.5 7.5h-25zM247 -92q0 -20 -7 -39t-19 -36.5t-27.5 -32t-31.5 -26.5q-7 -5 -10.5 -4.5t-7.5 5.5l-5 7q-2 4 -1 6.5t6 6.5q17 14 28.5 30t11.5 30q0 16 -9 26.5t-9 25.5q0 20 13 32t30 12
t27.5 -12.5t10.5 -30.5z" />
    <glyph glyph-name="Sacute" unicode="&#x15a;" horiz-adv-x="446" 
d="M437 615q-6 -13 -22 -6q-24 11 -46 16.5t-48 5.5q-28 0 -50.5 -9t-38 -25t-24 -37t-8.5 -45q0 -29 14 -53t35 -47t46 -45.5t46 -48.5t35 -56t14 -67q0 -43 -16.5 -81t-46.5 -66.5t-70.5 -45t-88.5 -16.5q-42 0 -79 11t-61 26q-11 7 -5 21l15 32q5 11 10 12.5t13 -3.5
q23 -13 52.5 -21t54.5 -8q29 0 54 10.5t43.5 28t29 41.5t10.5 51q0 30 -14 54t-35 46.5t-46 44t-46 47t-35 55.5t-14 69t14.5 74t41.5 62t65.5 43t86.5 16q40 0 71.5 -10t52.5 -23q11 -6 5 -20zM415 849q5 -7 5 -13t-8 -11l-123 -79q-8 -5 -12 -4t-9 6l-13 17q-6 9 3 17
l112 94q16 14 26 -1z" />
    <glyph glyph-name="Scircumflex" unicode="&#x15c;" horiz-adv-x="446" 
d="M437 615q-6 -13 -22 -6q-24 11 -46 16.5t-48 5.5q-28 0 -50.5 -9t-38 -25t-24 -37t-8.5 -45q0 -29 14 -53t35 -47t46 -45.5t46 -48.5t35 -56t14 -67q0 -43 -16.5 -81t-46.5 -66.5t-70.5 -45t-88.5 -16.5q-42 0 -79 11t-61 26q-11 7 -5 21l15 32q5 11 10 12.5t13 -3.5
q23 -13 52.5 -21t54.5 -8q29 0 54 10.5t43.5 28t29 41.5t10.5 51q0 30 -14 54t-35 46.5t-46 44t-46 47t-35 55.5t-14 69t14.5 74t41.5 62t65.5 43t86.5 16q40 0 71.5 -10t52.5 -23q11 -6 5 -20zM417 746q-10 -9 -19 2l-62 75l-90 -80q-10 -9 -18 1l-12 14q-7 9 3 19l97 95
q7 6 11.5 8t12.5 2h13q6 0 9 -1.5t7 -6.5l67 -96q5 -6 4.5 -9.5t-6.5 -8.5z" />
    <glyph glyph-name="Scaron" unicode="&#x160;" horiz-adv-x="446" 
d="M437 615q-6 -13 -22 -6q-24 11 -46 16.5t-48 5.5q-28 0 -50.5 -9t-38 -25t-24 -37t-8.5 -45q0 -29 14 -53t35 -47t46 -45.5t46 -48.5t35 -56t14 -67q0 -43 -16.5 -81t-46.5 -66.5t-70.5 -45t-88.5 -16.5q-42 0 -79 11t-61 26q-11 7 -5 21l15 32q5 11 10 12.5t13 -3.5
q23 -13 52.5 -21t54.5 -8q29 0 54 10.5t43.5 28t29 41.5t10.5 51q0 30 -14 54t-35 46.5t-46 44t-46 47t-35 55.5t-14 69t14.5 74t41.5 62t65.5 43t86.5 16q40 0 71.5 -10t52.5 -23q11 -6 5 -20zM254 872q10 9 19 -2l62 -75l90 80q10 9 18 -1l12 -14q4 -5 3.5 -9t-6.5 -10
l-97 -95q-7 -6 -11.5 -8t-12.5 -2h-13q-6 0 -9 1.5t-7 6.5l-67 96q-8 11 2 18z" />
    <glyph glyph-name="Scedilla" unicode="&#x15e;" horiz-adv-x="446" 
d="M253 -111q0 -37 -27.5 -64.5t-72.5 -27.5q-15 0 -28.5 2.5t-23.5 6.5q-7 2 -8 6t1 10l5 17q3 10 14 7q10 -3 19.5 -4.5t17.5 -1.5q21 0 34 13.5t13 29.5q0 12 -10 19.5t-41 12.5q-15 2 -16.5 9.5t1.5 19.5l13 46q-35 3 -64.5 12.5t-51.5 23.5q-6 4 -7.5 8.5t2.5 12.5
l15 32q8 17 23 9q23 -13 52.5 -21t54.5 -8q29 0 54 10.5t43.5 28t29 41.5t10.5 51q0 30 -14 54t-35 46.5t-46 44t-46 47t-35 55.5t-14 69t14.5 74t41.5 62t65.5 43t86.5 16q40 0 71.5 -10t52.5 -23q11 -6 5 -20l-15 -33q-6 -13 -22 -6q-24 11 -46 16.5t-48 5.5
q-28 0 -50.5 -9t-38 -25t-24 -37t-8.5 -45q0 -29 14 -53t35 -47t46 -45.5t46 -48.5t35 -56t14 -67q0 -41 -15 -77t-41.5 -64t-63 -45.5t-80.5 -21.5l-9 -39q35 -5 53.5 -20.5t18.5 -41.5z" />
    <glyph glyph-name="Scommaaccent" unicode="&#x218;" horiz-adv-x="446" 
d="M437 615q-6 -13 -22 -6q-24 11 -46 16.5t-48 5.5q-28 0 -50.5 -9t-38 -25t-24 -37t-8.5 -45q0 -29 14 -53t35 -47t46 -45.5t46 -48.5t35 -56t14 -67q0 -43 -16.5 -81t-46.5 -66.5t-70.5 -45t-88.5 -16.5q-42 0 -79 11t-61 26q-11 7 -5 21l15 32q5 11 10 12.5t13 -3.5
q23 -13 52.5 -21t54.5 -8q29 0 54 10.5t43.5 28t29 41.5t10.5 51q0 30 -14 54t-35 46.5t-46 44t-46 47t-35 55.5t-14 69t14.5 74t41.5 62t65.5 43t86.5 16q40 0 71.5 -10t52.5 -23q11 -6 5 -20zM207 -92q0 -20 -7 -39t-19 -36.5t-27.5 -32t-31.5 -26.5q-7 -5 -10.5 -4.5
t-7.5 5.5l-5 7q-2 4 -1 6.5t6 6.5q17 14 28.5 30t11.5 30q0 16 -9 26.5t-9 25.5q0 20 13 32t30 12t27.5 -12.5t10.5 -30.5z" />
    <glyph glyph-name="Tcaron" unicode="&#x164;" horiz-adv-x="442" 
d="M508 690q10 0 12 -3.5t0 -11.5l-12 -43q-2 -7 -6 -9t-13 -2h-150l-108 -603q-3 -18 -21 -18h-50q-11 0 -14 5t-1 13l108 603h-159q-11 0 -13 4t0 12l7 37q2 11 6 13.5t15 2.5h399zM238 872q10 9 19 -2l62 -75l90 80q10 9 18 -1l12 -14q4 -5 3.5 -9t-6.5 -10l-97 -95
q-7 -6 -11.5 -8t-12.5 -2h-13q-6 0 -9 1.5t-7 6.5l-67 96q-8 11 2 18z" />
    <glyph glyph-name="Tcommaaccent" unicode="&#x162;" horiz-adv-x="442" 
d="M508 690q10 0 12 -3.5t0 -11.5l-12 -43q-2 -7 -6 -9t-13 -2h-150l-108 -603q-3 -18 -21 -18h-50q-11 0 -14 5t-1 13l108 603h-159q-11 0 -13 4t0 12l7 37q2 11 6 13.5t15 2.5h399zM214 -92q0 -20 -7 -39t-19 -36.5t-27.5 -32t-31.5 -26.5q-7 -5 -10.5 -4.5t-7.5 5.5l-5 7
q-2 4 -1 6.5t6 6.5q17 14 28.5 30t11.5 30q0 16 -9 26.5t-9 25.5q0 20 13 32t30 12t27.5 -12.5t10.5 -30.5z" />
    <glyph glyph-name="uni021A" unicode="&#x21a;" horiz-adv-x="442" 
d="M508 690q10 0 12 -3.5t0 -11.5l-12 -43q-2 -7 -6 -9t-13 -2h-150l-108 -603q-3 -18 -21 -18h-50q-11 0 -14 5t-1 13l108 603h-159q-11 0 -13 4t0 12l7 37q2 11 6 13.5t15 2.5h399zM214 -92q0 -20 -7 -39t-19 -36.5t-27.5 -32t-31.5 -26.5q-7 -5 -10.5 -4.5t-7.5 5.5l-5 7
q-2 4 -1 6.5t6 6.5q17 14 28.5 30t11.5 30q0 16 -9 26.5t-9 25.5q0 20 13 32t30 12t27.5 -12.5t10.5 -30.5z" />
    <glyph glyph-name="Tbar" unicode="&#x166;" horiz-adv-x="442" 
d="M508 690q10 0 12 -3.5t0 -11.5l-12 -43q-2 -7 -6 -9t-13 -2h-150l-43 -240h87q17 0 14 -14l-3 -20q-2 -9 -5.5 -12t-12.5 -3h-89l-56 -314q-3 -18 -21 -18h-50q-11 0 -14 5t-1 13l56 314h-86q-17 0 -14 14l3 20q3 15 17 15h89l43 240h-159q-11 0 -13 4t0 12l7 37
q2 11 6 13.5t15 2.5h399z" />
    <glyph glyph-name="Ugrave" unicode="&#xd9;" horiz-adv-x="587" 
d="M152 672q3 18 21 18h49q11 0 14 -5t1 -13l-62 -347q-9 -51 -14 -85t-5 -63q0 -53 26.5 -84t77.5 -31q67 0 109 54q23 31 39 79t30 123l64 354q3 18 21 18h50q11 0 14 -5t1 -13l-67 -376q-15 -85 -39 -143t-58 -94q-66 -70 -170 -70q-88 0 -136.5 46.5t-48.5 133.5
q0 26 5 61t13 78zM457 782q9 -9 2 -17l-17 -20q-6 -8 -17 0l-106 76q-8 6 -10.5 11.5t4.5 14.5l24 28q12 14 25 1z" />
    <glyph glyph-name="Uacute" unicode="&#xda;" horiz-adv-x="587" 
d="M152 672q3 18 21 18h49q11 0 14 -5t1 -13l-62 -347q-9 -51 -14 -85t-5 -63q0 -53 26.5 -84t77.5 -31q67 0 109 54q23 31 39 79t30 123l64 354q3 18 21 18h50q11 0 14 -5t1 -13l-67 -376q-15 -85 -39 -143t-58 -94q-66 -70 -170 -70q-88 0 -136.5 46.5t-48.5 133.5
q0 26 5 61t13 78zM472 849q5 -7 5 -13t-8 -11l-123 -79q-8 -5 -12 -4t-9 6l-13 17q-6 9 3 17l112 94q16 14 26 -1z" />
    <glyph glyph-name="Ucircumflex" unicode="&#xdb;" horiz-adv-x="587" 
d="M152 672q3 18 21 18h49q11 0 14 -5t1 -13l-62 -347q-9 -51 -14 -85t-5 -63q0 -53 26.5 -84t77.5 -31q67 0 109 54q23 31 39 79t30 123l64 354q3 18 21 18h50q11 0 14 -5t1 -13l-67 -376q-15 -85 -39 -143t-58 -94q-66 -70 -170 -70q-88 0 -136.5 46.5t-48.5 133.5
q0 26 5 61t13 78zM470 746q-10 -9 -19 2l-62 75l-90 -80q-10 -9 -18 1l-12 14q-7 9 3 19l97 95q7 6 11.5 8t12.5 2h13q6 0 9 -1.5t7 -6.5l67 -96q5 -6 4.5 -9.5t-6.5 -8.5z" />
    <glyph glyph-name="Utilde" unicode="&#x168;" horiz-adv-x="587" 
d="M152 672q3 18 21 18h49q11 0 14 -5t1 -13l-62 -347q-9 -51 -14 -85t-5 -63q0 -53 26.5 -84t77.5 -31q67 0 109 54q23 31 39 79t30 123l64 354q3 18 21 18h50q11 0 14 -5t1 -13l-67 -376q-15 -85 -39 -143t-58 -94q-66 -70 -170 -70q-88 0 -136.5 46.5t-48.5 133.5
q0 26 5 61t13 78zM434 760q-15 0 -28 5.5t-25 12.5t-23 12.5t-23 5.5t-22.5 -6t-23.5 -18q-10 -10 -18 2l-11 16q-7 12 6 25q15 14 34 24.5t40 10.5q15 0 27.5 -5.5t24.5 -12.5t23.5 -12.5t23.5 -5.5t22.5 6t23.5 18q10 10 18 -2l11 -16q4 -6 3 -11.5t-9 -13.5
q-15 -14 -34 -24.5t-40 -10.5z" />
    <glyph glyph-name="Udieresis" unicode="&#xdc;" horiz-adv-x="587" 
d="M152 672q3 18 21 18h49q11 0 14 -5t1 -13l-62 -347q-9 -51 -14 -85t-5 -63q0 -53 26.5 -84t77.5 -31q67 0 109 54q23 31 39 79t30 123l64 354q3 18 21 18h50q11 0 14 -5t1 -13l-67 -376q-15 -85 -39 -143t-58 -94q-66 -70 -170 -70q-88 0 -136.5 46.5t-48.5 133.5
q0 26 5 61t13 78zM309 763q-17 0 -28 9.5t-11 26.5q0 22 15.5 37.5t37.5 15.5q17 0 28 -9.5t11 -26.5q0 -22 -15.5 -37.5t-37.5 -15.5zM454 763q-17 0 -28 9.5t-11 26.5q0 22 15.5 37.5t37.5 15.5q17 0 28 -9.5t11 -26.5q0 -22 -15.5 -37.5t-37.5 -15.5z" />
    <glyph glyph-name="Umacron" unicode="&#x16a;" horiz-adv-x="587" 
d="M152 672q3 18 21 18h49q11 0 14 -5t1 -13l-62 -347q-9 -51 -14 -85t-5 -63q0 -53 26.5 -84t77.5 -31q67 0 109 54q23 31 39 79t30 123l64 354q3 18 21 18h50q11 0 14 -5t1 -13l-67 -376q-15 -85 -39 -143t-58 -94q-66 -70 -170 -70q-88 0 -136.5 46.5t-48.5 133.5
q0 26 5 61t13 78zM484 824q17 0 14 -14l-5 -24q-2 -9 -5.5 -12t-12.5 -3h-186q-17 0 -14 14l5 24q3 15 17 15h187z" />
    <glyph glyph-name="Ubreve" unicode="&#x16c;" horiz-adv-x="587" 
d="M152 672q3 18 21 18h49q11 0 14 -5t1 -13l-62 -347q-9 -51 -14 -85t-5 -63q0 -53 26.5 -84t77.5 -31q67 0 109 54q23 31 39 79t30 123l64 354q3 18 21 18h50q11 0 14 -5t1 -13l-67 -376q-15 -85 -39 -143t-58 -94q-66 -70 -170 -70q-88 0 -136.5 46.5t-48.5 133.5
q0 26 5 61t13 78zM502 842q-16 -44 -48.5 -67.5t-74.5 -23.5q-41 0 -67.5 23.5t-26.5 68.5q0 17 17 17h22q8 0 11.5 -2.5t4.5 -11.5q5 -45 46 -45q39 0 62 46q4 8 7.5 10.5t13.5 2.5h23q10 0 11 -5.5t-1 -12.5z" />
    <glyph glyph-name="Uring" unicode="&#x16e;" horiz-adv-x="587" 
d="M152 672q3 18 21 18h49q11 0 14 -5t1 -13l-62 -347q-9 -51 -14 -85t-5 -63q0 -53 26.5 -84t77.5 -31q67 0 109 54q23 31 39 79t30 123l64 354q3 18 21 18h50q11 0 14 -5t1 -13l-67 -376q-15 -85 -39 -143t-58 -94q-66 -70 -170 -70q-88 0 -136.5 46.5t-48.5 133.5
q0 26 5 61t13 78zM381 782q15 0 27.5 11t12.5 29q0 13 -8.5 20t-19.5 7q-15 0 -27.5 -11t-12.5 -29q0 -13 8.5 -20t19.5 -7zM375 741q-27 0 -46 18.5t-19 45.5q0 18 7.5 33.5t20 27t28.5 18t33 6.5q27 0 46 -18.5t19 -45.5q0 -18 -7.5 -33.5t-20 -27t-28.5 -18t-33 -6.5z
" />
    <glyph glyph-name="Uhungarumlaut" unicode="&#x170;" horiz-adv-x="587" 
d="M152 672q3 18 21 18h49q11 0 14 -5t1 -13l-62 -347q-9 -51 -14 -85t-5 -63q0 -53 26.5 -84t77.5 -31q67 0 109 54q23 31 39 79t30 123l64 354q3 18 21 18h50q11 0 14 -5t1 -13l-67 -376q-15 -85 -39 -143t-58 -94q-66 -70 -170 -70q-88 0 -136.5 46.5t-48.5 133.5
q0 26 5 61t13 78zM391 848q8 -13 -7 -22l-133 -78q-8 -5 -11.5 -4t-6.5 6l-9 14q-3 5 -2 9t9 10l121 92q15 13 24 -2zM551 848q8 -13 -7 -22l-133 -78q-8 -5 -11.5 -4t-6.5 6l-9 14q-3 5 -2 9t9 10l121 92q15 13 24 -2z" />
    <glyph glyph-name="Uogonek" unicode="&#x172;" horiz-adv-x="587" 
d="M152 672q3 18 21 18h49q11 0 14 -5t1 -13l-62 -347q-9 -51 -14 -85t-5 -63q0 -53 26.5 -84t77.5 -31q67 0 109 54q23 31 39 79t30 123l64 354q3 18 21 18h50q11 0 14 -5t1 -13l-67 -376q-15 -85 -39 -141.5t-60 -90.5q-24 -23 -52 -47t-52 -48t-40 -48t-16 -47
q0 -20 10 -29t27 -9q11 0 21.5 3l17.5 5q8 3 10 0.5t4 -7.5l3 -14q2 -8 -5 -12q-10 -6 -29 -11.5t-38 -5.5q-33 0 -55.5 17.5t-22.5 53.5q0 31 19.5 65t52.5 60q-5 0 -11 -0.5t-12 -0.5q-88 0 -136.5 46.5t-48.5 133.5q0 26 5 61t13 78z" />
    <glyph glyph-name="Wgrave" unicode="&#x1e80;" horiz-adv-x="738" 
d="M472 690q18 0 18 -16l11 -346q1 -25 1 -55t-1 -60t-2 -58t-3 -50q14 55 33.5 116t42.5 119l130 335q4 10 9 12.5t16 2.5h47q18 0 11 -15l-268 -659q-4 -10 -9.5 -13t-16.5 -3h-39q-10 0 -14 3t-5 14l-11 306q-2 68 -2 129.5t4 120.5q-13 -49 -34.5 -115t-46.5 -129
l-122 -310q-5 -11 -9 -15t-15 -4h-42q-11 0 -14 4t-4 15l-34 653q-1 11 4 14.5t14 3.5h48q11 0 15 -2.5t5 -12.5l13 -334q2 -63 2 -117t-4 -118q13 51 31.5 112t41.5 119l131 337q4 9 8.5 12.5t15.5 3.5h44zM536 782q9 -9 2 -17l-17 -20q-6 -8 -17 0l-106 76
q-8 6 -10.5 11.5t4.5 14.5l24 28q12 14 25 1z" />
    <glyph glyph-name="Wacute" unicode="&#x1e82;" horiz-adv-x="738" 
d="M472 690q18 0 18 -16l11 -346q1 -25 1 -55t-1 -60t-2 -58t-3 -50q14 55 33.5 116t42.5 119l130 335q4 10 9 12.5t16 2.5h47q18 0 11 -15l-268 -659q-4 -10 -9.5 -13t-16.5 -3h-39q-10 0 -14 3t-5 14l-11 306q-2 68 -2 129.5t4 120.5q-13 -49 -34.5 -115t-46.5 -129
l-122 -310q-5 -11 -9 -15t-15 -4h-42q-11 0 -14 4t-4 15l-34 653q-1 11 4 14.5t14 3.5h48q11 0 15 -2.5t5 -12.5l13 -334q2 -63 2 -117t-4 -118q13 51 31.5 112t41.5 119l131 337q4 9 8.5 12.5t15.5 3.5h44zM545 849q5 -7 5 -13t-8 -11l-123 -79q-8 -5 -12 -4t-9 6l-13 17
q-6 9 3 17l112 94q16 14 26 -1z" />
    <glyph glyph-name="Wcircumflex" unicode="&#x174;" horiz-adv-x="738" 
d="M472 690q18 0 18 -16l11 -346q1 -25 1 -55t-1 -60t-2 -58t-3 -50q14 55 33.5 116t42.5 119l130 335q4 10 9 12.5t16 2.5h47q18 0 11 -15l-268 -659q-4 -10 -9.5 -13t-16.5 -3h-39q-10 0 -14 3t-5 14l-11 306q-2 68 -2 129.5t4 120.5q-13 -49 -34.5 -115t-46.5 -129
l-122 -310q-5 -11 -9 -15t-15 -4h-42q-11 0 -14 4t-4 15l-34 653q-1 11 4 14.5t14 3.5h48q11 0 15 -2.5t5 -12.5l13 -334q2 -63 2 -117t-4 -118q13 51 31.5 112t41.5 119l131 337q4 9 8.5 12.5t15.5 3.5h44zM550 746q-10 -9 -19 2l-62 75l-90 -80q-10 -9 -18 1l-12 14
q-7 9 3 19l97 95q7 6 11.5 8t12.5 2h13q6 0 9 -1.5t7 -6.5l67 -96q5 -6 4.5 -9.5t-6.5 -8.5z" />
    <glyph glyph-name="Wdieresis" unicode="&#x1e84;" horiz-adv-x="738" 
d="M472 690q18 0 18 -16l11 -346q1 -25 1 -55t-1 -60t-2 -58t-3 -50q14 55 33.5 116t42.5 119l130 335q4 10 9 12.5t16 2.5h47q18 0 11 -15l-268 -659q-4 -10 -9.5 -13t-16.5 -3h-39q-10 0 -14 3t-5 14l-11 306q-2 68 -2 129.5t4 120.5q-13 -49 -34.5 -115t-46.5 -129
l-122 -310q-5 -11 -9 -15t-15 -4h-42q-11 0 -14 4t-4 15l-34 653q-1 11 4 14.5t14 3.5h48q11 0 15 -2.5t5 -12.5l13 -334q2 -63 2 -117t-4 -118q13 51 31.5 112t41.5 119l131 337q4 9 8.5 12.5t15.5 3.5h44zM384 763q-17 0 -28 9.5t-11 26.5q0 22 15.5 37.5t37.5 15.5
q17 0 28 -9.5t11 -26.5q0 -22 -15.5 -37.5t-37.5 -15.5zM529 763q-17 0 -28 9.5t-11 26.5q0 22 15.5 37.5t37.5 15.5q17 0 28 -9.5t11 -26.5q0 -22 -15.5 -37.5t-37.5 -15.5z" />
    <glyph glyph-name="Ygrave" unicode="&#x1ef2;" horiz-adv-x="456" 
d="M279 280l-46 -262q-3 -18 -21 -18h-50q-11 0 -14 5t-1 13l47 262l-93 394q-3 16 15 16h55q10 0 13 -3t5 -10l39 -174q14 -61 20 -100t6 -62q8 20 18.5 44t21.5 47.5t22 45t20 36.5l92 162q5 9 9.5 11.5t15.5 2.5h47q18 0 10 -15zM381 782q9 -9 2 -17l-17 -20q-6 -8 -17 0
l-106 76q-8 6 -10.5 11.5t4.5 14.5l24 28q12 14 25 1z" />
    <glyph glyph-name="Yacute" unicode="&#xdd;" horiz-adv-x="456" 
d="M279 280l-46 -262q-3 -18 -21 -18h-50q-11 0 -14 5t-1 13l47 262l-93 394q-3 16 15 16h55q10 0 13 -3t5 -10l39 -174q14 -61 20 -100t6 -62q8 20 18.5 44t21.5 47.5t22 45t20 36.5l92 162q5 9 9.5 11.5t15.5 2.5h47q18 0 10 -15zM410 849q5 -7 5 -13t-8 -11l-123 -79
q-8 -5 -12 -4t-9 6l-13 17q-6 9 3 17l112 94q16 14 26 -1z" />
    <glyph glyph-name="Ycircumflex" unicode="&#x176;" horiz-adv-x="456" 
d="M279 280l-46 -262q-3 -18 -21 -18h-50q-11 0 -14 5t-1 13l47 262l-93 394q-3 16 15 16h55q10 0 13 -3t5 -10l39 -174q14 -61 20 -100t6 -62q8 20 18.5 44t21.5 47.5t22 45t20 36.5l92 162q5 9 9.5 11.5t15.5 2.5h47q18 0 10 -15zM408 746q-10 -9 -19 2l-62 75l-90 -80
q-10 -9 -18 1l-12 14q-7 9 3 19l97 95q7 6 11.5 8t12.5 2h13q6 0 9 -1.5t7 -6.5l67 -96q5 -6 4.5 -9.5t-6.5 -8.5z" />
    <glyph glyph-name="Ydieresis" unicode="&#x178;" horiz-adv-x="456" 
d="M279 280l-46 -262q-3 -18 -21 -18h-50q-11 0 -14 5t-1 13l47 262l-93 394q-3 16 15 16h55q10 0 13 -3t5 -10l39 -174q14 -61 20 -100t6 -62q8 20 18.5 44t21.5 47.5t22 45t20 36.5l92 162q5 9 9.5 11.5t15.5 2.5h47q18 0 10 -15zM248 763q-17 0 -28 9.5t-11 26.5
q0 22 15.5 37.5t37.5 15.5q17 0 28 -9.5t11 -26.5q0 -22 -15.5 -37.5t-37.5 -15.5zM393 763q-17 0 -28 9.5t-11 26.5q0 22 15.5 37.5t37.5 15.5q17 0 28 -9.5t11 -26.5q0 -22 -15.5 -37.5t-37.5 -15.5z" />
    <glyph glyph-name="Zacute" unicode="&#x179;" horiz-adv-x="477" 
d="M384 69q11 0 13 -4t0 -12l-7 -37q-2 -11 -6 -13.5t-15 -2.5h-354q-15 0 -12 16l3 15q2 11 8 22.5t14 24.5l250 372q35 53 65.5 97t56.5 74h-256q-11 0 -13 4t0 12l7 37q2 11 6 13.5t15 2.5h337q15 0 12 -16l-3 -15q-2 -11 -8 -22.5t-14 -24.5l-252 -374
q-35 -51 -64.5 -92.5t-55.5 -76.5h273zM415 849q5 -7 5 -13t-8 -11l-123 -79q-8 -5 -12 -4t-9 6l-13 17q-6 9 3 17l112 94q16 14 26 -1z" />
    <glyph glyph-name="Zcaron" unicode="&#x17d;" horiz-adv-x="477" 
d="M384 69q11 0 13 -4t0 -12l-7 -37q-2 -11 -6 -13.5t-15 -2.5h-354q-15 0 -12 16l3 15q2 11 8 22.5t14 24.5l250 372q35 53 65.5 97t56.5 74h-256q-11 0 -13 4t0 12l7 37q2 11 6 13.5t15 2.5h337q15 0 12 -16l-3 -15q-2 -11 -8 -22.5t-14 -24.5l-252 -374
q-35 -51 -64.5 -92.5t-55.5 -76.5h273zM250 872q10 9 19 -2l62 -75l90 80q10 9 18 -1l12 -14q4 -5 3.5 -9t-6.5 -10l-97 -95q-7 -6 -11.5 -8t-12.5 -2h-13q-6 0 -9 1.5t-7 6.5l-67 96q-8 11 2 18z" />
    <glyph glyph-name="Zdotaccent" unicode="&#x17b;" horiz-adv-x="477" 
d="M384 69q11 0 13 -4t0 -12l-7 -37q-2 -11 -6 -13.5t-15 -2.5h-354q-15 0 -12 16l3 15q2 11 8 22.5t14 24.5l250 372q35 53 65.5 97t56.5 74h-256q-11 0 -13 4t0 12l7 37q2 11 6 13.5t15 2.5h337q15 0 12 -16l-3 -15q-2 -11 -8 -22.5t-14 -24.5l-252 -374
q-35 -51 -64.5 -92.5t-55.5 -76.5h273zM323 751q-17 0 -28.5 11t-11.5 29q0 25 16.5 40.5t40.5 15.5q17 0 28.5 -11t11.5 -29q0 -25 -16.5 -40.5t-40.5 -15.5z" />
    <glyph glyph-name="agrave" unicode="&#xe0;" horiz-adv-x="467" 
d="M334 -6q-25 0 -38 12.5t-16 33.5q-25 -23 -56 -37t-62 -14q-26 0 -48.5 10.5t-39.5 31.5t-27 51t-10 69q0 84 28 155.5t76 119.5q32 32 73.5 50.5t89.5 18.5q28 0 57.5 -7t51.5 -18q9 -5 10.5 -10t-0.5 -16l-59 -330q-2 -13 -3 -22t-1 -14q0 -20 17 -20q5 0 10.5 1
t11.5 3q14 3 11 -11l-5 -25q-2 -6 -4 -9.5t-9 -7.5q-13 -7 -28.5 -11t-29.5 -4zM186 59q21 0 47 11.5t49 31.5l57 322q-18 8 -39 8q-57 0 -99 -44q-36 -38 -57.5 -100t-21.5 -131q0 -48 17.5 -73t46.5 -25zM370 582q9 -9 2 -17l-17 -20q-6 -8 -17 0l-106 76q-8 6 -10.5 11.5
t4.5 14.5l24 28q12 14 25 1z" />
    <glyph glyph-name="aacute" unicode="&#xe1;" horiz-adv-x="467" 
d="M334 -6q-25 0 -38 12.5t-16 33.5q-25 -23 -56 -37t-62 -14q-26 0 -48.5 10.5t-39.5 31.5t-27 51t-10 69q0 84 28 155.5t76 119.5q32 32 73.5 50.5t89.5 18.5q28 0 57.5 -7t51.5 -18q9 -5 10.5 -10t-0.5 -16l-59 -330q-2 -13 -3 -22t-1 -14q0 -20 17 -20q5 0 10.5 1
t11.5 3q14 3 11 -11l-5 -25q-2 -6 -4 -9.5t-9 -7.5q-13 -7 -28.5 -11t-29.5 -4zM186 59q21 0 47 11.5t49 31.5l57 322q-18 8 -39 8q-57 0 -99 -44q-36 -38 -57.5 -100t-21.5 -131q0 -48 17.5 -73t46.5 -25zM385 649q5 -7 5 -13t-8 -11l-123 -79q-8 -5 -12 -4t-9 6l-13 17
q-6 9 3 17l112 94q16 14 26 -1z" />
    <glyph glyph-name="acircumflex" unicode="&#xe2;" horiz-adv-x="467" 
d="M334 -6q-25 0 -38 12.5t-16 33.5q-25 -23 -56 -37t-62 -14q-26 0 -48.5 10.5t-39.5 31.5t-27 51t-10 69q0 84 28 155.5t76 119.5q32 32 73.5 50.5t89.5 18.5q28 0 57.5 -7t51.5 -18q9 -5 10.5 -10t-0.5 -16l-59 -330q-2 -13 -3 -22t-1 -14q0 -20 17 -20q5 0 10.5 1
t11.5 3q14 3 11 -11l-5 -25q-2 -6 -4 -9.5t-9 -7.5q-13 -7 -28.5 -11t-29.5 -4zM186 59q21 0 47 11.5t49 31.5l57 322q-18 8 -39 8q-57 0 -99 -44q-36 -38 -57.5 -100t-21.5 -131q0 -48 17.5 -73t46.5 -25zM394 546q-10 -9 -19 2l-62 75l-90 -80q-10 -9 -18 1l-12 14
q-7 9 3 19l97 95q7 6 11.5 8t12.5 2h13q6 0 9 -1.5t7 -6.5l67 -96q5 -6 4.5 -9.5t-6.5 -8.5z" />
    <glyph glyph-name="atilde" unicode="&#xe3;" horiz-adv-x="467" 
d="M334 -6q-25 0 -38 12.5t-16 33.5q-25 -23 -56 -37t-62 -14q-26 0 -48.5 10.5t-39.5 31.5t-27 51t-10 69q0 84 28 155.5t76 119.5q32 32 73.5 50.5t89.5 18.5q28 0 57.5 -7t51.5 -18q9 -5 10.5 -10t-0.5 -16l-59 -330q-2 -13 -3 -22t-1 -14q0 -20 17 -20q5 0 10.5 1
t11.5 3q14 3 11 -11l-5 -25q-2 -6 -4 -9.5t-9 -7.5q-13 -7 -28.5 -11t-29.5 -4zM186 59q21 0 47 11.5t49 31.5l57 322q-18 8 -39 8q-57 0 -99 -44q-36 -38 -57.5 -100t-21.5 -131q0 -48 17.5 -73t46.5 -25zM354 560q-15 0 -28 5.5t-25 12.5t-23 12.5t-23 5.5t-22.5 -6
t-23.5 -18q-10 -10 -18 2l-11 16q-7 12 6 25q15 14 34 24.5t40 10.5q15 0 27.5 -5.5t24.5 -12.5t23.5 -12.5t23.5 -5.5t22.5 6t23.5 18q10 10 18 -2l11 -16q4 -6 3 -11.5t-9 -13.5q-15 -14 -34 -24.5t-40 -10.5z" />
    <glyph glyph-name="adieresis" unicode="&#xe4;" horiz-adv-x="467" 
d="M334 -6q-25 0 -38 12.5t-16 33.5q-25 -23 -56 -37t-62 -14q-26 0 -48.5 10.5t-39.5 31.5t-27 51t-10 69q0 84 28 155.5t76 119.5q32 32 73.5 50.5t89.5 18.5q28 0 57.5 -7t51.5 -18q9 -5 10.5 -10t-0.5 -16l-59 -330q-2 -13 -3 -22t-1 -14q0 -20 17 -20q5 0 10.5 1
t11.5 3q14 3 11 -11l-5 -25q-2 -6 -4 -9.5t-9 -7.5q-13 -7 -28.5 -11t-29.5 -4zM186 59q21 0 47 11.5t49 31.5l57 322q-18 8 -39 8q-57 0 -99 -44q-36 -38 -57.5 -100t-21.5 -131q0 -48 17.5 -73t46.5 -25zM236 563q-17 0 -28 9.5t-11 26.5q0 22 15.5 37.5t37.5 15.5
q17 0 28 -9.5t11 -26.5q0 -22 -15.5 -37.5t-37.5 -15.5zM381 563q-17 0 -28 9.5t-11 26.5q0 22 15.5 37.5t37.5 15.5q17 0 28 -9.5t11 -26.5q0 -22 -15.5 -37.5t-37.5 -15.5z" />
    <glyph glyph-name="amacron" unicode="&#x101;" horiz-adv-x="467" 
d="M334 -6q-25 0 -38 12.5t-16 33.5q-25 -23 -56 -37t-62 -14q-26 0 -48.5 10.5t-39.5 31.5t-27 51t-10 69q0 84 28 155.5t76 119.5q32 32 73.5 50.5t89.5 18.5q28 0 57.5 -7t51.5 -18q9 -5 10.5 -10t-0.5 -16l-59 -330q-2 -13 -3 -22t-1 -14q0 -20 17 -20q5 0 10.5 1
t11.5 3q14 3 11 -11l-5 -25q-2 -6 -4 -9.5t-9 -7.5q-13 -7 -28.5 -11t-29.5 -4zM186 59q21 0 47 11.5t49 31.5l57 322q-18 8 -39 8q-57 0 -99 -44q-36 -38 -57.5 -100t-21.5 -131q0 -48 17.5 -73t46.5 -25zM405 624q17 0 14 -14l-5 -24q-2 -9 -5.5 -12t-12.5 -3h-186
q-17 0 -14 14l5 24q3 15 17 15h187z" />
    <glyph glyph-name="abreve" unicode="&#x103;" horiz-adv-x="467" 
d="M334 -6q-25 0 -38 12.5t-16 33.5q-25 -23 -56 -37t-62 -14q-26 0 -48.5 10.5t-39.5 31.5t-27 51t-10 69q0 84 28 155.5t76 119.5q32 32 73.5 50.5t89.5 18.5q28 0 57.5 -7t51.5 -18q9 -5 10.5 -10t-0.5 -16l-59 -330q-2 -13 -3 -22t-1 -14q0 -20 17 -20q5 0 10.5 1
t11.5 3q14 3 11 -11l-5 -25q-2 -6 -4 -9.5t-9 -7.5q-13 -7 -28.5 -11t-29.5 -4zM186 59q21 0 47 11.5t49 31.5l57 322q-18 8 -39 8q-57 0 -99 -44q-36 -38 -57.5 -100t-21.5 -131q0 -48 17.5 -73t46.5 -25zM429 642q-16 -44 -48.5 -67.5t-74.5 -23.5q-41 0 -67.5 23.5
t-26.5 68.5q0 17 17 17h22q8 0 11.5 -2.5t4.5 -11.5q5 -45 46 -45q39 0 62 46q4 8 7.5 10.5t13.5 2.5h23q10 0 11 -5.5t-1 -12.5z" />
    <glyph glyph-name="acaron" unicode="&#x1ce;" horiz-adv-x="467" 
d="M334 -6q-25 0 -38 12.5t-16 33.5q-25 -23 -56 -37t-62 -14q-26 0 -48.5 10.5t-39.5 31.5t-27 51t-10 69q0 84 28 155.5t76 119.5q32 32 73.5 50.5t89.5 18.5q28 0 57.5 -7t51.5 -18q9 -5 10.5 -10t-0.5 -16l-59 -330q-2 -13 -3 -22t-1 -14q0 -20 17 -20q5 0 10.5 1
t11.5 3q14 3 11 -11l-5 -25q-2 -6 -4 -9.5t-9 -7.5q-13 -7 -28.5 -11t-29.5 -4zM186 59q21 0 47 11.5t49 31.5l57 322q-18 8 -39 8q-57 0 -99 -44q-36 -38 -57.5 -100t-21.5 -131q0 -48 17.5 -73t46.5 -25zM203 672q10 9 19 -2l62 -75l90 80q10 9 18 -1l12 -14q4 -5 3.5 -9
t-6.5 -10l-97 -95q-7 -6 -11.5 -8t-12.5 -2h-13q-6 0 -9 1.5t-7 6.5l-67 96q-8 11 2 18z" />
    <glyph glyph-name="aring" unicode="&#xe5;" horiz-adv-x="467" 
d="M334 -6q-25 0 -38 12.5t-16 33.5q-25 -23 -56 -37t-62 -14q-26 0 -48.5 10.5t-39.5 31.5t-27 51t-10 69q0 84 28 155.5t76 119.5q32 32 73.5 50.5t89.5 18.5q28 0 57.5 -7t51.5 -18q9 -5 10.5 -10t-0.5 -16l-59 -330q-2 -13 -3 -22t-1 -14q0 -20 17 -20q5 0 10.5 1
t11.5 3q14 3 11 -11l-5 -25q-2 -6 -4 -9.5t-9 -7.5q-13 -7 -28.5 -11t-29.5 -4zM186 59q21 0 47 11.5t49 31.5l57 322q-18 8 -39 8q-57 0 -99 -44q-36 -38 -57.5 -100t-21.5 -131q0 -48 17.5 -73t46.5 -25zM305 582q15 0 27.5 11t12.5 29q0 13 -8.5 20t-19.5 7
q-15 0 -27.5 -11t-12.5 -29q0 -13 8.5 -20t19.5 -7zM299 541q-27 0 -46 18.5t-19 45.5q0 18 7.5 33.5t20 27t28.5 18t33 6.5q27 0 46 -18.5t19 -45.5q0 -18 -7.5 -33.5t-20 -27t-28.5 -18t-33 -6.5z" />
    <glyph glyph-name="aringacute" unicode="&#x1fb;" horiz-adv-x="466" 
d="M335 -6q-25 0 -38 12.5t-16 33.5q-25 -23 -56 -37t-62 -14q-26 0 -48.5 10.5t-39.5 31.5t-27 51t-10 69q0 84 28 155.5t76 119.5q32 32 73.5 50.5t89.5 18.5q28 0 57.5 -7t51.5 -18q9 -5 10.5 -10t-0.5 -16l-59 -330q-2 -13 -3 -22t-1 -14q0 -20 17 -20q5 0 10.5 1
t11.5 3q14 3 11 -11l-5 -25q-2 -6 -4 -9.5t-9 -7.5q-13 -7 -28.5 -11t-29.5 -4zM187 59q21 0 47 11.5t49 31.5l57 322q-18 8 -39 8q-57 0 -99 -44q-36 -38 -57.5 -100t-21.5 -131q0 -48 17.5 -73t46.5 -25zM302 570q15 0 27.5 11t12.5 29q0 13 -8.5 20t-19.5 7
q-15 0 -27.5 -11t-12.5 -29q0 -13 8.5 -20t19.5 -7zM296 529q-27 0 -46 18.5t-19 45.5q0 18 7.5 33.5t20 27t28.5 18t33 6.5q27 0 46 -18.5t19 -45.5q0 -18 -7.5 -33.5t-20 -27t-28.5 -18t-33 -6.5zM413 798q5 -7 5 -13t-8 -11l-123 -79q-8 -5 -12 -4t-9 6l-13 17q-6 9 3 17
l112 94q16 14 26 -1z" />
    <glyph glyph-name="aogonek" unicode="&#x105;" horiz-adv-x="467" 
d="M211 -135q0 37 25 74.5t67 61.5q-20 12 -23 39q-25 -23 -56 -37t-62 -14q-26 0 -48.5 10.5t-39.5 31.5t-27 51t-10 69q0 84 28 155.5t76 119.5q32 32 73.5 50.5t89.5 18.5q29 0 58 -7t51 -18q9 -5 10.5 -10t-0.5 -16l-59 -330q-2 -13 -3 -22t-1 -14q0 -20 17 -20
q5 0 10.5 1t11.5 3q14 3 11 -11l-5 -25q-2 -8 -5 -11t-9 -6q-21 -9 -43 -23.5t-39.5 -32t-29 -38.5t-11.5 -44q0 -17 10 -26t27 -9q11 0 21.5 3l17.5 5q8 3 10 0.5t4 -7.5l3 -14q2 -8 -5 -12q-10 -6 -29 -11.5t-38 -5.5q-33 0 -55.5 17.5t-22.5 53.5zM186 59q21 0 47 11.5
t49 31.5l57 322q-18 8 -39 8q-57 0 -99 -44q-36 -38 -57.5 -100t-21.5 -131q0 -48 17.5 -73t46.5 -25z" />
    <glyph glyph-name="ae" unicode="&#xe6;" horiz-adv-x="662" 
d="M446 53q26 0 50.5 7.5t43.5 15.5q8 4 12 2t6 -8l10 -27q3 -8 1.5 -13t-12.5 -10q-26 -13 -59 -22t-70 -9q-92 0 -135 66q-30 -32 -65.5 -49t-73.5 -17q-35 0 -59.5 10.5t-41.5 27.5q-33 36 -33 90q0 77 62.5 121.5t170.5 44.5h24q0 1 2 7q10 40 10 72t-17 52.5t-52 20.5
q-24 0 -47.5 -7t-50.5 -24q-12 -6 -17 3l-14 26q-6 11 5 18q37 23 70 33.5t69 10.5q43 0 74.5 -20t42.5 -52q29 33 66 52.5t79 19.5q62 0 98 -39.5t36 -111.5q0 -22 -3.5 -47.5t-8.5 -48.5q-3 -11 -8.5 -15.5t-17.5 -4.5h-243q-3 -24 -3 -48q0 -63 27 -95t72 -32zM170 52
q26 0 54.5 14t46.5 37q-9 31 -9 71q0 14 1 27.5t3 27.5q-73 0 -118 -26t-45 -82q0 -32 19 -50.5t48 -18.5zM490 433q-21 0 -40.5 -12t-36.5 -32t-30 -47.5t-22 -58.5h184q8 30 8 64q0 39 -16 62.5t-47 23.5z" />
    <glyph glyph-name="aeacute" unicode="&#x1fd;" horiz-adv-x="662" 
d="M446 53q26 0 50.5 7.5t43.5 15.5q8 4 12 2t6 -8l10 -27q3 -8 1.5 -13t-12.5 -10q-26 -13 -59 -22t-70 -9q-92 0 -135 66q-30 -32 -65.5 -49t-73.5 -17q-35 0 -59.5 10.5t-41.5 27.5q-33 36 -33 90q0 77 62.5 121.5t170.5 44.5h24q0 1 2 7q10 40 10 72t-17 52.5t-52 20.5
q-24 0 -47.5 -7t-50.5 -24q-12 -6 -17 3l-14 26q-6 11 5 18q37 23 70 33.5t69 10.5q43 0 74.5 -20t42.5 -52q29 33 66 52.5t79 19.5q62 0 98 -39.5t36 -111.5q0 -22 -3.5 -47.5t-8.5 -48.5q-3 -11 -8.5 -15.5t-17.5 -4.5h-243q-3 -24 -3 -48q0 -63 27 -95t72 -32zM170 52
q26 0 54.5 14t46.5 37q-9 31 -9 71q0 14 1 27.5t3 27.5q-73 0 -118 -26t-45 -82q0 -32 19 -50.5t48 -18.5zM490 433q-21 0 -40.5 -12t-36.5 -32t-30 -47.5t-22 -58.5h184q8 30 8 64q0 39 -16 62.5t-47 23.5zM475 649q5 -7 5 -13t-8 -11l-123 -79q-8 -5 -12 -4t-9 6l-13 17
q-6 9 3 17l112 94q16 14 26 -1z" />
    <glyph glyph-name="cacute" unicode="&#x107;" horiz-adv-x="375" 
d="M378 472q8 -5 9.5 -9.5t-2.5 -12.5l-14 -29q-5 -11 -20 -5q-17 8 -33.5 11.5t-34.5 3.5q-38 0 -68 -21.5t-51 -57.5t-32 -82.5t-11 -97.5q0 -60 26 -91q22 -27 63 -27q17 0 39 5t41 14q8 4 12 2t6 -8l10 -27q2 -7 1 -12.5t-12 -10.5q-26 -12 -55 -20t-63 -8t-60 10
t-45 28q-48 48 -48 141q0 36 7 73t19.5 71.5t31 65t42.5 54.5q29 29 65.5 46t81.5 17q52 0 95 -23zM369 649q5 -7 5 -13t-8 -11l-123 -79q-8 -5 -12 -4t-9 6l-13 17q-6 9 3 17l112 94q16 14 26 -1z" />
    <glyph glyph-name="ccedilla" unicode="&#xe7;" horiz-adv-x="375" 
d="M258 -111q0 -37 -27.5 -64.5t-72.5 -27.5q-15 0 -28.5 2.5t-23.5 6.5q-7 2 -8 6t1 10l5 17q3 10 14 7q10 -3 19.5 -4.5t17.5 -1.5q21 0 34 13.5t13 29.5q0 12 -10 19.5t-41 12.5q-15 2 -16.5 9.5t1.5 19.5l14 49q-41 9 -66 34q-48 48 -48 141q0 36 7 73t19.5 71.5t31 65
t42.5 54.5q29 29 65.5 46t81.5 17q52 0 95 -23q8 -5 9.5 -9.5t-2.5 -12.5l-14 -29q-6 -12 -20 -5q-17 8 -33.5 11.5t-34.5 3.5q-38 0 -68 -21.5t-51 -57.5t-32 -82.5t-11 -97.5q0 -60 26 -91q22 -27 63 -27q17 0 39 5t41 14q8 4 12 2t6 -8l10 -27q2 -7 1 -12.5t-12 -10.5
q-25 -11 -52.5 -19t-59.5 -9l-9 -38q35 -5 53.5 -20.5t18.5 -41.5z" />
    <glyph glyph-name="ccircumflex" unicode="&#x109;" horiz-adv-x="375" 
d="M378 472q8 -5 9.5 -9.5t-2.5 -12.5l-14 -29q-5 -11 -20 -5q-17 8 -33.5 11.5t-34.5 3.5q-38 0 -68 -21.5t-51 -57.5t-32 -82.5t-11 -97.5q0 -60 26 -91q22 -27 63 -27q17 0 39 5t41 14q8 4 12 2t6 -8l10 -27q2 -7 1 -12.5t-12 -10.5q-26 -12 -55 -20t-63 -8t-60 10
t-45 28q-48 48 -48 141q0 36 7 73t19.5 71.5t31 65t42.5 54.5q29 29 65.5 46t81.5 17q52 0 95 -23zM374 546q-10 -9 -19 2l-62 75l-90 -80q-10 -9 -18 1l-12 14q-7 9 3 19l97 95q7 6 11.5 8t12.5 2h13q6 0 9 -1.5t7 -6.5l67 -96q5 -6 4.5 -9.5t-6.5 -8.5z" />
    <glyph glyph-name="ccaron" unicode="&#x10d;" horiz-adv-x="375" 
d="M378 472q8 -5 9.5 -9.5t-2.5 -12.5l-14 -29q-5 -11 -20 -5q-17 8 -33.5 11.5t-34.5 3.5q-38 0 -68 -21.5t-51 -57.5t-32 -82.5t-11 -97.5q0 -60 26 -91q22 -27 63 -27q17 0 39 5t41 14q8 4 12 2t6 -8l10 -27q2 -7 1 -12.5t-12 -10.5q-26 -12 -55 -20t-63 -8t-60 10
t-45 28q-48 48 -48 141q0 36 7 73t19.5 71.5t31 65t42.5 54.5q29 29 65.5 46t81.5 17q52 0 95 -23zM206 672q10 9 19 -2l62 -75l90 80q10 9 18 -1l12 -14q4 -5 3.5 -9t-6.5 -10l-97 -95q-7 -6 -11.5 -8t-12.5 -2h-13q-6 0 -9 1.5t-7 6.5l-67 96q-8 11 2 18z" />
    <glyph glyph-name="cdotaccent" unicode="&#x10b;" horiz-adv-x="375" 
d="M378 472q8 -5 9.5 -9.5t-2.5 -12.5l-14 -29q-5 -11 -20 -5q-17 8 -33.5 11.5t-34.5 3.5q-38 0 -68 -21.5t-51 -57.5t-32 -82.5t-11 -97.5q0 -60 26 -91q22 -27 63 -27q17 0 39 5t41 14q8 4 12 2t6 -8l10 -27q2 -7 1 -12.5t-12 -10.5q-26 -12 -55 -20t-63 -8t-60 10
t-45 28q-48 48 -48 141q0 36 7 73t19.5 71.5t31 65t42.5 54.5q29 29 65.5 46t81.5 17q52 0 95 -23zM287 551q-17 0 -28.5 11t-11.5 29q0 25 16.5 40.5t40.5 15.5q17 0 28.5 -11t11.5 -29q0 -25 -16.5 -40.5t-40.5 -15.5z" />
    <glyph glyph-name="dcaron" unicode="&#x10f;" horiz-adv-x="462" 
d="M186 59q21 0 48.5 11.5t50.5 31.5l53 303q-12 10 -27.5 16.5t-33.5 6.5q-32 0 -60 -23t-49 -61t-33.5 -86.5t-12.5 -98.5q0 -52 17.5 -76t46.5 -24zM269 495q46 0 80 -26l39 221q2 9 6 12t14 5l45 6q21 3 18 -14l-121 -682q-2 -8 -6.5 -12.5t-15.5 -4.5h-33
q-11 0 -14.5 4.5t-1.5 12.5l4 23q-25 -23 -57 -37t-64 -14q-24 0 -47 10t-40 30t-27.5 50.5t-10.5 71.5q0 85 28.5 159.5t73.5 122.5q28 29 61.5 45.5t68.5 16.5zM595 658q0 -20 -7 -39t-19 -36.5t-27.5 -32t-31.5 -26.5q-7 -5 -10.5 -4.5t-7.5 5.5l-5 7q-2 4 -1 6.5t6 6.5
q17 14 28.5 30t11.5 30q0 16 -9 26.5t-9 25.5q0 20 13 32t30 12t27.5 -12.5t10.5 -30.5z" />
    <glyph glyph-name="dcroat" unicode="&#x111;" horiz-adv-x="466" 
d="M448 573l-98 -556q-2 -8 -6.5 -12.5t-15.5 -4.5h-33q-11 0 -14.5 4.5t-1.5 12.5l4 23q-25 -23 -57.5 -37t-63.5 -14q-24 0 -47 10t-40 30t-27.5 50.5t-10.5 71.5q0 85 28.5 159.5t73.5 122.5q28 29 61.5 45.5t68.5 16.5q46 0 80 -26l18 104h-115q-17 0 -14 14l3 19
q3 15 17 15h118l12 69q2 9 6 12t14 5l45 6q21 3 18 -14l-14 -78h46q17 0 14 -14l-3 -19q-2 -9 -5.5 -12t-12.5 -3h-48zM186 59q21 0 48.5 11.5t50.5 31.5l53 303q-12 10 -27.5 16.5t-33.5 6.5q-32 0 -60 -23t-49 -61t-33.5 -86.5t-12.5 -98.5q0 -52 17.5 -76t46.5 -24z" />
    <glyph glyph-name="eth" unicode="&#xf0;" horiz-adv-x="463" 
d="M284 618q-28 38 -68 59q-7 4 -8 7.5t1 8.5l11 22q4 8 8.5 10.5t13.5 -0.5q35 -12 62.5 -34.5t47.5 -51.5l76 23q8 2 11.5 0.5t5.5 -9.5l4 -17q3 -12 -10 -16l-64 -19q26 -51 38 -108t12 -103q0 -81 -14.5 -153.5t-43.5 -128t-73 -88t-103 -32.5q-36 0 -64.5 13.5
t-47.5 37.5t-29 57t-10 72q0 61 16 120t45 104.5t70 73.5t91 28q48 0 77 -31q-2 30 -9.5 60t-21.5 57l-74 -22q-8 -2 -11.5 -0.5t-5.5 9.5l-4 17q-3 12 10 16zM340 316q0 51 -18 83t-55 32q-33 0 -59.5 -24t-44.5 -62.5t-28 -85t-10 -91.5q0 -51 18 -83t55 -32q33 0 59.5 24
t44.5 62.5t28 85t10 91.5z" />
    <glyph glyph-name="egrave" unicode="&#xe8;" horiz-adv-x="436" 
d="M220 54q26 0 50.5 7t43.5 15q8 4 12 2t6 -8l10 -27q3 -8 1.5 -13t-12.5 -10q-26 -13 -59 -22t-70 -9q-76 0 -121 48t-45 137q0 60 17.5 117.5t49 103t74.5 73t94 27.5q62 0 98 -39.5t36 -111.5q0 -22 -3.5 -47.5t-8.5 -48.5q-3 -11 -8.5 -15.5t-17.5 -4.5h-243
q-3 -24 -3 -48q0 -63 27 -94.5t72 -31.5zM264 432q-21 0 -40.5 -11.5t-36.5 -32t-30 -47.5t-22 -58h184q8 30 8 64q0 39 -16 62t-47 23zM362 582q9 -9 2 -17l-17 -20q-6 -8 -17 0l-106 76q-8 6 -10.5 11.5t4.5 14.5l24 28q12 14 25 1z" />
    <glyph glyph-name="eacute" unicode="&#xe9;" horiz-adv-x="436" 
d="M220 54q26 0 50.5 7t43.5 15q8 4 12 2t6 -8l10 -27q3 -8 1.5 -13t-12.5 -10q-26 -13 -59 -22t-70 -9q-76 0 -121 48t-45 137q0 60 17.5 117.5t49 103t74.5 73t94 27.5q62 0 98 -39.5t36 -111.5q0 -22 -3.5 -47.5t-8.5 -48.5q-3 -11 -8.5 -15.5t-17.5 -4.5h-243
q-3 -24 -3 -48q0 -63 27 -94.5t72 -31.5zM264 432q-21 0 -40.5 -11.5t-36.5 -32t-30 -47.5t-22 -58h184q8 30 8 64q0 39 -16 62t-47 23zM368 649q5 -7 5 -13t-8 -11l-123 -79q-8 -5 -12 -4t-9 6l-13 17q-6 9 3 17l112 94q16 14 26 -1z" />
    <glyph glyph-name="ecircumflex" unicode="&#xea;" horiz-adv-x="436" 
d="M220 54q26 0 50.5 7t43.5 15q8 4 12 2t6 -8l10 -27q3 -8 1.5 -13t-12.5 -10q-26 -13 -59 -22t-70 -9q-76 0 -121 48t-45 137q0 60 17.5 117.5t49 103t74.5 73t94 27.5q62 0 98 -39.5t36 -111.5q0 -22 -3.5 -47.5t-8.5 -48.5q-3 -11 -8.5 -15.5t-17.5 -4.5h-243
q-3 -24 -3 -48q0 -63 27 -94.5t72 -31.5zM264 432q-21 0 -40.5 -11.5t-36.5 -32t-30 -47.5t-22 -58h184q8 30 8 64q0 39 -16 62t-47 23zM369 546q-10 -9 -19 2l-62 75l-90 -80q-10 -9 -18 1l-12 14q-7 9 3 19l97 95q7 6 11.5 8t12.5 2h13q6 0 9 -1.5t7 -6.5l67 -96
q5 -6 4.5 -9.5t-6.5 -8.5z" />
    <glyph glyph-name="ecaron" unicode="&#x11b;" horiz-adv-x="436" 
d="M220 54q26 0 50.5 7t43.5 15q8 4 12 2t6 -8l10 -27q3 -8 1.5 -13t-12.5 -10q-26 -13 -59 -22t-70 -9q-76 0 -121 48t-45 137q0 60 17.5 117.5t49 103t74.5 73t94 27.5q62 0 98 -39.5t36 -111.5q0 -22 -3.5 -47.5t-8.5 -48.5q-3 -11 -8.5 -15.5t-17.5 -4.5h-243
q-3 -24 -3 -48q0 -63 27 -94.5t72 -31.5zM264 432q-21 0 -40.5 -11.5t-36.5 -32t-30 -47.5t-22 -58h184q8 30 8 64q0 39 -16 62t-47 23zM206 672q10 9 19 -2l62 -75l90 80q10 9 18 -1l12 -14q4 -5 3.5 -9t-6.5 -10l-97 -95q-7 -6 -11.5 -8t-12.5 -2h-13q-6 0 -9 1.5t-7 6.5
l-67 96q-8 11 2 18z" />
    <glyph glyph-name="edieresis" unicode="&#xeb;" horiz-adv-x="436" 
d="M220 54q26 0 50.5 7t43.5 15q8 4 12 2t6 -8l10 -27q3 -8 1.5 -13t-12.5 -10q-26 -13 -59 -22t-70 -9q-76 0 -121 48t-45 137q0 60 17.5 117.5t49 103t74.5 73t94 27.5q62 0 98 -39.5t36 -111.5q0 -22 -3.5 -47.5t-8.5 -48.5q-3 -11 -8.5 -15.5t-17.5 -4.5h-243
q-3 -24 -3 -48q0 -63 27 -94.5t72 -31.5zM264 432q-21 0 -40.5 -11.5t-36.5 -32t-30 -47.5t-22 -58h184q8 30 8 64q0 39 -16 62t-47 23zM209 563q-17 0 -28 9.5t-11 26.5q0 22 15.5 37.5t37.5 15.5q17 0 28 -9.5t11 -26.5q0 -22 -15.5 -37.5t-37.5 -15.5zM354 563
q-17 0 -28 9.5t-11 26.5q0 22 15.5 37.5t37.5 15.5q17 0 28 -9.5t11 -26.5q0 -22 -15.5 -37.5t-37.5 -15.5z" />
    <glyph glyph-name="emacron" unicode="&#x113;" horiz-adv-x="436" 
d="M220 54q26 0 50.5 7t43.5 15q8 4 12 2t6 -8l10 -27q3 -8 1.5 -13t-12.5 -10q-26 -13 -59 -22t-70 -9q-76 0 -121 48t-45 137q0 60 17.5 117.5t49 103t74.5 73t94 27.5q62 0 98 -39.5t36 -111.5q0 -22 -3.5 -47.5t-8.5 -48.5q-3 -11 -8.5 -15.5t-17.5 -4.5h-243
q-3 -24 -3 -48q0 -63 27 -94.5t72 -31.5zM264 432q-21 0 -40.5 -11.5t-36.5 -32t-30 -47.5t-22 -58h184q8 30 8 64q0 39 -16 62t-47 23zM389 624q17 0 14 -14l-5 -24q-2 -9 -5.5 -12t-12.5 -3h-186q-17 0 -14 14l5 24q3 15 17 15h187z" />
    <glyph glyph-name="ebreve" unicode="&#x115;" horiz-adv-x="436" 
d="M220 54q26 0 50.5 7t43.5 15q8 4 12 2t6 -8l10 -27q3 -8 1.5 -13t-12.5 -10q-26 -13 -59 -22t-70 -9q-76 0 -121 48t-45 137q0 60 17.5 117.5t49 103t74.5 73t94 27.5q62 0 98 -39.5t36 -111.5q0 -22 -3.5 -47.5t-8.5 -48.5q-3 -11 -8.5 -15.5t-17.5 -4.5h-243
q-3 -24 -3 -48q0 -63 27 -94.5t72 -31.5zM264 432q-21 0 -40.5 -11.5t-36.5 -32t-30 -47.5t-22 -58h184q8 30 8 64q0 39 -16 62t-47 23zM406 642q-16 -44 -48.5 -67.5t-74.5 -23.5q-41 0 -67.5 23.5t-26.5 68.5q0 17 17 17h22q8 0 11.5 -2.5t4.5 -11.5q5 -45 46 -45
q39 0 62 46q4 8 7.5 10.5t13.5 2.5h23q10 0 11 -5.5t-1 -12.5z" />
    <glyph glyph-name="edotaccent" unicode="&#x117;" horiz-adv-x="436" 
d="M220 54q26 0 50.5 7t43.5 15q8 4 12 2t6 -8l10 -27q3 -8 1.5 -13t-12.5 -10q-26 -13 -59 -22t-70 -9q-76 0 -121 48t-45 137q0 60 17.5 117.5t49 103t74.5 73t94 27.5q62 0 98 -39.5t36 -111.5q0 -22 -3.5 -47.5t-8.5 -48.5q-3 -11 -8.5 -15.5t-17.5 -4.5h-243
q-3 -24 -3 -48q0 -63 27 -94.5t72 -31.5zM264 432q-21 0 -40.5 -11.5t-36.5 -32t-30 -47.5t-22 -58h184q8 30 8 64q0 39 -16 62t-47 23zM283 551q-17 0 -28.5 11t-11.5 29q0 25 16.5 40.5t40.5 15.5q17 0 28.5 -11t11.5 -29q0 -25 -16.5 -40.5t-40.5 -15.5z" />
    <glyph glyph-name="eogonek" unicode="&#x119;" horiz-adv-x="436" 
d="M220 54q26 0 50.5 7t43.5 15q8 4 12 2t6 -8l10 -27q3 -8 1.5 -13t-12.5 -10q-27 -12 -53 -27t-47 -33t-34 -40t-13 -49q0 -18 10 -26.5t27 -8.5q11 0 21.5 3l17.5 5q8 3 10 0.5t4 -7.5l3 -14q2 -8 -5 -12q-10 -6 -29 -11.5t-38 -5.5q-33 0 -55.5 17.5t-22.5 53.5
q0 33 20 66.5t54 57.5q-76 1 -120.5 48.5t-44.5 136.5q0 60 17.5 117.5t49 103t74.5 73t94 27.5q62 0 98 -39.5t36 -111.5q0 -22 -3.5 -47.5t-8.5 -48.5q-3 -11 -8.5 -15.5t-17.5 -4.5h-243q-3 -24 -3 -48q0 -63 27 -94.5t72 -31.5zM264 432q-21 0 -40.5 -11.5t-36.5 -32
t-30 -47.5t-22 -58h184q8 30 8 64q0 39 -16 62t-47 23z" />
    <glyph glyph-name="gcircumflex" unicode="&#x11d;" horiz-adv-x="462" 
d="M353 14q-21 -116 -70 -175.5t-140 -59.5q-31 0 -61 7t-45 16q-14 8 -8 22l12 27q3 7 7 9.5t13 -1.5q40 -16 77 -16q60 0 91 41.5t47 129.5l5 28q-25 -23 -55 -35t-60 -12q-52 0 -88.5 40t-36.5 118q0 84 29 154.5t77 118.5q32 32 74 50.5t90 18.5q29 0 58 -7t51 -18
q9 -5 10.5 -10.5t-0.5 -15.5zM191 64q20 0 47.5 11t50.5 31l57 318q-18 8 -39 8q-58 0 -100 -44q-36 -38 -58.5 -99t-22.5 -130q0 -48 18 -71.5t47 -23.5zM410 546q-10 -9 -19 2l-62 75l-90 -80q-10 -9 -18 1l-12 14q-7 9 3 19l97 95q7 6 11.5 8t12.5 2h13q6 0 9 -1.5
t7 -6.5l67 -96q5 -6 4.5 -9.5t-6.5 -8.5z" />
    <glyph glyph-name="gbreve" unicode="&#x11f;" horiz-adv-x="462" 
d="M353 14q-21 -116 -70 -175.5t-140 -59.5q-31 0 -61 7t-45 16q-14 8 -8 22l12 27q3 7 7 9.5t13 -1.5q40 -16 77 -16q60 0 91 41.5t47 129.5l5 28q-25 -23 -55 -35t-60 -12q-52 0 -88.5 40t-36.5 118q0 84 29 154.5t77 118.5q32 32 74 50.5t90 18.5q29 0 58 -7t51 -18
q9 -5 10.5 -10.5t-0.5 -15.5zM191 64q20 0 47.5 11t50.5 31l57 318q-18 8 -39 8q-58 0 -100 -44q-36 -38 -58.5 -99t-22.5 -130q0 -48 18 -71.5t47 -23.5zM432 642q-16 -44 -48.5 -67.5t-74.5 -23.5q-41 0 -67.5 23.5t-26.5 68.5q0 17 17 17h22q8 0 11.5 -2.5t4.5 -11.5
q5 -45 46 -45q39 0 62 46q4 8 7.5 10.5t13.5 2.5h23q10 0 11 -5.5t-1 -12.5z" />
    <glyph glyph-name="gdotaccent" unicode="&#x121;" horiz-adv-x="462" 
d="M353 14q-21 -116 -70 -175.5t-140 -59.5q-31 0 -61 7t-45 16q-14 8 -8 22l12 27q3 7 7 9.5t13 -1.5q40 -16 77 -16q60 0 91 41.5t47 129.5l5 28q-25 -23 -55 -35t-60 -12q-52 0 -88.5 40t-36.5 118q0 84 29 154.5t77 118.5q32 32 74 50.5t90 18.5q29 0 58 -7t51 -18
q9 -5 10.5 -10.5t-0.5 -15.5zM191 64q20 0 47.5 11t50.5 31l57 318q-18 8 -39 8q-58 0 -100 -44q-36 -38 -58.5 -99t-22.5 -130q0 -48 18 -71.5t47 -23.5zM314 551q-17 0 -28.5 11t-11.5 29q0 25 16.5 40.5t40.5 15.5q17 0 28.5 -11t11.5 -29q0 -25 -16.5 -40.5t-40.5 -15.5
z" />
    <glyph glyph-name="gcommaaccent" unicode="&#x123;" horiz-adv-x="462" 
d="M267 583q0 20 7 39t19 36.5t27.5 32t31.5 26.5q7 5 10.5 4.5t7.5 -5.5l5 -7q2 -4 1 -6.5t-6 -6.5q-17 -14 -28.5 -30t-11.5 -30q0 -16 9 -26.5t9 -25.5q0 -20 -13 -32t-30 -12t-27.5 12.5t-10.5 30.5zM353 14q-21 -116 -70 -175.5t-140 -59.5q-31 0 -61 7t-45 16
q-14 8 -8 22l12 27q3 7 7 9.5t13 -1.5q40 -16 77 -16q60 0 91 41.5t47 129.5l5 28q-25 -23 -55 -35t-60 -12q-52 0 -88.5 40t-36.5 118q0 84 29 154.5t77 118.5q32 32 74 50.5t90 18.5q29 0 58 -7t51 -18q9 -5 10.5 -10.5t-0.5 -15.5zM191 64q20 0 47.5 11t50.5 31l57 318
q-18 8 -39 8q-58 0 -100 -44q-36 -38 -58.5 -99t-22.5 -130q0 -48 18 -71.5t47 -23.5z" />
    <glyph glyph-name="hcircumflex" unicode="&#x125;" horiz-adv-x="472" 
d="M366 16q-3 -16 -18 -16h-49q-17 0 -14 17l52 292q7 41 7 58q0 26 -13 41.5t-42 15.5q-28 0 -58.5 -16.5t-56.5 -40.5l-62 -351q-3 -16 -17 -16h-51q-16 0 -13 17l118 674q2 9 6 12t14 5l44 6q21 3 18 -14l-46 -263q27 25 62 41.5t69 16.5q49 0 79 -30.5t30 -84.5
q0 -16 -2 -33.5t-6 -39.5zM287 728q-10 -9 -19 2l-62 75l-90 -80q-10 -9 -18 1l-12 14q-7 9 3 19l97 95q7 6 11.5 8t12.5 2h13q6 0 9 -1.5t7 -6.5l67 -96q5 -6 4.5 -9.5t-6.5 -8.5z" />
    <glyph glyph-name="hbar" unicode="&#x127;" horiz-adv-x="472" 
d="M366 16q-4 -16 -18 -16h-51q-17 0 -12 17l52 292q7 41 7 58q0 26 -13 41.5t-42 15.5q-28 0 -58.5 -16.5t-56.5 -40.5l-62 -351q-3 -16 -17 -16h-51q-16 0 -13 17l97 556h-46q-17 0 -14 14l3 19q2 9 5.5 12t12.5 3h48l12 70q2 9 6 12t14 5l44 6q21 3 18 -14l-14 -79h116
q17 0 14 -14l-3 -19q-3 -15 -17 -15h-118l-24 -136q27 25 62 41.5t69 16.5q49 0 79 -30.5t30 -84.5q0 -16 -2 -33.5t-6 -39.5z" />
    <glyph glyph-name="dotlessi" unicode="&#x131;" horiz-adv-x="226" 
d="M114 16q-3 -16 -17 -16h-51q-16 0 -13 17l80 451q3 16 18 16h50q16 0 13 -17z" />
    <glyph glyph-name="igrave" unicode="&#xec;" horiz-adv-x="226" 
d="M114 16q-3 -16 -17 -16h-51q-16 0 -13 17l80 451q3 16 18 16h50q16 0 13 -17zM248 582q9 -9 2 -17l-17 -20q-6 -8 -17 0l-106 76q-8 6 -10.5 11.5t4.5 14.5l24 28q12 14 25 1z" />
    <glyph glyph-name="iacute" unicode="&#xed;" horiz-adv-x="226" 
d="M114 16q-3 -16 -17 -16h-51q-16 0 -13 17l80 451q3 16 18 16h50q16 0 13 -17zM256 649q5 -7 5 -13t-8 -11l-123 -79q-8 -5 -12 -4t-9 6l-13 17q-6 9 3 17l112 94q16 14 26 -1z" />
    <glyph glyph-name="icircumflex" unicode="&#xee;" horiz-adv-x="226" 
d="M114 16q-3 -16 -17 -16h-51q-16 0 -13 17l80 451q3 16 18 16h50q16 0 13 -17zM258 546q-10 -9 -19 2l-62 75l-90 -80q-10 -9 -18 1l-12 14q-7 9 3 19l97 95q7 6 11.5 8t12.5 2h13q6 0 9 -1.5t7 -6.5l67 -96q5 -6 4.5 -9.5t-6.5 -8.5z" />
    <glyph glyph-name="itilde" unicode="&#x129;" horiz-adv-x="226" 
d="M114 16q-3 -16 -17 -16h-51q-16 0 -13 17l80 451q3 16 18 16h50q16 0 13 -17zM224 560q-15 0 -28 5.5t-25 12.5t-23 12.5t-23 5.5t-22.5 -6t-23.5 -18q-10 -10 -18 2l-11 16q-7 12 6 25q15 14 34 24.5t40 10.5q15 0 27.5 -5.5t24.5 -12.5t23.5 -12.5t23.5 -5.5t22.5 6
t23.5 18q10 10 18 -2l11 -16q4 -6 3 -11.5t-9 -13.5q-15 -14 -34 -24.5t-40 -10.5z" />
    <glyph glyph-name="idieresis" unicode="&#xef;" horiz-adv-x="226" 
d="M114 16q-3 -16 -17 -16h-51q-16 0 -13 17l80 451q3 16 18 16h50q16 0 13 -17zM97 563q-17 0 -28 9.5t-11 26.5q0 22 15.5 37.5t37.5 15.5q17 0 28 -9.5t11 -26.5q0 -22 -15.5 -37.5t-37.5 -15.5zM242 563q-17 0 -28 9.5t-11 26.5q0 22 15.5 37.5t37.5 15.5q17 0 28 -9.5
t11 -26.5q0 -22 -15.5 -37.5t-37.5 -15.5z" />
    <glyph glyph-name="imacron" unicode="&#x12b;" horiz-adv-x="226" 
d="M114 16q-3 -16 -17 -16h-51q-16 0 -13 17l80 451q3 16 18 16h50q16 0 13 -17zM276 624q17 0 14 -14l-5 -24q-2 -9 -5.5 -12t-12.5 -3h-186q-17 0 -14 14l5 24q3 15 17 15h187z" />
    <glyph glyph-name="ibreve" unicode="&#x12d;" horiz-adv-x="226" 
d="M114 16q-3 -16 -17 -16h-51q-16 0 -13 17l80 451q3 16 18 16h50q16 0 13 -17zM290 642q-16 -44 -48.5 -67.5t-74.5 -23.5q-41 0 -67.5 23.5t-26.5 68.5q0 17 17 17h22q8 0 11.5 -2.5t4.5 -11.5q5 -45 46 -45q39 0 62 46q4 8 7.5 10.5t13.5 2.5h23q10 0 11 -5.5t-1 -12.5z
" />
    <glyph glyph-name="idotaccent" horiz-adv-x="226" 
d="M172 565q-17 0 -29 10t-12 28q0 23 16.5 38.5t39.5 15.5q17 0 29 -10t12 -28q0 -23 -16.5 -38.5t-39.5 -15.5zM114 16q-3 -16 -17 -16h-51q-16 0 -13 17l80 451q3 16 18 16h50q16 0 13 -17z" />
    <glyph glyph-name="iogonek" unicode="&#x12f;" horiz-adv-x="226" 
d="M114 16q-2 -12 -9 -15t-17.5 -5t-23.5 -7t-27 -21q-14 -17 -24 -39.5t-10 -50.5q0 -21 10 -31.5t27 -10.5q11 0 21.5 3l17.5 5q8 3 10 0.5t4 -7.5l3 -14q2 -8 -5 -12q-10 -6 -29 -11.5t-38 -5.5q-33 0 -55.5 20t-22.5 58q0 22 7 43t18.5 39t27 33t33.5 24l81 457
q3 16 18 16h50q16 0 13 -17zM172 565q-17 0 -29 10t-12 28q0 23 16.5 38.5t39.5 15.5q17 0 29 -10t12 -28q0 -23 -16.5 -38.5t-39.5 -15.5z" />
    <glyph glyph-name="ij" unicode="&#x133;" horiz-adv-x="437" 
d="M172 565q-17 0 -29 10t-12 28q0 23 16.5 38.5t39.5 15.5q17 0 29 -10t12 -28q0 -23 -16.5 -38.5t-39.5 -15.5zM114 16q-3 -16 -17 -16h-51q-16 0 -13 17l80 451q3 16 18 16h50q16 0 13 -17zM325 13q-9 -53 -22 -96t-34 -74t-52 -47.5t-77 -16.5q-11 0 -24.5 1.5
t-21.5 3.5q-9 2 -11 6t0 14l6 26q2 10 5.5 12t10.5 1t15 -1.5t13 -0.5q27 0 45 12t30 34t20 52t14 65l82 464q2 8 5.5 12t12.5 4h50q16 0 13 -18zM383 565q-17 0 -29 10t-12 28q0 23 16.5 38.5t39.5 15.5q17 0 29 -10t12 -28q0 -23 -16.5 -38.5t-39.5 -15.5z" />
    <glyph glyph-name="jcircumflex" unicode="&#x135;" horiz-adv-x="226" 
d="M114 13q-9 -53 -22 -96t-34 -74t-52 -47.5t-77 -16.5q-11 0 -24.5 1.5t-21.5 3.5q-9 2 -11 7t0 13l6 26q2 9 5 11.5t11 1.5q5 -1 14 -1.5t14 -0.5q27 0 45 12t30 34t20 52t14 65l82 464q2 8 5.5 12t12.5 4h50q16 0 13 -18zM254 546q-10 -9 -19 2l-62 75l-90 -80
q-10 -9 -18 1l-12 14q-7 9 3 19l97 95q7 6 11.5 8t12.5 2h13q6 0 9 -1.5t7 -6.5l67 -96q5 -6 4.5 -9.5t-6.5 -8.5z" />
    <glyph glyph-name="kcommaaccent" unicode="&#x137;" horiz-adv-x="410" 
d="M330 472q7 7 12 9.5t16 2.5h47q8 0 9.5 -5t-2.5 -10l-172 -186l118 -264q4 -8 1.5 -13.5t-13.5 -5.5h-48q-11 0 -15 3.5t-7 9.5l-92 209l-43 -46l-28 -160q-3 -16 -17 -16h-51q-16 0 -13 17l118 674q2 9 6 12t14 5l44 6q21 3 18 -14l-72 -414zM229 -92q0 -20 -7 -39
t-19 -36.5t-27.5 -32t-31.5 -26.5q-7 -5 -10.5 -4.5t-7.5 5.5l-5 7q-2 4 -1 6.5t6 6.5q17 14 28.5 30t11.5 30q0 16 -9 26.5t-9 25.5q0 20 13 32t30 12t27.5 -12.5t10.5 -30.5z" />
    <glyph glyph-name="kgreenlandic" unicode="&#x138;" horiz-adv-x="434" 
d="M255 290l122 -271q4 -8 1.5 -13.5t-13.5 -5.5h-47q-11 0 -15 3.5t-7 9.5l-98 220l-57 -57l-28 -160q-3 -16 -17 -16h-51q-16 0 -13 17l80 451q3 16 17 16h48q16 0 13 -17l-31 -185l191 190q8 8 12.5 10t15.5 2h48q8 0 10 -5t-3 -10z" />
    <glyph glyph-name="lacute" unicode="&#x13a;" horiz-adv-x="224" 
d="M151 691q2 9 6 12t14 5l45 6q21 3 18 -14l-123 -684q-3 -16 -17 -16h-50q-16 0 -13 17zM283 845q5 -7 5 -13t-8 -11l-123 -79q-8 -5 -12 -4t-9 6l-13 17q-6 9 3 17l112 94q16 14 26 -1z" />
    <glyph glyph-name="lcaron" unicode="&#x13e;" horiz-adv-x="244" 
d="M151 691q2 9 6 12t14 5l45 6q21 3 18 -14l-123 -684q-3 -16 -17 -16h-50q-16 0 -13 17zM369 658q0 -20 -7 -39t-19 -36.5t-27.5 -32t-31.5 -26.5q-7 -5 -10.5 -4.5t-7.5 5.5l-5 7q-2 4 -1 6.5t6 6.5q17 14 28.5 30t11.5 30q0 16 -9 26.5t-9 25.5q0 20 13 32t30 12
t27.5 -12.5t10.5 -30.5z" />
    <glyph glyph-name="lcommaaccent" unicode="&#x13c;" horiz-adv-x="224" 
d="M151 691q2 9 6 12t14 5l45 6q21 3 18 -14l-123 -684q-3 -16 -17 -16h-50q-16 0 -13 17zM98 -92q0 -20 -7 -39t-19 -36.5t-27.5 -32t-31.5 -26.5q-7 -5 -10.5 -4.5t-7.5 5.5l-5 7q-2 4 -1 6.5t6 6.5q17 14 28.5 30t11.5 30q0 16 -9 26.5t-9 25.5q0 20 13 32t30 12
t27.5 -12.5t10.5 -30.5z" />
    <glyph glyph-name="lslash" unicode="&#x142;" horiz-adv-x="263" 
d="M99 271l-62 -48q-8 -6 -13 -3t-3 11l6 35q2 9 4 13.5t8 9.5l74 57l61 345q2 9 6 12t14 5l45 6q21 3 18 -14l-50 -279l64 51q8 6 13 3t3 -11l-6 -35q-2 -9 -4 -13.5t-8 -9.5l-76 -60l-59 -330q-3 -16 -17 -16h-50q-16 0 -13 17z" />
    <glyph glyph-name="longs" unicode="&#x17f;" horiz-adv-x="259" 
d="M117 428h-39q-7 0 -10.5 2.5t-1.5 12.5l5 29q2 6 4.5 9t11.5 3h40l6 36q9 57 26.5 96t40.5 63.5t52 35.5t61 11q21 0 41 -5t34 -13q7 -4 8 -8t-1 -9l-10 -33q-3 -11 -16 -7q-12 5 -25.5 7.5t-28.5 2.5q-40 0 -64.5 -31.5t-35.5 -97.5l-123 -713q-3 -16 -17 -16h-51
q-16 0 -13 17z" />
    <glyph glyph-name="ldot" unicode="&#x140;" horiz-adv-x="309" 
d="M151 691q2 9 6 12t14 5l45 6q21 3 18 -14l-123 -684q-3 -16 -17 -16h-50q-16 0 -13 17zM261 306q-17 0 -28.5 11t-11.5 29q0 25 16.5 40.5t40.5 15.5q17 0 28.5 -11t11.5 -29q0 -25 -16.5 -40.5t-40.5 -15.5z" />
    <glyph glyph-name="nacute" unicode="&#x144;" horiz-adv-x="472" 
d="M184 436q27 25 62 42t70 17q49 0 79 -30.5t30 -84.5q0 -16 -2 -33.5t-6 -39.5l-51 -291q-3 -16 -18 -16h-49q-17 0 -14 17l52 292q7 41 7 58q0 26 -13 41.5t-42 15.5q-28 0 -58.5 -16.5t-56.5 -40.5l-62 -351q-3 -16 -17 -16h-51q-16 0 -13 17l80 451q3 16 20 16h45
q10 0 12.5 -4.5t0.5 -13.5zM392 649q5 -7 5 -13t-8 -11l-123 -79q-8 -5 -12 -4t-9 6l-13 17q-6 9 3 17l112 94q16 14 26 -1z" />
    <glyph glyph-name="ncaron" unicode="&#x148;" horiz-adv-x="472" 
d="M184 436q27 25 62 42t70 17q49 0 79 -30.5t30 -84.5q0 -16 -2 -33.5t-6 -39.5l-51 -291q-3 -16 -18 -16h-49q-17 0 -14 17l52 292q7 41 7 58q0 26 -13 41.5t-42 15.5q-28 0 -58.5 -16.5t-56.5 -40.5l-62 -351q-3 -16 -17 -16h-51q-16 0 -13 17l80 451q3 16 20 16h45
q10 0 12.5 -4.5t0.5 -13.5zM234 672q10 9 19 -2l62 -75l90 80q10 9 18 -1l12 -14q4 -5 3.5 -9t-6.5 -10l-97 -95q-7 -6 -11.5 -8t-12.5 -2h-13q-6 0 -9 1.5t-7 6.5l-67 96q-8 11 2 18z" />
    <glyph glyph-name="ntilde" unicode="&#xf1;" horiz-adv-x="472" 
d="M184 436q27 25 62 42t70 17q49 0 79 -30.5t30 -84.5q0 -16 -2 -33.5t-6 -39.5l-51 -291q-3 -16 -18 -16h-49q-17 0 -14 17l52 292q7 41 7 58q0 26 -13 41.5t-42 15.5q-28 0 -58.5 -16.5t-56.5 -40.5l-62 -351q-3 -16 -17 -16h-51q-16 0 -13 17l80 451q3 16 20 16h45
q10 0 12.5 -4.5t0.5 -13.5zM345 560q-15 0 -28 5.5t-25 12.5t-23 12.5t-23 5.5t-22.5 -6t-23.5 -18q-10 -10 -18 2l-11 16q-7 12 6 25q15 14 34 24.5t40 10.5q15 0 27.5 -5.5t24.5 -12.5t23.5 -12.5t23.5 -5.5t22.5 6t23.5 18q10 10 18 -2l11 -16q4 -6 3 -11.5t-9 -13.5
q-15 -14 -34 -24.5t-40 -10.5z" />
    <glyph glyph-name="ncommaaccent" unicode="&#x146;" horiz-adv-x="472" 
d="M184 436q27 25 62 42t70 17q49 0 79 -30.5t30 -84.5q0 -16 -2 -33.5t-6 -39.5l-51 -291q-3 -16 -18 -16h-49q-17 0 -14 17l52 292q7 41 7 58q0 26 -13 41.5t-42 15.5q-28 0 -58.5 -16.5t-56.5 -40.5l-62 -351q-3 -16 -17 -16h-51q-16 0 -13 17l80 451q3 16 20 16h45
q10 0 12.5 -4.5t0.5 -13.5zM228 -92q0 -20 -7 -39t-19 -36.5t-27.5 -32t-31.5 -26.5q-7 -5 -10.5 -4.5t-7.5 5.5l-5 7q-2 4 -1 6.5t6 6.5q17 14 28.5 30t11.5 30q0 16 -9 26.5t-9 25.5q0 20 13 32t30 12t27.5 -12.5t10.5 -30.5z" />
    <glyph glyph-name="napostrophe" unicode="&#x149;" horiz-adv-x="472" 
d="M149 659q0 -20 -7 -39t-19 -36.5t-27.5 -32t-31.5 -26.5q-7 -5 -10.5 -4.5t-7.5 5.5l-5 7q-2 4 -1 6.5t6 6.5q17 14 28.5 30t11.5 30q0 16 -9 26.5t-9 25.5q0 20 13 32t30 12t27.5 -12.5t10.5 -30.5zM184 436q27 25 62 42t70 17q49 0 79 -30.5t30 -84.5q0 -16 -2 -33.5
t-6 -39.5l-51 -291q-3 -16 -18 -16h-49q-17 0 -14 17l52 292q7 41 7 58q0 26 -13 41.5t-42 15.5q-28 0 -58.5 -16.5t-56.5 -40.5l-62 -351q-3 -16 -17 -16h-51q-16 0 -13 17l80 451q3 16 20 16h45q10 0 12.5 -4.5t0.5 -13.5z" />
    <glyph glyph-name="eng" unicode="&#x14b;" horiz-adv-x="472" 
d="M370 39q-11 -60 -25 -104.5t-35 -74t-50.5 -43.5t-69.5 -14q-30 0 -51 8q-11 4 -8 16l8 35q2 7 4.5 9.5t10.5 1.5q6 -1 15 -2t17 -1q22 0 38 8.5t27.5 27t19.5 48.5t16 73l50 282q7 41 7 58q0 26 -13 41.5t-42 15.5q-28 0 -58.5 -16.5t-56.5 -40.5l-62 -351
q-3 -16 -17 -16h-51q-16 0 -13 17l80 451q3 16 20 16h45q10 0 12.5 -4.5t0.5 -13.5l-5 -30q27 25 62 42t70 17q49 0 79 -30.5t30 -84.5q0 -16 -2 -33.5t-6 -39.5z" />
    <glyph glyph-name="ograve" unicode="&#xf2;" horiz-adv-x="456" 
d="M421 317q0 -56 -15.5 -114t-45 -105.5t-73 -78t-99.5 -30.5q-76 0 -114 50t-38 128q0 56 15.5 114t45 105.5t73 78t99.5 30.5q76 0 114 -50t38 -128zM336 316q0 51 -18 83t-55 32q-33 0 -59.5 -24t-44.5 -62.5t-28 -85t-10 -91.5q0 -51 18 -83t55 -32q33 0 59.5 24
t44.5 62.5t28 85t10 91.5zM364 582q9 -9 2 -17l-17 -20q-6 -8 -17 0l-106 76q-8 6 -10.5 11.5t4.5 14.5l24 28q12 14 25 1z" />
    <glyph glyph-name="oacute" unicode="&#xf3;" horiz-adv-x="456" 
d="M421 317q0 -56 -15.5 -114t-45 -105.5t-73 -78t-99.5 -30.5q-76 0 -114 50t-38 128q0 56 15.5 114t45 105.5t73 78t99.5 30.5q76 0 114 -50t38 -128zM336 316q0 51 -18 83t-55 32q-33 0 -59.5 -24t-44.5 -62.5t-28 -85t-10 -91.5q0 -51 18 -83t55 -32q33 0 59.5 24
t44.5 62.5t28 85t10 91.5zM372 649q5 -7 5 -13t-8 -11l-123 -79q-8 -5 -12 -4t-9 6l-13 17q-6 9 3 17l112 94q16 14 26 -1z" />
    <glyph glyph-name="ocircumflex" unicode="&#xf4;" horiz-adv-x="456" 
d="M421 317q0 -56 -15.5 -114t-45 -105.5t-73 -78t-99.5 -30.5q-76 0 -114 50t-38 128q0 56 15.5 114t45 105.5t73 78t99.5 30.5q76 0 114 -50t38 -128zM336 316q0 51 -18 83t-55 32q-33 0 -59.5 -24t-44.5 -62.5t-28 -85t-10 -91.5q0 -51 18 -83t55 -32q33 0 59.5 24
t44.5 62.5t28 85t10 91.5zM373 546q-10 -9 -19 2l-62 75l-90 -80q-10 -9 -18 1l-12 14q-7 9 3 19l97 95q7 6 11.5 8t12.5 2h13q6 0 9 -1.5t7 -6.5l67 -96q5 -6 4.5 -9.5t-6.5 -8.5z" />
    <glyph glyph-name="otilde" unicode="&#xf5;" horiz-adv-x="456" 
d="M421 317q0 -56 -15.5 -114t-45 -105.5t-73 -78t-99.5 -30.5q-76 0 -114 50t-38 128q0 56 15.5 114t45 105.5t73 78t99.5 30.5q76 0 114 -50t38 -128zM336 316q0 51 -18 83t-55 32q-33 0 -59.5 -24t-44.5 -62.5t-28 -85t-10 -91.5q0 -51 18 -83t55 -32q33 0 59.5 24
t44.5 62.5t28 85t10 91.5zM338 560q-15 0 -28 5.5t-25 12.5t-23 12.5t-23 5.5t-22.5 -6t-23.5 -18q-10 -10 -18 2l-11 16q-7 12 6 25q15 14 34 24.5t40 10.5q15 0 27.5 -5.5t24.5 -12.5t23.5 -12.5t23.5 -5.5t22.5 6t23.5 18q10 10 18 -2l11 -16q4 -6 3 -11.5t-9 -13.5
q-15 -14 -34 -24.5t-40 -10.5z" />
    <glyph glyph-name="odieresis" unicode="&#xf6;" horiz-adv-x="456" 
d="M421 317q0 -56 -15.5 -114t-45 -105.5t-73 -78t-99.5 -30.5q-76 0 -114 50t-38 128q0 56 15.5 114t45 105.5t73 78t99.5 30.5q76 0 114 -50t38 -128zM336 316q0 51 -18 83t-55 32q-33 0 -59.5 -24t-44.5 -62.5t-28 -85t-10 -91.5q0 -51 18 -83t55 -32q33 0 59.5 24
t44.5 62.5t28 85t10 91.5zM217 563q-17 0 -28 9.5t-11 26.5q0 22 15.5 37.5t37.5 15.5q17 0 28 -9.5t11 -26.5q0 -22 -15.5 -37.5t-37.5 -15.5zM362 563q-17 0 -28 9.5t-11 26.5q0 22 15.5 37.5t37.5 15.5q17 0 28 -9.5t11 -26.5q0 -22 -15.5 -37.5t-37.5 -15.5z" />
    <glyph glyph-name="omacron" unicode="&#x14d;" horiz-adv-x="456" 
d="M421 317q0 -56 -15.5 -114t-45 -105.5t-73 -78t-99.5 -30.5q-76 0 -114 50t-38 128q0 56 15.5 114t45 105.5t73 78t99.5 30.5q76 0 114 -50t38 -128zM336 316q0 51 -18 83t-55 32q-33 0 -59.5 -24t-44.5 -62.5t-28 -85t-10 -91.5q0 -51 18 -83t55 -32q33 0 59.5 24
t44.5 62.5t28 85t10 91.5zM388 624q17 0 14 -14l-5 -24q-2 -9 -5.5 -12t-12.5 -3h-186q-17 0 -14 14l5 24q3 15 17 15h187z" />
    <glyph glyph-name="obreve" unicode="&#x14f;" horiz-adv-x="456" 
d="M421 317q0 -56 -15.5 -114t-45 -105.5t-73 -78t-99.5 -30.5q-76 0 -114 50t-38 128q0 56 15.5 114t45 105.5t73 78t99.5 30.5q76 0 114 -50t38 -128zM336 316q0 51 -18 83t-55 32q-33 0 -59.5 -24t-44.5 -62.5t-28 -85t-10 -91.5q0 -51 18 -83t55 -32q33 0 59.5 24
t44.5 62.5t28 85t10 91.5zM404 642q-16 -44 -48.5 -67.5t-74.5 -23.5q-41 0 -67.5 23.5t-26.5 68.5q0 17 17 17h22q8 0 11.5 -2.5t4.5 -11.5q5 -45 46 -45q39 0 62 46q4 8 7.5 10.5t13.5 2.5h23q10 0 11 -5.5t-1 -12.5z" />
    <glyph glyph-name="ohungarumlaut" unicode="&#x151;" horiz-adv-x="456" 
d="M421 317q0 -56 -15.5 -114t-45 -105.5t-73 -78t-99.5 -30.5q-76 0 -114 50t-38 128q0 56 15.5 114t45 105.5t73 78t99.5 30.5q76 0 114 -50t38 -128zM336 316q0 51 -18 83t-55 32q-33 0 -59.5 -24t-44.5 -62.5t-28 -85t-10 -91.5q0 -51 18 -83t55 -32q33 0 59.5 24
t44.5 62.5t28 85t10 91.5zM297 648q8 -13 -7 -22l-133 -78q-8 -5 -11.5 -4t-6.5 6l-9 14q-3 5 -2 9t9 10l121 92q15 13 24 -2zM457 648q8 -13 -7 -22l-133 -78q-8 -5 -11.5 -4t-6.5 6l-9 14q-3 5 -2 9t9 10l121 92q15 13 24 -2z" />
    <glyph glyph-name="oslash" unicode="&#xf8;" horiz-adv-x="456" 
d="M421 317q0 -56 -15.5 -114t-45 -105.5t-73 -78t-99.5 -30.5q-23 0 -42 5t-36 14l-28 -44q-9 -13 -19 -4l-20 15q-10 7 -2 19l31 47q-36 48 -36 126q0 56 15.5 114t45 105.5t73 78t99.5 30.5q49 0 84 -24l27 41q9 13 19 4l20 -15q10 -7 2 -19l-31 -47q31 -48 31 -118z
M121 168q0 -27 4 -46l187 286q-18 23 -49 23q-33 0 -59.5 -24t-44.5 -62.5t-28 -85t-10 -91.5zM336 316q0 8 -0.5 16.5t-1.5 16.5l-183 -280q18 -16 43 -16q33 0 59.5 24t44.5 62.5t28 85t10 91.5z" />
    <glyph glyph-name="oslashacute" unicode="&#x1ff;" horiz-adv-x="456" 
d="M421 317q0 -56 -15.5 -114t-45 -105.5t-73 -78t-99.5 -30.5q-23 0 -42 5t-36 14l-28 -44q-9 -13 -19 -4l-20 15q-10 7 -2 19l31 47q-36 48 -36 126q0 56 15.5 114t45 105.5t73 78t99.5 30.5q49 0 84 -24l27 41q9 13 19 4l20 -15q10 -7 2 -19l-31 -47q31 -48 31 -118z
M121 168q0 -27 4 -46l187 286q-18 23 -49 23q-33 0 -59.5 -24t-44.5 -62.5t-28 -85t-10 -91.5zM336 316q0 8 -0.5 16.5t-1.5 16.5l-183 -280q18 -16 43 -16q33 0 59.5 24t44.5 62.5t28 85t10 91.5zM367 649q5 -7 5 -13t-8 -11l-123 -79q-8 -5 -12 -4t-9 6l-13 17q-6 9 3 17
l112 94q16 14 26 -1z" />
    <glyph glyph-name="oe" unicode="&#x153;" horiz-adv-x="725" 
d="M509 53q26 0 50.5 7.5t43.5 15.5q8 4 12 2t6 -8l10 -27q3 -8 1.5 -13t-12.5 -10q-26 -13 -59 -22t-70 -9q-51 0 -88.5 21.5t-57.5 63.5q-29 -38 -68.5 -61.5t-88.5 -23.5q-76 0 -114 50t-38 128q0 56 15.5 114t45 105.5t73 78t99.5 30.5q51 0 84.5 -23t50.5 -62
q31 38 70 61.5t86 23.5q62 0 98 -39.5t36 -111.5q0 -22 -3.5 -47.5t-8.5 -48.5q-3 -11 -8.5 -15.5t-17.5 -4.5h-243q-3 -24 -3 -48q0 -63 27 -95t72 -32zM336 316q0 51 -18 83t-55 32q-33 0 -59.5 -24t-44.5 -62.5t-28 -85t-10 -91.5q0 -51 18 -83t55 -32q33 0 59.5 24
t44.5 62.5t28 85t10 91.5zM553 433q-21 0 -40.5 -12t-36.5 -32t-30 -47.5t-22 -58.5h184q8 30 8 64q0 39 -16 62.5t-47 23.5z" />
    <glyph glyph-name="thorn" unicode="&#xfe;" horiz-adv-x="462" 
d="M188 440q26 23 57 39t63 16q24 0 45 -10t37.5 -30t26 -50.5t9.5 -71.5q0 -85 -28.5 -159.5t-73.5 -122.5q-28 -29 -61.5 -45.5t-68.5 -16.5q-24 0 -43.5 7.5t-36.5 21.5l-39 -222q-2 -9 -6 -12t-14 -5l-45 -6q-21 -3 -18 14l160 904q2 9 6 12t14 5l44 6q21 3 18 -14z
M280 425q-21 0 -49.5 -15t-54.5 -39l-52 -294q11 -11 26 -17.5t34 -6.5q31 0 59.5 23.5t50.5 62t34.5 87.5t12.5 99q0 52 -16 76t-45 24z" />
    <glyph glyph-name="racute" unicode="&#x155;" horiz-adv-x="303" 
d="M319 434q-3 -9 -7 -11.5t-13 -2.5h-9q-29 0 -58 -13.5t-59 -45.5l-61 -345q-3 -16 -17 -16h-51q-16 0 -13 17l80 451q3 16 20 16h45q10 0 12.5 -4.5t0.5 -13.5l-6 -38q27 31 59.5 49t58.5 18q20 0 26 -5.5t4 -14.5zM324 649q5 -7 5 -13t-8 -11l-123 -79q-8 -5 -12 -4
t-9 6l-13 17q-6 9 3 17l112 94q16 14 26 -1z" />
    <glyph glyph-name="rcaron" unicode="&#x159;" horiz-adv-x="303" 
d="M319 434q-3 -9 -7 -11.5t-13 -2.5h-9q-29 0 -58 -13.5t-59 -45.5l-61 -345q-3 -16 -17 -16h-51q-16 0 -13 17l80 451q3 16 20 16h45q10 0 12.5 -4.5t0.5 -13.5l-6 -38q27 31 59.5 49t58.5 18q20 0 26 -5.5t4 -14.5zM171 672q10 9 19 -2l62 -75l90 80q10 9 18 -1l12 -14
q4 -5 3.5 -9t-6.5 -10l-97 -95q-7 -6 -11.5 -8t-12.5 -2h-13q-6 0 -9 1.5t-7 6.5l-67 96q-8 11 2 18z" />
    <glyph glyph-name="rcommaaccent" unicode="&#x157;" horiz-adv-x="303" 
d="M319 434q-3 -9 -7 -11.5t-13 -2.5h-9q-29 0 -58 -13.5t-59 -45.5l-61 -345q-3 -16 -17 -16h-51q-16 0 -13 17l80 451q3 16 20 16h45q10 0 12.5 -4.5t0.5 -13.5l-6 -38q27 31 59.5 49t58.5 18q20 0 26 -5.5t4 -14.5zM98 -92q0 -20 -7 -39t-19 -36.5t-27.5 -32t-31.5 -26.5
q-7 -5 -10.5 -4.5t-7.5 5.5l-5 7q-2 4 -1 6.5t6 6.5q17 14 28.5 30t11.5 30q0 16 -9 26.5t-9 25.5q0 20 13 32t30 12t27.5 -12.5t10.5 -30.5z" />
    <glyph glyph-name="sacute" unicode="&#x15b;" horiz-adv-x="365" 
d="M333 425q-2 -6 -6.5 -8t-13.5 2q-17 7 -35 11t-37 4q-37 0 -60.5 -22.5t-23.5 -54.5q0 -29 22 -51.5t48.5 -46t48.5 -52.5t22 -71q0 -30 -11 -56.5t-32 -47t-50.5 -32t-66.5 -11.5q-31 0 -62.5 7.5t-54.5 18.5q-8 4 -9 7.5t2 11.5l11 27q4 9 8 12t14 -2q20 -8 43 -14
t46 -6q35 0 59.5 19.5t24.5 56.5q0 20 -10.5 36t-26 31t-34 30t-34 33t-26 40t-10.5 51q0 30 12 56.5t34 47t52 32t65 11.5q26 0 49.5 -5.5t42.5 -14.5q8 -4 10 -8.5t-1 -13.5zM341 649q5 -7 5 -13t-8 -11l-123 -79q-8 -5 -12 -4t-9 6l-13 17q-6 9 3 17l112 94q16 14 26 -1z
" />
    <glyph glyph-name="scircumflex" unicode="&#x15d;" horiz-adv-x="365" 
d="M333 425q-2 -6 -6.5 -8t-13.5 2q-17 7 -35 11t-37 4q-37 0 -60.5 -22.5t-23.5 -54.5q0 -29 22 -51.5t48.5 -46t48.5 -52.5t22 -71q0 -30 -11 -56.5t-32 -47t-50.5 -32t-66.5 -11.5q-31 0 -62.5 7.5t-54.5 18.5q-8 4 -9 7.5t2 11.5l11 27q4 9 8 12t14 -2q20 -8 43 -14
t46 -6q35 0 59.5 19.5t24.5 56.5q0 20 -10.5 36t-26 31t-34 30t-34 33t-26 40t-10.5 51q0 30 12 56.5t34 47t52 32t65 11.5q26 0 49.5 -5.5t42.5 -14.5q8 -4 10 -8.5t-1 -13.5zM344 546q-10 -9 -19 2l-62 75l-90 -80q-10 -9 -18 1l-12 14q-7 9 3 19l97 95q7 6 11.5 8t12.5 2
h13q6 0 9 -1.5t7 -6.5l67 -96q5 -6 4.5 -9.5t-6.5 -8.5z" />
    <glyph glyph-name="scaron" unicode="&#x161;" horiz-adv-x="365" 
d="M333 425q-2 -6 -6.5 -8t-13.5 2q-17 7 -35 11t-37 4q-37 0 -60.5 -22.5t-23.5 -54.5q0 -29 22 -51.5t48.5 -46t48.5 -52.5t22 -71q0 -30 -11 -56.5t-32 -47t-50.5 -32t-66.5 -11.5q-31 0 -62.5 7.5t-54.5 18.5q-8 4 -9 7.5t2 11.5l11 27q4 9 8 12t14 -2q20 -8 43 -14
t46 -6q35 0 59.5 19.5t24.5 56.5q0 20 -10.5 36t-26 31t-34 30t-34 33t-26 40t-10.5 51q0 30 12 56.5t34 47t52 32t65 11.5q26 0 49.5 -5.5t42.5 -14.5q8 -4 10 -8.5t-1 -13.5zM173 672q10 9 19 -2l62 -75l90 80q10 9 18 -1l12 -14q4 -5 3.5 -9t-6.5 -10l-97 -95
q-7 -6 -11.5 -8t-12.5 -2h-13q-6 0 -9 1.5t-7 6.5l-67 96q-8 11 2 18z" />
    <glyph glyph-name="scedilla" unicode="&#x15f;" horiz-adv-x="365" 
d="M219 -111q0 -37 -27.5 -64.5t-72.5 -27.5q-15 0 -28.5 2.5t-23.5 6.5q-7 2 -8 6t1 10l5 17q3 10 14 7q10 -3 19.5 -4.5t17.5 -1.5q21 0 34 13.5t13 29.5q0 12 -10 19.5t-41 12.5q-15 2 -16.5 9.5t1.5 19.5l13 47q-25 2 -48 8.5t-41 15.5q-8 4 -9 7.5t2 11.5l11 27
q4 9 8 12t14 -2q20 -8 43 -14t46 -6q35 0 59.5 19.5t24.5 56.5q0 20 -10.5 36t-26 31t-34 30t-34 33t-26 40t-10.5 51q0 30 12 56.5t34 47t52 32t65 11.5q26 0 49.5 -5.5t42.5 -14.5q8 -4 10.5 -7.5t-1.5 -14.5l-10 -28q-2 -6 -6.5 -8t-13.5 2q-17 7 -35 11t-37 4
q-37 0 -60.5 -22.5t-23.5 -54.5q0 -29 22 -51.5t48.5 -46t48.5 -52.5t22 -71q0 -28 -10 -53.5t-28 -45t-44.5 -32t-59.5 -15.5l-9 -39q35 -5 53.5 -20.5t18.5 -41.5z" />
    <glyph glyph-name="scommaaccent" unicode="&#x219;" horiz-adv-x="365" 
d="M333 425q-2 -6 -6.5 -8t-13.5 2q-17 7 -35 11t-37 4q-37 0 -60.5 -22.5t-23.5 -54.5q0 -29 22 -51.5t48.5 -46t48.5 -52.5t22 -71q0 -30 -11 -56.5t-32 -47t-50.5 -32t-66.5 -11.5q-31 0 -62.5 7.5t-54.5 18.5q-8 4 -9 7.5t2 11.5l11 27q4 9 8 12t14 -2q20 -8 43 -14
t46 -6q35 0 59.5 19.5t24.5 56.5q0 20 -10.5 36t-26 31t-34 30t-34 33t-26 40t-10.5 51q0 30 12 56.5t34 47t52 32t65 11.5q26 0 49.5 -5.5t42.5 -14.5q8 -4 10 -8.5t-1 -13.5zM174 -92q0 -20 -7 -39t-19 -36.5t-27.5 -32t-31.5 -26.5q-7 -5 -10.5 -4.5t-7.5 5.5l-5 7
q-2 4 -1 6.5t6 6.5q17 14 28.5 30t11.5 30q0 16 -9 26.5t-9 25.5q0 20 13 32t30 12t27.5 -12.5t10.5 -30.5z" />
    <glyph glyph-name="germandbls" unicode="&#xdf;" horiz-adv-x="497" 
d="M114 495q11 65 29 108t46 72q49 51 128 51q34 0 61.5 -11t47 -30.5t30 -47t10.5 -60.5q0 -69 -36.5 -116t-90.5 -72q54 -16 81.5 -56t27.5 -94q0 -49 -16 -93.5t-46 -78.5t-73 -54t-96 -20q-11 0 -23 1t-23 4q-8 2 -9 6.5t0 9.5l5 28q2 8 4.5 12t12.5 3q8 -1 14 -1h9
q35 0 63.5 13.5t49 37.5t32 56.5t11.5 70.5q0 52 -31.5 84t-92.5 32h-4q-6 0 -9.5 2t-1.5 11l6 35q3 12 14 12q31 2 57 16t44.5 36.5t28.5 50.5t10 57q0 44 -19.5 68t-51.5 24q-26 0 -47.5 -13.5t-36.5 -41.5q-11 -20 -19.5 -49t-16.5 -78l-98 -559q-3 -16 -17 -16h-51
q-16 0 -13 17z" />
    <glyph glyph-name="tcaron" unicode="&#x165;" horiz-adv-x="310" 
d="M208 484h89q15 0 12 -15l-5 -29q-2 -6 -4.5 -9t-11.5 -3h-90l-45 -252q-9 -51 -9 -73q0 -50 44 -50q12 0 24.5 3t22.5 6q8 2 12 0.5t4 -10.5v-29q0 -6 -2.5 -10.5t-11.5 -8.5q-15 -6 -34 -10.5t-40 -4.5q-48 0 -74 26q-13 13 -20.5 31.5t-7.5 42.5q0 17 2 36t7 46l46 257
h-41q-7 0 -10.5 2.5t-1.5 12.5l5 29q2 6 4.5 9t11.5 3h42l21 114q2 9 6 12t14 5l44 6q21 3 18 -14zM363 657q0 -20 -7 -39t-19 -36.5t-27.5 -32t-31.5 -26.5q-7 -5 -10.5 -4.5t-7.5 5.5l-5 7q-2 4 -1 6.5t6 6.5q17 14 28.5 30t11.5 30q0 16 -9 26.5t-9 25.5q0 20 13 32
t30 12t27.5 -12.5t10.5 -30.5z" />
    <glyph glyph-name="tcommaaccent" unicode="&#x163;" horiz-adv-x="310" 
d="M208 484h89q15 0 12 -15l-5 -29q-2 -6 -4.5 -9t-11.5 -3h-90l-45 -252q-9 -51 -9 -73q0 -50 44 -50q12 0 24.5 3t22.5 6q8 2 12 0.5t4 -10.5v-29q0 -6 -2.5 -10.5t-11.5 -8.5q-15 -6 -34 -10.5t-40 -4.5q-48 0 -74 26q-13 13 -20.5 31.5t-7.5 42.5q0 17 2 36t7 46l46 257
h-41q-7 0 -10.5 2.5t-1.5 12.5l5 29q2 6 4.5 9t11.5 3h42l21 114q2 9 6 12t14 5l44 6q21 3 18 -14zM180 -92q0 -20 -7 -39t-19 -36.5t-27.5 -32t-31.5 -26.5q-7 -5 -10.5 -4.5t-7.5 5.5l-5 7q-2 4 -1 6.5t6 6.5q17 14 28.5 30t11.5 30q0 16 -9 26.5t-9 25.5q0 20 13 32
t30 12t27.5 -12.5t10.5 -30.5z" />
    <glyph glyph-name="uni021B" unicode="&#x21b;" horiz-adv-x="310" 
d="M208 484h89q15 0 12 -15l-5 -29q-2 -6 -4.5 -9t-11.5 -3h-90l-45 -252q-9 -51 -9 -73q0 -50 44 -50q12 0 24.5 3t22.5 6q8 2 12 0.5t4 -10.5v-29q0 -6 -2.5 -10.5t-11.5 -8.5q-15 -6 -34 -10.5t-40 -4.5q-48 0 -74 26q-13 13 -20.5 31.5t-7.5 42.5q0 17 2 36t7 46l46 257
h-41q-7 0 -10.5 2.5t-1.5 12.5l5 29q2 6 4.5 9t11.5 3h42l21 114q2 9 6 12t14 5l44 6q21 3 18 -14zM180 -92q0 -20 -7 -39t-19 -36.5t-27.5 -32t-31.5 -26.5q-7 -5 -10.5 -4.5t-7.5 5.5l-5 7q-2 4 -1 6.5t6 6.5q17 14 28.5 30t11.5 30q0 16 -9 26.5t-9 25.5q0 20 13 32
t30 12t27.5 -12.5t10.5 -30.5z" />
    <glyph glyph-name="tbar" unicode="&#x167;" horiz-adv-x="310" 
d="M91 292l25 136h-41q-7 0 -10.5 2.5t-1.5 12.5l5 29q2 6 4.5 9t11.5 3h42l21 114q2 9 6 12t14 5l44 6q21 3 18 -14l-21 -123h89q15 0 12 -15l-5 -29q-2 -6 -4.5 -9t-11.5 -3h-90l-25 -136h57q17 0 14 -14l-3 -19q-2 -9 -5.5 -12t-12.5 -3h-58l-12 -68q-9 -51 -9 -73
q0 -50 44 -50q12 0 24.5 3t22.5 6q8 2 12.5 0.5t3.5 -10.5v-29q0 -6 -2.5 -10.5t-11.5 -8.5q-15 -6 -34 -10.5t-40 -4.5q-48 0 -74 26q-13 13 -20.5 31.5t-7.5 42.5q0 17 2 36t7 46l13 73h-37q-17 0 -14 14l3 19q2 9 5.5 12t12.5 3h38z" />
    <glyph glyph-name="ugrave" unicode="&#xf9;" horiz-adv-x="472" 
d="M289 48q-27 -25 -62 -42t-70 -17q-49 0 -79 30.5t-30 84.5q0 16 2 33.5t6 39.5l51 291q2 8 5.5 12t12.5 4h51q9 0 11.5 -4.5t0.5 -12.5l-52 -292q-7 -41 -7 -58q0 -26 13 -41.5t42 -15.5q28 0 58.5 16.5t56.5 40.5l62 351q3 16 17 16h51q16 0 13 -17l-80 -451
q-3 -16 -20 -16h-45q-10 0 -12.5 4.5t-0.5 13.5zM357 582q9 -9 2 -17l-17 -20q-6 -8 -17 0l-106 76q-8 6 -10.5 11.5t4.5 14.5l24 28q12 14 25 1z" />
    <glyph glyph-name="uacute" unicode="&#xfa;" horiz-adv-x="472" 
d="M289 48q-27 -25 -62 -42t-70 -17q-49 0 -79 30.5t-30 84.5q0 16 2 33.5t6 39.5l51 291q2 8 5.5 12t12.5 4h51q9 0 11.5 -4.5t0.5 -12.5l-52 -292q-7 -41 -7 -58q0 -26 13 -41.5t42 -15.5q28 0 58.5 16.5t56.5 40.5l62 351q3 16 17 16h51q16 0 13 -17l-80 -451
q-3 -16 -20 -16h-45q-10 0 -12.5 4.5t-0.5 13.5zM376 649q5 -7 5 -13t-8 -11l-123 -79q-8 -5 -12 -4t-9 6l-13 17q-6 9 3 17l112 94q16 14 26 -1z" />
    <glyph glyph-name="ucircumflex" unicode="&#xfb;" horiz-adv-x="472" 
d="M289 48q-27 -25 -62 -42t-70 -17q-49 0 -79 30.5t-30 84.5q0 16 2 33.5t6 39.5l51 291q2 8 5.5 12t12.5 4h51q9 0 11.5 -4.5t0.5 -12.5l-52 -292q-7 -41 -7 -58q0 -26 13 -41.5t42 -15.5q28 0 58.5 16.5t56.5 40.5l62 351q3 16 17 16h51q16 0 13 -17l-80 -451
q-3 -16 -20 -16h-45q-10 0 -12.5 4.5t-0.5 13.5zM381 546q-10 -9 -19 2l-62 75l-90 -80q-10 -9 -18 1l-12 14q-7 9 3 19l97 95q7 6 11.5 8t12.5 2h13q6 0 9 -1.5t7 -6.5l67 -96q5 -6 4.5 -9.5t-6.5 -8.5z" />
    <glyph glyph-name="utilde" unicode="&#x169;" horiz-adv-x="472" 
d="M289 48q-27 -25 -62 -42t-70 -17q-49 0 -79 30.5t-30 84.5q0 16 2 33.5t6 39.5l51 291q2 8 5.5 12t12.5 4h51q9 0 11.5 -4.5t0.5 -12.5l-52 -292q-7 -41 -7 -58q0 -26 13 -41.5t42 -15.5q28 0 58.5 16.5t56.5 40.5l62 351q3 16 17 16h51q16 0 13 -17l-80 -451
q-3 -16 -20 -16h-45q-10 0 -12.5 4.5t-0.5 13.5zM335 560q-15 0 -28 5.5t-25 12.5t-23 12.5t-23 5.5t-22.5 -6t-23.5 -18q-10 -10 -18 2l-11 16q-7 12 6 25q15 14 34 24.5t40 10.5q15 0 27.5 -5.5t24.5 -12.5t23.5 -12.5t23.5 -5.5t22.5 6t23.5 18q10 10 18 -2l11 -16
q4 -6 3 -11.5t-9 -13.5q-15 -14 -34 -24.5t-40 -10.5z" />
    <glyph glyph-name="udieresis" unicode="&#xfc;" horiz-adv-x="472" 
d="M289 48q-27 -25 -62 -42t-70 -17q-49 0 -79 30.5t-30 84.5q0 16 2 33.5t6 39.5l51 291q2 8 5.5 12t12.5 4h51q9 0 11.5 -4.5t0.5 -12.5l-52 -292q-7 -41 -7 -58q0 -26 13 -41.5t42 -15.5q28 0 58.5 16.5t56.5 40.5l62 351q3 16 17 16h51q16 0 13 -17l-80 -451
q-3 -16 -20 -16h-45q-10 0 -12.5 4.5t-0.5 13.5zM210 563q-17 0 -28 9.5t-11 26.5q0 22 15.5 37.5t37.5 15.5q17 0 28 -9.5t11 -26.5q0 -22 -15.5 -37.5t-37.5 -15.5zM355 563q-17 0 -28 9.5t-11 26.5q0 22 15.5 37.5t37.5 15.5q17 0 28 -9.5t11 -26.5q0 -22 -15.5 -37.5
t-37.5 -15.5z" />
    <glyph glyph-name="umacron" unicode="&#x16b;" horiz-adv-x="472" 
d="M289 48q-27 -25 -62 -42t-70 -17q-49 0 -79 30.5t-30 84.5q0 16 2 33.5t6 39.5l51 291q2 8 5.5 12t12.5 4h51q9 0 11.5 -4.5t0.5 -12.5l-52 -292q-7 -41 -7 -58q0 -26 13 -41.5t42 -15.5q28 0 58.5 16.5t56.5 40.5l62 351q3 16 17 16h51q16 0 13 -17l-80 -451
q-3 -16 -20 -16h-45q-10 0 -12.5 4.5t-0.5 13.5zM389 624q17 0 14 -14l-5 -24q-2 -9 -5.5 -12t-12.5 -3h-186q-17 0 -14 14l5 24q3 15 17 15h187z" />
    <glyph glyph-name="ubreve" unicode="&#x16d;" horiz-adv-x="472" 
d="M289 48q-27 -25 -62 -42t-70 -17q-49 0 -79 30.5t-30 84.5q0 16 2 33.5t6 39.5l51 291q2 8 5.5 12t12.5 4h51q9 0 11.5 -4.5t0.5 -12.5l-52 -292q-7 -41 -7 -58q0 -26 13 -41.5t42 -15.5q28 0 58.5 16.5t56.5 40.5l62 351q3 16 17 16h51q16 0 13 -17l-80 -451
q-3 -16 -20 -16h-45q-10 0 -12.5 4.5t-0.5 13.5zM408 642q-16 -44 -48.5 -67.5t-74.5 -23.5q-41 0 -67.5 23.5t-26.5 68.5q0 17 17 17h22q8 0 11.5 -2.5t4.5 -11.5q5 -45 46 -45q39 0 62 46q4 8 7.5 10.5t13.5 2.5h23q10 0 11 -5.5t-1 -12.5z" />
    <glyph glyph-name="uring" unicode="&#x16f;" horiz-adv-x="472" 
d="M289 48q-27 -25 -62 -42t-70 -17q-49 0 -79 30.5t-30 84.5q0 16 2 33.5t6 39.5l51 291q2 8 5.5 12t12.5 4h51q9 0 11.5 -4.5t0.5 -12.5l-52 -292q-7 -41 -7 -58q0 -26 13 -41.5t42 -15.5q28 0 58.5 16.5t56.5 40.5l62 351q3 16 17 16h51q16 0 13 -17l-80 -451
q-3 -16 -20 -16h-45q-10 0 -12.5 4.5t-0.5 13.5zM284 582q15 0 27.5 11t12.5 29q0 13 -8.5 20t-19.5 7q-15 0 -27.5 -11t-12.5 -29q0 -13 8.5 -20t19.5 -7zM278 541q-27 0 -46 18.5t-19 45.5q0 18 7.5 33.5t20 27t28.5 18t33 6.5q27 0 46 -18.5t19 -45.5q0 -18 -7.5 -33.5
t-20 -27t-28.5 -18t-33 -6.5z" />
    <glyph glyph-name="uhungarumlaut" unicode="&#x171;" horiz-adv-x="472" 
d="M289 48q-27 -25 -62 -42t-70 -17q-49 0 -79 30.5t-30 84.5q0 16 2 33.5t6 39.5l51 291q2 8 5.5 12t12.5 4h51q9 0 11.5 -4.5t0.5 -12.5l-52 -292q-7 -41 -7 -58q0 -26 13 -41.5t42 -15.5q28 0 58.5 16.5t56.5 40.5l62 351q3 16 17 16h51q16 0 13 -17l-80 -451
q-3 -16 -20 -16h-45q-10 0 -12.5 4.5t-0.5 13.5zM300 648q8 -13 -7 -22l-133 -78q-8 -5 -11.5 -4t-6.5 6l-9 14q-3 5 -2 9t9 10l121 92q15 13 24 -2zM460 648q8 -13 -7 -22l-133 -78q-8 -5 -11.5 -4t-6.5 6l-9 14q-3 5 -2 9t9 10l121 92q15 13 24 -2z" />
    <glyph glyph-name="uogonek" unicode="&#x173;" horiz-adv-x="472" 
d="M194 -128q0 43 25.5 81.5t63.5 59.5l6 35q-27 -25 -62 -42t-70 -17q-49 0 -79 30.5t-30 84.5q0 16 2 33.5t6 39.5l51 291q3 16 18 16h51q9 0 11.5 -4.5t0.5 -12.5l-52 -292q-7 -41 -7 -58q0 -26 13 -41.5t42 -15.5q28 0 58.5 16.5t56.5 40.5l62 351q3 16 17 16h51
q16 0 13 -17l-80 -451q-2 -12 -9 -15t-17.5 -5t-23.5 -7t-27 -21q-14 -17 -24 -39.5t-10 -50.5q0 -21 10 -31.5t27 -10.5q11 0 21.5 3l17.5 5q8 3 10 0.5t4 -7.5l3 -14q2 -8 -5 -12q-10 -6 -29 -11.5t-38 -5.5q-33 0 -55.5 20t-22.5 58z" />
    <glyph glyph-name="wgrave" unicode="&#x1e81;" horiz-adv-x="590" 
d="M387 97q17 53 36 109.5t42 113.5l58 149q4 8 8 11.5t15 3.5h42q15 0 9 -15l-189 -453q-7 -16 -24 -16h-34q-11 0 -15 3t-5 14l-14 179q-2 27 -3 54t-1 49q0 26 1 49t2 42q-7 -33 -23 -81t-36 -96l-82 -198q-4 -8 -9 -11.5t-16 -3.5h-34q-10 0 -13.5 3t-4.5 12l-28 453
q-1 16 17 16h44q9 0 12.5 -2.5t4.5 -11.5l9 -188q1 -27 1.5 -55.5t0.5 -54.5t-0.5 -45.5t-1.5 -28.5q6 25 19.5 67.5t30.5 83.5l87 221q4 9 8.5 11.5t13.5 2.5h36q10 0 13 -3t4 -12l14 -192q1 -22 2.5 -47.5t2.5 -50t1 -46t-1 -36.5zM422 582q9 -9 2 -17l-17 -20
q-6 -8 -17 0l-106 76q-8 6 -10.5 11.5t4.5 14.5l24 28q12 14 25 1z" />
    <glyph glyph-name="wacute" unicode="&#x1e83;" horiz-adv-x="590" 
d="M387 97q17 53 36 109.5t42 113.5l58 149q4 8 8 11.5t15 3.5h42q15 0 9 -15l-189 -453q-7 -16 -24 -16h-34q-11 0 -15 3t-5 14l-14 179q-2 27 -3 54t-1 49q0 26 1 49t2 42q-7 -33 -23 -81t-36 -96l-82 -198q-4 -8 -9 -11.5t-16 -3.5h-34q-10 0 -13.5 3t-4.5 12l-28 453
q-1 16 17 16h44q9 0 12.5 -2.5t4.5 -11.5l9 -188q1 -27 1.5 -55.5t0.5 -54.5t-0.5 -45.5t-1.5 -28.5q6 25 19.5 67.5t30.5 83.5l87 221q4 9 8.5 11.5t13.5 2.5h36q10 0 13 -3t4 -12l14 -192q1 -22 2.5 -47.5t2.5 -50t1 -46t-1 -36.5zM430 649q5 -7 5 -13t-8 -11l-123 -79
q-8 -5 -12 -4t-9 6l-13 17q-6 9 3 17l112 94q16 14 26 -1z" />
    <glyph glyph-name="wcircumflex" unicode="&#x175;" horiz-adv-x="590" 
d="M387 97q17 53 36 109.5t42 113.5l58 149q4 8 8 11.5t15 3.5h42q15 0 9 -15l-189 -453q-7 -16 -24 -16h-34q-11 0 -15 3t-5 14l-14 179q-2 27 -3 54t-1 49q0 26 1 49t2 42q-7 -33 -23 -81t-36 -96l-82 -198q-4 -8 -9 -11.5t-16 -3.5h-34q-10 0 -13.5 3t-4.5 12l-28 453
q-1 16 17 16h44q9 0 12.5 -2.5t4.5 -11.5l9 -188q1 -27 1.5 -55.5t0.5 -54.5t-0.5 -45.5t-1.5 -28.5q6 25 19.5 67.5t30.5 83.5l87 221q4 9 8.5 11.5t13.5 2.5h36q10 0 13 -3t4 -12l14 -192q1 -22 2.5 -47.5t2.5 -50t1 -46t-1 -36.5zM434 546q-10 -9 -19 2l-62 75l-90 -80
q-10 -9 -18 1l-12 14q-7 9 3 19l97 95q7 6 11.5 8t12.5 2h13q6 0 9 -1.5t7 -6.5l67 -96q5 -6 4.5 -9.5t-6.5 -8.5z" />
    <glyph glyph-name="wdieresis" unicode="&#x1e85;" horiz-adv-x="590" 
d="M387 97q17 53 36 109.5t42 113.5l58 149q4 8 8 11.5t15 3.5h42q15 0 9 -15l-189 -453q-7 -16 -24 -16h-34q-11 0 -15 3t-5 14l-14 179q-2 27 -3 54t-1 49q0 26 1 49t2 42q-7 -33 -23 -81t-36 -96l-82 -198q-4 -8 -9 -11.5t-16 -3.5h-34q-10 0 -13.5 3t-4.5 12l-28 453
q-1 16 17 16h44q9 0 12.5 -2.5t4.5 -11.5l9 -188q1 -27 1.5 -55.5t0.5 -54.5t-0.5 -45.5t-1.5 -28.5q6 25 19.5 67.5t30.5 83.5l87 221q4 9 8.5 11.5t13.5 2.5h36q10 0 13 -3t4 -12l14 -192q1 -22 2.5 -47.5t2.5 -50t1 -46t-1 -36.5zM275 563q-17 0 -28 9.5t-11 26.5
q0 22 15.5 37.5t37.5 15.5q17 0 28 -9.5t11 -26.5q0 -22 -15.5 -37.5t-37.5 -15.5zM420 563q-17 0 -28 9.5t-11 26.5q0 22 15.5 37.5t37.5 15.5q17 0 28 -9.5t11 -26.5q0 -22 -15.5 -37.5t-37.5 -15.5z" />
    <glyph glyph-name="ygrave" unicode="&#x1ef3;" horiz-adv-x="404" 
d="M166 -73q-18 -40 -36.5 -68t-39.5 -46t-45.5 -26t-55.5 -8q-14 0 -27 2.5t-21 6.5q-9 4 -6 17l8 30q3 11 14 10q6 -1 15 -2t17 -1q18 0 32 5t27 18t26.5 35t28.5 55l17 37l-56 476q-2 16 15 16h51q16 0 17 -15l19 -188q5 -51 7.5 -100.5t4.5 -96.5q5 18 12 38.5t15 41
t16 40t15 35.5l105 232q3 7 6.5 10t13.5 3h44q17 0 10 -15zM311 582q9 -9 2 -17l-17 -20q-6 -8 -17 0l-106 76q-8 6 -10.5 11.5t4.5 14.5l24 28q12 14 25 1z" />
    <glyph glyph-name="yacute" unicode="&#xfd;" horiz-adv-x="404" 
d="M166 -73q-18 -40 -36.5 -68t-39.5 -46t-45.5 -26t-55.5 -8q-14 0 -27 2.5t-21 6.5q-9 4 -6 17l8 30q3 11 14 10q6 -1 15 -2t17 -1q18 0 32 5t27 18t26.5 35t28.5 55l17 37l-56 476q-2 16 15 16h51q16 0 17 -15l19 -188q5 -51 7.5 -100.5t4.5 -96.5q5 18 12 38.5t15 41
t16 40t15 35.5l105 232q3 7 6.5 10t13.5 3h44q17 0 10 -15zM351 649q5 -7 5 -13t-8 -11l-123 -79q-8 -5 -12 -4t-9 6l-13 17q-6 9 3 17l112 94q16 14 26 -1z" />
    <glyph glyph-name="ycircumflex" unicode="&#x177;" horiz-adv-x="404" 
d="M166 -73q-18 -40 -36.5 -68t-39.5 -46t-45.5 -26t-55.5 -8q-14 0 -27 2.5t-21 6.5q-9 4 -6 17l8 30q3 11 14 10q6 -1 15 -2t17 -1q18 0 32 5t27 18t26.5 35t28.5 55l17 37l-56 476q-2 16 15 16h51q16 0 17 -15l19 -188q5 -51 7.5 -100.5t4.5 -96.5q5 18 12 38.5t15 41
t16 40t15 35.5l105 232q3 7 6.5 10t13.5 3h44q17 0 10 -15zM342 546q-10 -9 -19 2l-62 75l-90 -80q-10 -9 -18 1l-12 14q-7 9 3 19l97 95q7 6 11.5 8t12.5 2h13q6 0 9 -1.5t7 -6.5l67 -96q5 -6 4.5 -9.5t-6.5 -8.5z" />
    <glyph glyph-name="ydieresis" unicode="&#xff;" horiz-adv-x="404" 
d="M166 -73q-18 -40 -36.5 -68t-39.5 -46t-45.5 -26t-55.5 -8q-14 0 -27 2.5t-21 6.5q-9 4 -6 17l8 30q3 11 14 10q6 -1 15 -2t17 -1q18 0 32 5t27 18t26.5 35t28.5 55l17 37l-56 476q-2 16 15 16h51q16 0 17 -15l19 -188q5 -51 7.5 -100.5t4.5 -96.5q5 18 12 38.5t15 41
t16 40t15 35.5l105 232q3 7 6.5 10t13.5 3h44q17 0 10 -15zM184 563q-17 0 -28 9.5t-11 26.5q0 22 15.5 37.5t37.5 15.5q17 0 28 -9.5t11 -26.5q0 -22 -15.5 -37.5t-37.5 -15.5zM329 563q-17 0 -28 9.5t-11 26.5q0 22 15.5 37.5t37.5 15.5q17 0 28 -9.5t11 -26.5
q0 -22 -15.5 -37.5t-37.5 -15.5z" />
    <glyph glyph-name="zacute" unicode="&#x17a;" horiz-adv-x="381" 
d="M103 428q-15 0 -12 15l5 29q2 8 5 10t11 2h246q16 0 15 -13l-2 -12q-2 -13 -7.5 -23t-13.5 -23l-178 -261q-17 -25 -38 -52t-35 -44h191q15 0 12 -15l-5 -29q-2 -8 -5 -10t-11 -2h-261q-16 0 -15 13l2 12q2 13 7.5 23t13.5 23l178 261q17 25 38 52t35 44h-176zM326 649
q5 -7 5 -13t-8 -11l-123 -79q-8 -5 -12 -4t-9 6l-13 17q-6 9 3 17l112 94q16 14 26 -1z" />
    <glyph glyph-name="zcaron" unicode="&#x17e;" horiz-adv-x="381" 
d="M103 428q-15 0 -12 15l5 29q2 8 5 10t11 2h246q16 0 15 -13l-2 -12q-2 -13 -7.5 -23t-13.5 -23l-178 -261q-17 -25 -38 -52t-35 -44h191q15 0 12 -15l-5 -29q-2 -8 -5 -10t-11 -2h-261q-16 0 -15 13l2 12q2 13 7.5 23t13.5 23l178 261q17 25 38 52t35 44h-176zM170 672
q10 9 19 -2l62 -75l90 80q10 9 18 -1l12 -14q4 -5 3.5 -9t-6.5 -10l-97 -95q-7 -6 -11.5 -8t-12.5 -2h-13q-6 0 -9 1.5t-7 6.5l-67 96q-8 11 2 18z" />
    <glyph glyph-name="zdotaccent" unicode="&#x17c;" horiz-adv-x="381" 
d="M103 428q-15 0 -12 15l5 29q2 8 5 10t11 2h246q16 0 15 -13l-2 -12q-2 -13 -7.5 -23t-13.5 -23l-178 -261q-17 -25 -38 -52t-35 -44h191q15 0 12 -15l-5 -29q-2 -8 -5 -10t-11 -2h-261q-16 0 -15 13l2 12q2 13 7.5 23t13.5 23l178 261q17 25 38 52t35 44h-176zM241 551
q-17 0 -28.5 11t-11.5 29q0 25 16.5 40.5t40.5 15.5q17 0 28.5 -11t11.5 -29q0 -25 -16.5 -40.5t-40.5 -15.5z" />
    <glyph glyph-name="apple" unicode="&#xf8ff;" horiz-adv-x="604" 
d="M233 213v66h207v70h-207v205h274v-68h-204v-68h204v-205h-274zM98 0v690h409v-68h-340v-553h76v-69h-145z" />
    <glyph glyph-name="published" horiz-adv-x="782" 
d="M773 407q0 -83 -35.5 -158.5t-95 -133.5t-136 -92t-158.5 -34q-64 0 -119 21.5t-95 60t-63 92.5t-23 119q0 84 35.5 159.5t94.5 133t135.5 91.5t159.5 34q64 0 118.5 -21.5t95 -60.5t63.5 -93t23 -118zM710 398q0 54 -18.5 98.5t-51.5 77t-78.5 50.5t-98.5 18
q-69 0 -133 -29t-112.5 -77.5t-77.5 -112t-29 -132.5q0 -54 18.5 -98.5t51.5 -77t78.5 -50.5t98.5 -18q69 0 133 29t112.5 77.5t77.5 112t29 132.5zM362 303l-25 -141q-2 -10 -10 -10h-33q-9 0 -8 10l63 357q1 12 14 12h59q23 0 47.5 -3t45 -12t33.5 -26.5t13 -45.5
q0 -6 -0.5 -12t-1.5 -12q-9 -53 -49 -84t-96 -33h-52zM508 436q0 32 -20.5 44t-56.5 12h-36l-26 -150h38q38 0 66.5 20.5t33.5 59.5q1 5 1 14z" />
	k="-9" />
  </font>
</defs>
</svg>
